<?xml version="1.0" encoding="UTF-8" standalone="no"?>
<svg width="300px" height="300px" viewBox="0 0 300 300" version="1.1" xmlns="http://www.w3.org/2000/svg" xmlns:xlink="http://www.w3.org/1999/xlink" style="background: #FFFFFF;">
    <!-- Generator: Sketch 3.7 (28169) - http://www.bohemiancoding.com/sketch -->
    <title>Artboard 1</title>
    <desc>Created with Sketch.</desc>
    <defs></defs>
    <g id="Page-18" stroke="none" stroke-width="1" fill="none" fill-rule="evenodd">
        <g id="Artboard-1" fill="#727376">
            <path d="M84.1935484,181.680645 L84.1935484,115.822581 C84.1935484,79.4524645 113.681497,49.9645161 150.051613,49.9645161 C186.421729,49.9645161 215.909677,79.4524645 215.909677,115.822581 L215.909677,181.680645 L240.606452,231.074194 L59.4967742,231.074194 L84.1935484,181.680645 Z M150.051613,264.003226 C139.308516,264.003226 130.269497,257.112826 126.869574,247.53871 L173.233652,247.53871 C169.833729,257.112826 160.79471,264.003226 150.051613,264.003226 L150.051613,264.003226 Z M232.374194,181.680645 L232.374194,115.822581 C232.374194,70.3640516 195.510142,33.5 150.051613,33.5 C104.593084,33.5 67.7290323,70.3640516 67.7290323,115.822581 L67.7290323,181.680645 L34.8,247.53871 L109.721781,247.53871 C113.533316,266.324723 130.137781,280.467742 150.051613,280.467742 C169.965445,280.467742 186.56991,266.324723 190.381445,247.53871 L265.303226,247.53871 L232.374194,181.680645 L232.374194,181.680645 Z" id="Fill-67"></path>
        </g>
    </g>
</svg>