<?xml version="1.0" encoding="utf-8"?>
<!-- Generator: Adobe Illustrator 19.0.0, SVG Export Plug-In . SVG Version: 6.00 Build 0)  -->
<svg version="1.1" id="Layer_1" xmlns="http://www.w3.org/2000/svg" xmlns:xlink="http://www.w3.org/1999/xlink" x="0px" y="0px"
	 viewBox="0 0 512 512" style="enable-background:new 0 0 512 512;" xml:space="preserve">
<style type="text/css">
	.st0{fill:#040000;}
	.st1{fill:#060001;}
</style>
<g>
	<g>
		<g>
			<path class="st0" d="M256,479c-59.6,0-115.6-23.2-157.7-65.3S33,315.6,33,256S56.2,140.4,98.3,98.3S196.4,33,256,33
				s115.6,23.2,157.7,65.3S479,196.4,479,256s-23.2,115.6-65.3,157.7S315.6,479,256,479z M256,63C149.6,63,63,149.6,63,256
				c0,106.4,86.6,193,193,193c106.4,0,193-86.6,193-193C449,149.6,362.4,63,256,63z"/>
		</g>
		<g>
			<path class="st1" d="M398.5,269.1h-285c-4.4,0-8-3.6-8-8v-14c0-4.4,3.6-8,8-8h285c4.4,0,8,3.6,8,8v14
				C406.5,265.5,402.9,269.1,398.5,269.1z"/>
		</g>
		<g>
			<path class="st1" d="M271,111.6v285c0,4.4-3.6,8-8,8h-14c-4.4,0-8-3.6-8-8v-285c0-4.4,3.6-8,8-8h14
				C267.4,103.6,271,107.2,271,111.6z"/>
		</g>
	</g>
</g>
</svg>
