<?xml version="1.0" encoding="utf-8"?>
<!-- Generator: Adobe Illustrator 19.0.0, SVG Export Plug-In . SVG Version: 6.00 Build 0)  -->
<svg version="1.1" id="Layer_1" xmlns="http://www.w3.org/2000/svg" xmlns:xlink="http://www.w3.org/1999/xlink" x="0px" y="0px"
	 viewBox="0 0 512 512" style="enable-background:new 0 0 512 512;" xml:space="preserve">
<path d="M34.6,70v372h442.9V70H34.6z M114.3,424.3h-62v-53.1h62V424.3z M114.3,353.4h-62v-53.1h62V353.4z M114.3,282.6h-62v-53.1h62
	V282.6z M114.3,211.7h-62v-53.1h62V211.7z M114.3,140.9h-62V87.7h62V140.9z M380,424.3H132V264.9h248V424.3z M380,247.1H132V87.7
	h248V247.1z M459.7,424.3h-62v-53.1h62V424.3z M459.7,353.4h-62v-53.1h62V353.4z M459.7,282.6h-62v-53.1h62V282.6z M459.7,211.7h-62
	v-53.1h62V211.7z M459.7,140.9h-62V87.7h62V140.9z"/>
</svg>
