<!-- Generated by IcoMoon.io -->
<svg version="1.1" xmlns="http://www.w3.org/2000/svg" width="608" height="512" viewBox="0 0 608 512">
<title></title>
<g id="icomoon-ignore">
</g>
<path fill="#f7ca18" d="M546.455 0.001h-484.908c-33.571 0-61.546 29.425-61.546 64.736v382.529c0 35.31 27.976 64.736 61.546 64.736h484.908c33.571 0 61.546-29.425 61.546-64.736v-382.529c-1.865-35.31-27.976-64.736-61.546-64.736v0z"></path>
<path fill="#fff" d="M160.001 354.623l164.448-169.734 56.643 57.821-164.448 169.734h-56.643v-57.822zM431.34 192.591l-27.756 30.224-59.341-60.447 28.713-29.249c6.7-6.825 15.313-6.825 22.014 0l36.37 37.048c6.7 6.825 6.7 15.6 0 22.424z"></path>
</svg>
