<?xml version="1.0" encoding="utf-8"?>
<!-- Generator: Adobe Illustrator 19.0.0, SVG Export Plug-In . SVG Version: 6.00 Build 0)  -->
<svg version="1.1" id="图层_9" xmlns="http://www.w3.org/2000/svg" xmlns:xlink="http://www.w3.org/1999/xlink" x="0px" y="0px"
	 viewBox="0 0 512 512" style="enable-background:new 0 0 512 512;" xml:space="preserve">
<style type="text/css">
	.st0{fill:#727376;}
</style>
<g>
	<g id="XMLID_146_">
		<path class="st0" d="M188.6,475.8c-10.6,0-18.5-2.8-24.3-8.5c-6.2-6.2-9.2-15.3-9.1-27.8c0.4-59.4,0.3-122.4-0.1-192.6
			c-0.1-21.5,12.1-29.3,22.9-36.3c0.7-0.5,1.5-0.9,2.2-1.4c31-40.3,43.4-61.7,77-121.9l0.1-0.1c6.1-10.7,8.3-16.4,9.8-22l0.2-0.8
			l0.3-0.7c6.6-15.5,13.6-22.3,27.6-26.9l1.5-0.5l1.6,0c16.4-0.4,29.1,8.9,35.7,26.1l0.7,1.8l0,1.9c0.8,37-8.6,70.8-21,111.2
			l-0.1,0.4c-2.4,7-6.5,18.8-7.6,25.3c6.7,0.4,18.7-0.1,25.9-0.4c6.2-0.3,12.1-0.5,16.8-0.5c11.5,0.1,23.2,0,34.5,0
			c17.1-0.1,34.8-0.2,52.3,0.3c15.7,0.4,27.2,5.3,34.3,14.6c7.4,9.6,9.1,23.1,5,39.9C465.4,296.1,455,336,445,374.5
			c-5.5,21.2-11.2,43.2-16.7,64.8c-6,24.1-22,36.3-47.4,36.3h-86.4v0.1h-11c-9,0-18.1,0-27.1,0c-22.1,0-45-0.1-67.5,0.1
			C188.9,475.8,188.7,475.8,188.6,475.8z"/>
	</g>
	<g id="XMLID_147_">
		<path class="st0" d="M86.6,475.3c-8.4,0-17.3-0.5-25.1-3.4c-13-4.8-20.5-15.2-21.8-30.2l0-0.9c-0.3-29.1,0.1-57.3,0.4-84.6
			c0.4-34.3,0.8-69.7,0-106.9l0-0.7l0.1-0.7c1.7-15.9,10-26.9,24-31.6c10.6-3.6,22.8-3.1,33.6-2.7c1.4,0.1,2.9,0.1,4.3,0.2
			c16.8,0.5,24.2,8.8,27.4,15.7c3.6,7.6,3.5,16.2,3.4,23.8c0,1.4,0,2.8,0,4.2c0.2,21.5,0.2,43.3,0.1,64.4c0,6.2,0,12.5,0,18.7
			l0.6,0.3v6.8c0,7.9,0,15.8,0,23.7c0.1,20.8,0.1,42.3-0.2,63.5l0,2.1c-0.1,9.9-0.2,22.1-8.9,30.6c-5.4,5.2-13,7.8-22.7,7.6
			c-2.8-0.1-5.7,0-8.8,0C90.7,475.2,88.7,475.3,86.6,475.3z"/>
	</g>
</g>
</svg>
