<?xml version="1.0" encoding="utf-8"?>
<!-- Generator: Adobe Illustrator 19.1.0, SVG Export Plug-In . SVG Version: 6.00 Build 0)  -->
<svg version="1.1" id="图层_9" xmlns="http://www.w3.org/2000/svg" xmlns:xlink="http://www.w3.org/1999/xlink" x="0px" y="0px"
	 viewBox="0 0 512 512" enable-background="new 0 0 512 512" xml:space="preserve">
<path stroke="#000000" stroke-width="6.3512" stroke-miterlimit="10" d="M329.047,283.391h36.523V265.13h-36.523V283.391z
	 M237.739,283.391h36.523V265.13h-36.523V283.391z M146.43,283.391h36.523V265.13H146.43V283.391z M329.047,374.696h36.523v-18.261
	h-36.523V374.696z M237.739,374.696h36.523v-18.261h-36.523V374.696z M146.43,374.696h36.523v-18.261H146.43V374.696z
	 M329.047,192.087h36.523v-18.261h-36.523V192.087z M237.739,192.087h36.523v-18.261h-36.523V192.087z M146.43,192.087h36.523
	v-18.261H146.43V192.087z M424.011,422.176c0,11.02-18.03,29.219-29.23,29.219H117.218c-11.199,0-29.229-18.199-29.229-29.219
	V144.607c0-11.021,18.03-29.219,29.229-29.219h10.95v21.917h18.261v-21.917h219.14v21.917h18.262v-21.917h10.95
	c11.199,0,29.23,18.198,29.23,29.219L424.011,422.176L424.011,422.176z M394.782,100.782h-10.95V46H365.57v54.782H146.43V46h-18.261
	v54.782h-10.95c-22.399,0-43.835,21.774-43.835,43.824v277.569c0,22.05,21.436,43.824,43.835,43.824h277.563
	c22.381,0,43.835-21.774,43.835-43.824V144.607C438.617,122.557,417.163,100.782,394.782,100.782z"/>
</svg>
