<?xml version="1.0" encoding="utf-8"?>
<!-- Generator: Adobe Illustrator 19.0.0, SVG Export Plug-In . SVG Version: 6.00 Build 0)  -->
<svg version="1.1" id="图层_1" xmlns="http://www.w3.org/2000/svg" xmlns:xlink="http://www.w3.org/1999/xlink" x="0px" y="0px"
	 viewBox="0 0 512 512" style="enable-background:new 0 0 512 512;" xml:space="preserve">
<style type="text/css">
	.st0{fill:#040000;}
</style>
<g>
	<path class="st0" d="M400.3,232.8c0-1.2,0.2-2.4,0.2-3.6c0-64.3-52.8-117.2-116.8-117.2c-46.1,0-85.8,27.9-104.4,67
		c-8.1-4.1-17.1-6.4-26.8-6.4c-29.6,0-54.1,23.7-58.9,52C58.4,236.8,33,268.8,33,308.4c0,49.8,40.1,91.6,89.6,91.6H399
		c45,0,82-38.9,82-84.3C481,270.1,445.6,232.9,400.3,232.8z M398.5,383.6l-3.2,0.4H123.4c-40.9,0-74.2-34.9-74.2-76.1
		c0-31.9,20.2-58.4,50.2-68.8l8.4-3l1.5-8.8c3.6-21.6,22.1-39.3,43.9-39.3c6.9,0,13.7,1.6,19.9,4.8l13.5,6.8l6.5-13.7
		c16.6-34.9,52.1-58.2,90.4-58.2c55.3,0,100.9,44.1,100.9,99.7c0,13.3-0.2,20.3-0.2,20.3l15.2,0.1c36.7,0.5,65.6,30.5,65.6,67.4
		S435.2,383.4,398.5,383.6z"/>
	<path class="st0" d="M336.3,199.2c-6.7-5.2-16.1-3.6-21,3.5l-69.7,101.9L207.2,263c-5.7-6.4-15.1-6.7-21.2-0.7
		c-6,6-6.4,16.1-0.7,22.5c0,0,46.6,51.7,53.3,56.9c6.7,5.2,16.1,3.6,21-3.5l79.9-116.9C344.5,214.3,343,204.4,336.3,199.2z"/>
</g>
</svg>
