<?xml version="1.0" encoding="utf-8"?>
<!-- Generator: Adobe Illustrator 19.1.0, SVG Export Plug-In . SVG Version: 6.00 Build 0)  -->
<svg version="1.1" id="图层_9" xmlns="http://www.w3.org/2000/svg" xmlns:xlink="http://www.w3.org/1999/xlink" x="0px" y="0px"
	 viewBox="0 0 512 512" enable-background="new 0 0 512 512" xml:space="preserve">
<g>
	<g id="XMLID_95_">
		<path d="M359.477,168.312c-2.816,0-5.632-1.074-7.78-3.223l-39.819-39.818c-2.063-2.063-3.223-4.862-3.223-7.78
			s1.159-5.717,3.223-7.78L348.32,73.27c4.298-4.297,11.264-4.295,15.561,0l39.818,39.818c4.297,4.297,4.297,11.264,0,15.561
			l-36.441,36.441C365.109,167.238,362.293,168.312,359.477,168.312z M335.219,117.491l24.258,24.258l20.881-20.881L356.1,96.61
			L335.219,117.491z"/>
	</g>
	<g id="XMLID_97_">
		<path d="M395.918,131.871c-2.816,0-5.632-1.074-7.78-3.223L348.32,88.83c-4.297-4.297-4.297-11.264,0-15.561l34.065-34.065
			c2.713-2.713,6.32-4.207,10.157-4.207s7.444,1.494,10.157,4.207l35.065,35.065c2.713,2.713,4.207,6.32,4.207,10.157
			c0,3.836-1.494,7.443-4.207,10.156l-34.065,34.065C401.55,130.797,398.734,131.871,395.918,131.871z M371.661,81.05l24.258,24.258
			L416.8,84.426l-24.258-24.257L371.661,81.05z"/>
	</g>
	<g id="XMLID_96_">
		<path d="M129.218,476.986c-31.497,0.001-53.133-7.935-64.468-23.688c-16.234-22.56-3.947-50.981-3.417-52.181
			c2.461-5.557,8.961-8.063,14.516-5.604c5.54,2.454,8.051,8.922,5.626,14.468c-0.116,0.271-7.693,18.327,1.2,30.553
			c8.755,12.035,31.461,16.698,65.667,13.487c33.517-3.146,61.635-22.06,88.829-40.35c28.507-19.174,57.985-39.001,92.915-39.4
			c0.364-0.004,0.734-0.006,1.099-0.006c38.626,0,77.322,23.284,121.678,73.185c4.037,4.541,3.628,11.496-0.914,15.533
			c-4.542,4.038-11.497,3.63-15.534-0.914c-58.962-66.332-94.426-65.932-106.078-65.793c-28.355,0.324-53.871,17.485-80.885,35.655
			c-29.478,19.827-59.96,40.329-99.053,44C142.909,476.635,135.843,476.986,129.218,476.986z"/>
	</g>
	<g id="XMLID_92_">
		<path d="M149.373,378.417c-2.816,0-5.632-1.074-7.78-3.223l-39.819-39.818c-2.063-2.063-3.223-4.862-3.223-7.78
			s1.159-5.717,3.223-7.78l210.104-210.104c4.297-4.297,11.264-4.297,15.561,0l39.819,39.818c2.063,2.063,3.223,4.862,3.223,7.78
			s-1.159,5.717-3.223,7.78L157.153,375.194C155.004,377.343,152.188,378.417,149.373,378.417z M125.114,327.596l24.258,24.258
			L343.917,157.31l-24.258-24.258L125.114,327.596z"/>
	</g>
	<g id="XMLID_98_">
		<path d="M71.397,416.577c-2.855,0-5.671-1.11-7.783-3.223c-3.324-3.324-4.169-8.394-2.103-12.616L99.67,322.76
			c1.562-3.192,4.569-5.434,8.074-6.018c3.507-0.585,7.077,0.562,9.589,3.073l39.819,39.818c2.513,2.513,3.657,6.084,3.073,9.589
			c-0.584,3.505-2.825,6.513-6.017,8.074l-77.978,38.16C74.691,416.211,73.038,416.577,71.397,416.577z M112.666,346.269
			l-17.282,35.316l35.316-17.283L112.666,346.269z"/>
	</g>
</g>
</svg>
