<?xml version="1.0" encoding="utf-8"?>
<!-- Generator: Adobe Illustrator 19.1.0, SVG Export Plug-In . SVG Version: 6.00 Build 0)  -->
<svg version="1.1" id="图层_9" xmlns="http://www.w3.org/2000/svg" xmlns:xlink="http://www.w3.org/1999/xlink" x="0px" y="0px"
	 viewBox="0 0 512 512" enable-background="new 0 0 512 512" xml:space="preserve">
<g>
	<g>
		<path fill="#272635" d="M267.369,412.982c-73.764,0-210.002-55.586-210.002-134.779c0-79.194,136.239-134.774,210.002-134.774
			c73.762,0,209.998,55.579,209.998,134.774C477.367,357.396,341.131,412.982,267.369,412.982L267.369,412.982z M267.369,168.505
			c-69.669,0-184.927,51.268-184.927,109.698c0,58.428,115.258,109.704,184.927,109.704c69.664,0,184.925-51.276,184.925-109.704
			C452.294,219.773,337.034,168.505,267.369,168.505L267.369,168.505z M267.369,168.505"/>
	</g>
	<g>
		<path fill="#272635" d="M267.369,345.068c-36.293,0-65.824-29.522-65.824-65.817c0-36.296,29.531-65.819,65.824-65.819
			c36.296,0,65.822,29.524,65.822,65.819C333.191,315.546,303.665,345.068,267.369,345.068L267.369,345.068z M267.369,225.969
			c-29.384,0-53.288,23.905-53.288,53.282c0,29.379,23.904,53.282,53.288,53.282c29.379,0,53.284-23.902,53.284-53.282
			C320.653,249.874,296.749,225.969,267.369,225.969L267.369,225.969z M267.369,225.969"/>
	</g>
	<g>
		<path fill="#272635" d="M242.749,262.9c-1.517,0-3.037-0.544-4.242-1.653c-2.546-2.346-2.711-6.312-0.367-8.858
			c1.256-1.366,2.603-2.644,4.035-3.827c2.681-2.197,6.629-1.818,8.826,0.859c2.204,2.674,1.818,6.623-0.85,8.826
			c-0.994,0.814-1.923,1.689-2.787,2.626C246.128,262.22,244.438,262.9,242.749,262.9L242.749,262.9z M242.749,262.9"/>
	</g>
	<g>
		<path fill="#272635" d="M267.369,318.95c-21.896,0-39.711-17.808-39.711-39.699c0-3.464,2.812-6.266,6.269-6.266
			c3.466,0,6.269,2.802,6.269,6.266c0,14.98,12.196,27.161,27.173,27.161c3.466,0,6.269,2.805,6.269,6.269
			C273.638,316.147,270.836,318.95,267.369,318.95L267.369,318.95z M267.369,318.95"/>
	</g>
	<g>
		<path fill="#272635" d="M266.587,127.759c-6.923,0-12.538-5.612-12.538-12.538V77.61c0-6.923,5.615-12.538,12.538-12.538
			s12.538,5.615,12.538,12.538v37.611C279.124,122.144,273.509,127.759,266.587,127.759L266.587,127.759z M266.587,127.759"/>
	</g>
	<g>
		<path fill="#272635" d="M194.359,132.019c-4.593,0-9.005-2.523-11.211-6.898l-11.606-23.067
			c-3.115-6.188-0.625-13.725,5.564-16.835c6.177-3.122,13.719-0.631,16.834,5.557l11.608,23.067
			c3.108,6.189,0.618,13.725-5.567,16.835C198.178,131.592,196.25,132.019,194.359,132.019L194.359,132.019z M194.359,132.019"/>
	</g>
	<g>
		<path fill="#272635" d="M121.21,161.091c-3.434,0-6.856-1.403-9.329-4.158l-16.298-18.138c-4.628-5.153-4.205-13.082,0.95-17.702
			c5.142-4.641,13.068-4.212,17.702,0.941l16.298,18.138c4.628,5.155,4.198,13.082-0.95,17.705
			C127.189,160.033,124.192,161.091,121.21,161.091L121.21,161.091z M121.21,161.091"/>
	</g>
	<g>
		<path fill="#272635" d="M333.691,132.019c-1.891,0-3.813-0.43-5.624-1.34c-6.184-3.11-8.675-10.646-5.56-16.835l11.606-23.067
			c3.099-6.177,10.623-8.686,16.835-5.557c6.184,3.108,8.674,10.644,5.559,16.835l-11.606,23.067
			C342.703,129.496,338.285,132.019,333.691,132.019L333.691,132.019z M333.691,132.019"/>
	</g>
	<g>
		<path fill="#272635" d="M406.84,161.091c-2.982,0-5.975-1.058-8.374-3.214c-5.149-4.621-5.571-12.549-0.944-17.705l16.296-18.138
			c4.628-5.142,12.545-5.576,17.705-0.941c5.148,4.621,5.571,12.549,0.943,17.702l-16.295,18.138
			C413.697,159.688,410.274,161.091,406.84,161.091L406.84,161.091z M406.84,161.091"/>
	</g>
</g>
</svg>
