<?xml version="1.0" encoding="utf-8"?>
<!-- Generator: Adobe Illustrator 19.1.0, SVG Export Plug-In . SVG Version: 6.00 Build 0)  -->
<svg version="1.1" id="图层_9" xmlns="http://www.w3.org/2000/svg" xmlns:xlink="http://www.w3.org/1999/xlink" x="0px" y="0px"
	 viewBox="0 0 512 512" enable-background="new 0 0 512 512" xml:space="preserve">
<g>
	<g>
		<g>
			<g>
				<circle cx="79.758" cy="101.143" r="33.758"/>
			</g>
			<g>
				<path d="M466,115.209H165.372c-7.769,0-14.066-6.297-14.066-14.066s6.297-14.066,14.066-14.066H466
					c7.769,0,14.066,6.297,14.066,14.066S473.769,115.209,466,115.209z"/>
			</g>
		</g>
	</g>
	<g>
		<g>
			<g>
				<circle cx="79.758" cy="256" r="33.758"/>
			</g>
			<g>
				<path d="M466,270.066H165.372c-7.769,0-14.066-6.297-14.066-14.066s6.297-14.066,14.066-14.066H466
					c7.769,0,14.066,6.297,14.066,14.066S473.769,270.066,466,270.066z"/>
			</g>
		</g>
	</g>
	<g>
		<g>
			<g>
				<circle cx="79.758" cy="410.857" r="33.758"/>
			</g>
			<g>
				<path d="M466,424.923H165.372c-7.769,0-14.066-6.297-14.066-14.066s6.297-14.066,14.066-14.066H466
					c7.769,0,14.066,6.297,14.066,14.066S473.769,424.923,466,424.923z"/>
			</g>
		</g>
	</g>
</g>
</svg>
