<?xml version="1.0" encoding="utf-8"?>
<!-- Generator: Adobe Illustrator 19.1.0, SVG Export Plug-In . SVG Version: 6.00 Build 0)  -->
<svg version="1.1" id="图层_9" xmlns="http://www.w3.org/2000/svg" xmlns:xlink="http://www.w3.org/1999/xlink" x="0px" y="0px"
	 viewBox="0 0 512 512" enable-background="new 0 0 512 512" xml:space="preserve">
<g>
	<path fill="#272635" stroke="#040000" stroke-width="5" stroke-miterlimit="10" d="M250.592,187.52
		c10.802,0,18.021-7.232,18.021-18.007c0-10.894-7.206-17.942-18.021-17.942s-21.669,7.048-21.669,17.942
		C228.936,180.288,239.791,187.52,250.592,187.52z"/>
	<path fill="#272635" stroke="#040000" stroke-width="5" stroke-miterlimit="10" d="M149.806,151.571
		c-10.802,0-21.722,7.048-21.722,17.942c0,10.776,10.92,18.007,21.722,18.007c10.762,0,17.968-7.232,17.968-18.007
		C167.761,158.619,160.568,151.571,149.806,151.571z"/>
	<path fill="#272635" stroke="#040000" stroke-width="5" stroke-miterlimit="10" d="M466,302.797
		c0-56.963-52.841-105.499-117.705-110.552c0.092-0.709,0.131-1.444-0.026-2.179c-13.007-60.637-78.212-106.352-151.686-106.352
		C113.554,83.715,46,141.609,46,212.773c0,38.181,19.491,72.581,56.424,99.711l-12.876,38.706c-0.827,2.52-0.079,5.289,1.929,7.035
		c1.221,1.05,2.756,1.601,4.305,1.601c0.997,0,2.008-0.236,2.94-0.696l48.339-24.189l5.959,1.207
		c14.884,3.058,27.733,5.709,43.562,5.709c4.659,0,9.384-0.21,14.018-0.604c1.877-0.157,3.465-1.102,4.541-2.467
		c17.43,43.614,65.468,75.101,121.997,75.101c14.477,0,29.138-3.491,42.289-6.786l37.262,20.37c0.984,0.538,2.074,0.814,3.15,0.814
		c1.47,0,2.94-0.499,4.121-1.457c2.074-1.68,2.927-4.449,2.152-6.982l-9.516-31.644C448.504,362.988,466,332.827,466,302.797z
		 M209.485,328.168c-4.266,0.368-8.597,0.551-12.889,0.551c-14.49,0-26.749-2.507-40.924-5.434l-8.242-1.667
		c-1.417-0.302-2.914-0.105-4.213,0.564l-36.212,18.126l9.411-28.271c0.919-2.769-0.092-5.788-2.467-7.455
		c-36.382-25.357-54.823-56.254-54.823-91.809c0-63.919,61.661-115.933,137.458-115.933c67.003,0,126.328,40.766,138.574,94.986
		c-70.258,0.919-127.103,50.308-127.103,110.972c0,8.82,1.339,17.364,3.596,25.607C210.968,328.233,210.246,328.102,209.485,328.168
		z M405.074,380.497c-2.192,1.654-3.124,4.502-2.336,7.127l6.208,20.646l-25.476-13.939c-0.971-0.538-2.061-0.814-3.15-0.814
		c-0.538,0-1.076,0.066-1.601,0.21c-13.663,3.452-27.799,7.009-41.567,7.009c-63.945,0-115.959-43.942-115.959-97.952
		s52.014-97.939,115.959-97.939c62.724,0,115.723,44.848,115.723,97.939C452.875,329.717,435.904,357.318,405.074,380.497z"/>
	<path fill="#272635" stroke="#040000" stroke-width="5" stroke-miterlimit="10" d="M297.423,255.98
		c-7.206,0-14.411,7.258-14.411,14.451c0,7.245,7.206,14.398,14.411,14.398c10.828,0,17.981-7.153,17.981-14.398
		C315.404,263.225,308.251,255.98,297.423,255.98z"/>
	<path fill="#272635" stroke="#040000" stroke-width="5" stroke-miterlimit="10" d="M376.592,255.98
		c-7.101,0-14.306,7.258-14.306,14.451c0,7.245,7.206,14.398,14.306,14.398c10.789,0,18.073-7.153,18.073-14.398
		C394.666,263.225,387.394,255.98,376.592,255.98z"/>
</g>
</svg>
