<?xml version="1.0" encoding="utf-8"?>
<!-- Generator: Adobe Illustrator 19.1.0, SVG Export Plug-In . SVG Version: 6.00 Build 0)  -->
<svg version="1.1" id="图层_9" xmlns="http://www.w3.org/2000/svg" xmlns:xlink="http://www.w3.org/1999/xlink" x="0px" y="0px"
	 viewBox="0 0 512 512" enable-background="new 0 0 512 512" xml:space="preserve">
<g>
	<g>
		<path d="M344.1,175.103l8.866-28.813c1.844-5.904,4.337-9.324,7.48-10.251c3.133-0.918,6.182-1.013,9.142-0.277
			c4.061,1.109,6.554,3.325,7.48,6.649c0.917,3.324,1.014,6.285,0.277,8.866l-52.638,157.915
			c-3.697,11.082-6.095,20.042-7.204,26.873c-1.108,6.84-1.204,12.008-0.277,15.514c0.917,3.515,2.952,5.914,6.095,7.203
			c3.133,1.299,6.926,1.939,11.358,1.939c10.337,0,21.332-4.061,32.968-12.19c11.636-8.121,22.346-18.839,32.137-32.137
			c9.783-13.298,17.818-28.44,24.103-45.436c6.277-16.986,9.42-34.163,9.42-51.53c0-21.791-4.9-42.015-14.683-60.673
			c-9.793-18.648-22.631-34.812-38.51-48.483c-15.887-13.662-33.894-24.38-54.023-32.137c-20.138-7.757-40.362-11.636-60.673-11.636
			c-25.488,0-49.591,5.264-72.308,15.792c-22.718,10.528-42.578,24.571-59.565,42.111c-16.995,17.549-30.388,37.869-40.171,60.95
			c-9.793,23.09-14.684,47.375-14.684,72.863c0,26.969,4.796,51.807,14.406,74.525c9.601,22.718,22.804,42.388,39.618,59.011
			c16.804,16.622,36.656,29.557,59.565,38.786c22.899,9.238,47.651,13.852,74.248,13.852c16.622,0,32.042-1.472,46.266-4.433
			c14.216-2.952,27.705-7.757,40.449-14.406c12.745-6.649,24.935-15.237,36.571-25.765c11.636-10.528,23.358-23.358,35.184-38.509
			c2.58-3.688,5.073-5.905,7.48-6.649c2.398-0.736,4.519-0.736,6.372,0c1.844,0.744,3.411,2.035,4.71,3.879
			c1.29,1.853,2.121,3.515,2.494,4.987c0,5.541-8.866,18.285-26.597,38.233c-17.731,19.947-39.531,35.652-65.382,47.097
			C328.214,460.268,299.028,466,266.528,466c-29.921,0-57.72-5.359-83.391-16.069c-25.678-10.709-47.841-25.488-66.491-44.327
			c-18.657-18.839-33.34-41.184-44.05-67.045c-10.718-25.852-16.068-53.928-16.068-84.221c0-27.705,5.627-54.11,16.899-79.235
			c11.264-25.116,26.501-47.184,45.713-66.214c19.203-19.021,41.366-34.258,66.491-45.712C210.747,51.731,236.971,46,264.312,46
			c24.379,0,48.015,4.433,70.923,13.298c22.899,8.866,43.219,21.151,60.95,36.847c17.731,15.705,31.946,34.267,42.665,55.686
			c10.71,21.428,16.251,44.518,16.622,69.261c0,20.319-3.878,40.171-11.636,59.565c-7.757,19.393-17.826,36.665-30.198,51.807
			c-12.38,15.151-26.232,27.34-41.556,36.57c-15.333,9.238-30.571,13.853-45.713,13.853c-9.61,0-16.995-2.952-22.163-8.866
			c-5.178-5.904-9.61-14.961-13.299-27.15c-9.973,11.082-21.982,19.67-36.015,25.765c-14.043,6.095-28.077,9.142-42.11,9.142
			c-12.935,0-24.199-2.675-33.8-8.034c-9.61-5.351-17.548-12.19-23.825-20.501c-6.286-8.311-11.083-17.635-14.406-27.981
			c-3.325-10.337-4.988-20.501-4.988-30.475c0-17.359,3.506-35.739,10.528-55.132c7.012-19.393,16.622-37.124,28.813-53.193
			c12.189-16.069,26.683-29.367,43.496-39.894c16.805-10.528,35.184-15.792,55.132-15.792c17.731,0,32.873,3.974,45.436,11.913
			C331.72,150.636,340.031,161.441,344.1,175.103z M219.984,357.952c18.84,0,36.57-8.216,53.193-24.657
			c16.622-16.432,29.73-39.617,39.34-69.538c9.973-29.176,14.961-50.976,14.961-65.382c0-14.034-4.71-24.743-14.13-32.137
			c-9.42-7.385-22.441-11.082-39.063-11.082c-15.514,0-30.016,4.528-43.496,13.575c-13.489,9.056-25.402,20.501-35.739,34.353
			c-10.346,13.853-18.476,28.908-24.38,45.159c-5.913,16.259-8.866,31.583-8.866,45.989c0,19.947,4.891,35.557,14.684,46.821
			C186.271,352.325,200.773,357.952,219.984,357.952z"/>
	</g>
</g>
</svg>
