<?xml version="1.0" encoding="utf-8"?>
<!-- Generator: Adobe Illustrator 19.1.0, SVG Export Plug-In . SVG Version: 6.00 Build 0)  -->
<svg version="1.1" id="图层_9" xmlns="http://www.w3.org/2000/svg" xmlns:xlink="http://www.w3.org/1999/xlink" x="0px" y="0px"
	 viewBox="0 0 512 512" enable-background="new 0 0 512 512" xml:space="preserve">
<g>
	<g id="XMLID_71_">
		<path fill="#FFFFFF" d="M370.027,419.779H96.249c-27.614,0-50-22.386-50-50V96c0-27.614,22.386-50,50-50h273.779
			c27.614,0,50,22.386,50,50v273.779C420.027,397.393,397.642,419.779,370.027,419.779z"/>
		<path d="M370.027,430.779H96.249c-33.636,0-61-27.364-61-61V96c0-33.636,27.364-61,61-61h273.779c33.636,0,61,27.364,61,61
			v273.779C431.027,403.415,403.663,430.779,370.027,430.779z M96.249,57c-21.505,0-39,17.495-39,39v273.779
			c0,21.505,17.495,39,39,39h273.779c21.505,0,39-17.495,39-39V96c0-21.505-17.495-39-39-39H96.249z"/>
	</g>
	<g id="XMLID_70_">
		<path d="M299.863,211.741c-28.509,0-51.702-23.193-51.702-51.702s23.193-51.702,51.702-51.702s51.702,23.193,51.702,51.702
			S328.372,211.741,299.863,211.741z M299.863,130.336c-16.378,0-29.702,13.324-29.702,29.702s13.324,29.702,29.702,29.702
			s29.702-13.324,29.702-29.702S316.241,130.336,299.863,130.336z"/>
	</g>
	<g id="XMLID_60_">
		<path d="M420.03,316.528c-2.947,0-5.885-1.176-8.052-3.503l-60.436-64.886l-54.181,46.789c-4.475,3.863-11.202,3.5-15.233-0.822
			L171.146,175.126L54.912,271.417c-4.679,3.876-11.613,3.225-15.488-1.453c-3.876-4.678-3.225-11.613,1.453-15.488l124.221-102.907
			c4.486-3.714,11.088-3.292,15.062,0.968l110.835,118.822l54.187-46.793c4.477-3.866,11.208-3.5,15.239,0.828l67.656,72.639
			c4.141,4.445,3.894,11.406-0.552,15.546C425.405,315.551,422.714,316.528,420.03,316.528z"/>
	</g>
	<g id="XMLID_59_">
		<path d="M372.418,477H113.477c-6.075,0-11-4.925-11-11s4.925-11,11-11h258.941c45.399,0,82.333-36.935,82.333-82.333V126.991
			c0-6.075,4.925-11,11-11s11,4.925,11,11v245.675C476.751,430.196,429.948,477,372.418,477z"/>
	</g>
</g>
</svg>
