<?xml version="1.0" encoding="utf-8"?>
<!-- Generator: Adobe Illustrator 19.1.0, SVG Export Plug-In . SVG Version: 6.00 Build 0)  -->
<svg version="1.1" id="图层_9" xmlns="http://www.w3.org/2000/svg" xmlns:xlink="http://www.w3.org/1999/xlink" x="0px" y="0px"
	 viewBox="0 0 512 512" enable-background="new 0 0 512 512" xml:space="preserve">
<g>
	<g id="XMLID_146_">
		<path d="M183.185,493.5c-11.473,0-20.12-3.057-26.426-9.335c-6.843-6.813-10.128-16.78-10.044-30.469
			c0.398-64.476,0.367-132.366-0.097-207.55c-0.143-23.381,13.098-31.971,24.78-39.549c1.329-0.862,2.699-1.75,4.097-2.69
			c26.348-17.71,42.057-31.968,54.223-49.212c13.061-18.514,22.532-41.733,30.711-75.289c0.851-3.49,1.145-7.53,1.455-11.807
			c0.404-5.552,0.821-11.293,2.466-17.227c5.463-19.756,19.024-31.369,37.204-31.856c18.035-0.463,31.93,9.658,39.065,28.551
			c15.51,41.073,15.81,82.055,0.917,125.289c-5.157,14.971-5.947,20.726-5.785,22.936c1.854,0.757,6.835,1.737,20.161,1.854
			c12.07,0.106,24.392,0.028,36.308-0.048c18.741-0.118,38.122-0.242,57.279,0.339c17.165,0.52,29.784,5.906,37.506,16.009
			c8.042,10.521,9.898,25.124,5.518,43.404c-10.018,41.816-20.972,84.045-31.565,124.882c-6.108,23.547-12.424,47.896-18.483,71.87
			c-6.625,26.238-24.009,39.572-51.668,39.627c-24.998,0.054-50.404,0.043-74.973,0.033c-5.844-0.002-11.688-0.005-17.531-0.006
			v0.132h-12.5c-9.946,0-19.894-0.022-29.841-0.043c-23.643-0.052-48.089-0.104-72.094,0.151
			C183.639,493.499,183.411,493.5,183.185,493.5z M302.838,43.499c-0.207,0-0.412,0.003-0.616,0.008
			c-2.499,0.067-10.11,0.271-13.778,13.534c-0.983,3.55-1.295,7.834-1.625,12.371c-0.372,5.112-0.756,10.398-2.101,15.914
			c-18.661,76.565-45.591,105.932-95.275,139.33c-1.515,1.018-2.998,1.981-4.438,2.916c-10.657,6.914-13.443,9.107-13.386,18.422
			c0.464,75.287,0.495,143.278,0.097,207.857c-0.055,8.905,1.858,11.778,2.685,12.6c1.373,1.368,4.626,2.087,9.205,2.048
			c24.16-0.257,48.688-0.204,72.411-0.152c5.762,0.013,11.524,0.025,17.286,0.034v-0.124h12.5c10.014,0,20.027,0.004,30.041,0.008
			c24.553,0.01,49.944,0.021,74.91-0.033c16.016-0.032,23.72-5.85,27.481-20.75c6.08-24.053,12.406-48.44,18.523-72.024
			c10.565-40.727,21.489-82.839,31.452-124.43c1.748-7.294,2.981-17.1-1.066-22.396c-3.651-4.777-12.022-6.01-18.402-6.204l0,0
			c-18.7-0.568-37.845-0.446-56.362-0.328c-12.011,0.077-24.429,0.155-36.686,0.048c-17.556-0.154-32.724-1.183-40.545-12.251
			c-8.087-11.445-3.754-26.799,2.751-45.681c12.915-37.492,12.697-72.922-0.668-108.313
			C313.187,45.19,307.739,43.499,302.838,43.499z"/>
	</g>
	<g id="XMLID_147_">
		<path d="M73.226,492.837c-9.038,0-18.587-0.522-27.075-3.641c-14.255-5.238-22.577-16.696-24.066-33.136
			c-6.671-73.553-6.523-143.843,0.439-208.916c1.866-17.428,10.948-29.388,26.266-34.586c11.54-3.917,24.761-3.394,36.428-2.933
			c1.556,0.062,3.095,0.123,4.607,0.171c10.179,0.334,23.655,3.585,30.082,17.181c3.925,8.301,3.823,17.653,3.734,25.904
			c-0.018,1.576-0.035,3.146-0.021,4.688c0.207,23.009,0.165,46.369,0.124,68.959c-0.01,5.23-0.02,10.459-0.025,15.689h0.645v12.5
			c0,9.027,0.033,18.055,0.065,27.084c0.08,21.904,0.162,44.554-0.246,66.887c-0.015,0.783-0.025,1.573-0.035,2.368
			c-0.143,10.735-0.32,24.095-9.889,33.34c-5.956,5.754-14.314,8.563-24.874,8.336c-2.895-0.062-5.994-0.016-9.278,0.035
			C77.865,492.802,75.562,492.837,73.226,492.837z M73.913,234.37c-20.172,0-25.265,3.598-26.532,15.434
			c-6.787,63.441-6.922,132.077-0.398,203.999c1.088,12.015,6.604,14.371,32.744,13.967c3.364-0.051,6.841-0.105,10.188-0.032
			c4.049,0.09,6.253-0.627,6.972-1.322c2.08-2.009,2.189-10.244,2.262-15.693c0.011-0.836,0.022-1.667,0.037-2.492
			c0.403-22.059,0.321-44.57,0.242-66.339c-0.018-4.892-0.035-9.784-0.048-14.675h-0.671v-12.5c0-9.412,0.017-18.823,0.034-28.235
			c0.041-22.524,0.083-45.815-0.122-68.687c-0.017-1.704,0.002-3.441,0.021-5.186c0.164-15.174,0.189-17.506-9.633-17.828
			c-1.565-0.051-3.164-0.114-4.779-0.178C80.414,234.454,76.987,234.37,73.913,234.37z"/>
	</g>
</g>
</svg>
