<?xml version="1.0" encoding="utf-8"?>
<!-- Generator: Adobe Illustrator 19.0.0, SVG Export Plug-In . SVG Version: 6.00 Build 0)  -->
<svg version="1.1" id="Layer_1" xmlns="http://www.w3.org/2000/svg" xmlns:xlink="http://www.w3.org/1999/xlink" x="0px" y="0px"
	 viewBox="0 0 512 512" style="enable-background:new 0 0 512 512;" xml:space="preserve">
<style type="text/css">
	.st0{fill:#040000;}
</style>
<g>
	<path class="st0" d="M250.6,190c12.1,0,20.5-8.4,20.5-20.5c0-12.2-8.2-20.4-20.5-20.4c-11.6,0-24.2,7.8-24.2,20.4
		C226.4,182.2,239,190,250.6,190z"/>
	<path class="st0" d="M170.3,169.5c0-12.2-8.2-20.4-20.5-20.4c-11.6,0-24.2,7.8-24.2,20.4c0,9.9,9.3,20.5,24.2,20.5
		C161.9,190,170.3,181.6,170.3,169.5z"/>
	<path class="st0" d="M468.5,302.8c0-28.1-12.5-55.3-35.3-76.6c-22-20.5-51.2-33.4-82.4-36.3c0-0.1,0-0.3-0.1-0.4
		c-13.2-61.8-79.5-108.3-154.1-108.3c-84.4,0-153.1,59-153.1,131.6c0,38.4,19.3,73.2,56,100.6l-12.3,37c-1.1,3.5-0.1,7.3,2.7,9.7
		c2.7,2.3,6.7,2.9,10,1.2l47.6-23.8l5.3,1.1c15,3.1,27.9,5.7,43.9,5.7c4.7,0,9.4-0.2,14.2-0.6c1.2-0.1,2.3-0.4,3.3-0.9
		c19.3,44.1,68.3,73.6,123,73.6c14,0,27.9-3.1,41.9-6.6l36.4,19.9c1.3,0.7,2.8,1.1,4.3,1.1c2.1,0,4.1-0.7,5.7-2c2.9-2.3,4-6.1,3-9.6
		l-9-30C451.1,363.7,468.5,333.1,468.5,302.8z M118.8,312.8c1.3-3.8-0.1-8-3.4-10.3c-35.7-24.9-53.8-55.1-53.8-89.8
		c0-62.5,60.5-113.4,135-113.4c64.4,0,122,38.5,135.4,90.1c-33.4,1.1-64.7,13-88.4,33.6c-24.5,21.4-38.1,49.7-38.1,79.8
		c0,7.4,1,15.2,2.8,23c-3.9,0.3-7.8,0.5-11.8,0.5c-14.4,0-26.4-2.5-40.4-5.4l-8.2-1.7c-2-0.4-4.1-0.1-5.9,0.8l-30.8,15.4
		L118.8,312.8z M403.6,378.5L403.6,378.5c-3,2.3-4.3,6.2-3.2,9.8l4.5,14.8l-20.1-11c-1.3-0.7-2.8-1.1-4.4-1.1
		c-0.8,0-1.5,0.1-2.2,0.3c-13.5,3.4-27.4,6.9-41,6.9c-62.6,0-113.5-42.8-113.5-95.5c0-52.6,50.9-95.4,113.5-95.4
		c61.4,0,113.2,43.7,113.2,95.4C450.4,328.9,433.8,355.8,403.6,378.5z"/>
	<path class="st0" d="M297.4,253.5c-8.5,0-16.9,8.4-16.9,17c0,8.5,8.4,16.9,16.9,16.9c9.8,0,20.5-6.5,20.5-16.9
		C317.9,260,307.3,253.5,297.4,253.5z"/>
	<path class="st0" d="M391.3,258.6c-3.9-3.3-9.1-5.1-14.7-5.1c-8.5,0-16.8,8.4-16.8,17c0,8.5,8.3,16.9,16.8,16.9
		c12.7,0,20.6-8.8,20.6-16.9C397.2,266.1,395,261.8,391.3,258.6z"/>
</g>
</svg>
