<?xml version="1.0" encoding="utf-8"?>
<!-- Generator: Adobe Illustrator 19.1.0, SVG Export Plug-In . SVG Version: 6.00 Build 0)  -->
<svg version="1.1" id="图层_9" xmlns="http://www.w3.org/2000/svg" xmlns:xlink="http://www.w3.org/1999/xlink" x="0px" y="0px"
	 viewBox="0 0 512 512" enable-background="new 0 0 512 512" xml:space="preserve">
<g>
	<path fill="#272635" d="M318.955,454.302c0,0,0,0-0.001,0c-7.64-0.001-15.066-3.16-19.862-8.452
		c-6.535-7.164-27.241-25.795-44.188-25.795c-16.831,0-37.856,18.738-43.895,25.303c-4.785,5.202-12.159,8.307-19.726,8.307
		c-3.604,0-7.005-0.692-10.109-2.056l-0.543-0.238l-51.516-28.807l-0.512-0.358c-9.379-6.565-12.948-19.406-8.301-29.868
		c0.035-0.081,4.751-10.962,4.751-20.883c0-30.11-24.497-54.608-54.607-54.608H68.62c-0.111,0.002-0.222,0.004-0.332,0.004
		c-8.625,0-15.648-7.662-17.891-19.519C50.217,296.382,46,273.889,46,256.168c0-17.721,4.216-40.214,4.396-41.163
		c2.272-12.009,9.448-19.723,18.224-19.516h1.826c30.111,0,54.607-24.497,54.607-54.608c0-9.92-4.714-20.798-4.762-20.907
		c-4.641-10.453-1.049-23.292,8.369-29.836l0.534-0.371l54.368-29.862l0.565-0.241c3.061-1.305,6.414-1.967,9.967-1.967
		c7.548,0,14.938,3.038,19.767,8.127c6.435,6.738,26.774,24.26,43.237,24.26c16.308,0,36.523-17.177,42.936-23.795
		c4.802-4.986,12.138-7.971,19.613-7.971c3.624,0,7.039,0.686,10.15,2.038l0.551,0.239l52.51,29.173l0.519,0.362
		c9.394,6.557,12.972,19.397,8.322,29.868c-0.035,0.08-4.751,10.961-4.751,20.882c0,30.111,24.497,54.608,54.607,54.608h1.826
		c8.765-0.195,15.952,7.506,18.224,19.515c0.179,0.949,4.396,23.442,4.396,41.163c0,17.721-4.217,40.214-4.397,41.163
		c-2.273,12.009-9.457,19.695-18.224,19.515h-1.825c-30.11,0-54.607,24.497-54.607,54.608c0,9.92,4.713,20.797,4.761,20.906
		c4.638,10.446,1.055,23.286-8.349,29.838l-0.526,0.367l-53.396,29.512l-0.558,0.24
		C325.825,453.634,322.485,454.302,318.955,454.302z M317.333,429.145c0.238,0.156,0.912,0.422,1.621,0.422
		c0.029,0,0.056,0,0.081-0.001l49.888-27.573c-1.204-2.798-6.711-16.374-6.711-30.537c0-42.354,33.36-77.063,75.182-79.236
		c0.602-3.323,3.871-22.02,3.871-36.05c0-14.027-3.267-32.717-3.87-36.05c-41.822-2.173-75.182-36.882-75.182-79.236
		c0-14.182,5.523-27.778,6.718-30.553l-49.078-27.268c-0.057-0.004-0.125-0.007-0.205-0.007c-0.837,0-1.619,0.305-1.878,0.479
		c-0.823,0.846-7.938,8.061-18.157,15.25c-15.126,10.642-29.43,16.038-42.515,16.038c-13.212,0-27.631-5.502-42.855-16.354
		c-10.281-7.328-17.428-14.68-18.254-15.542c-0.262-0.179-1.052-0.492-1.895-0.492c-0.067,0-0.126,0.002-0.176,0.005l-50.834,27.921
		c1.217,2.833,6.705,16.385,6.705,30.521c0,42.354-33.361,77.063-75.183,79.236c-0.603,3.326-3.87,22.021-3.87,36.05
		c0,14.027,3.267,32.718,3.871,36.05c41.822,2.173,75.182,36.882,75.182,79.236c0,14.209-5.545,27.829-6.726,30.569l48.113,26.904
		c0.032,0.001,0.067,0.002,0.106,0.002c0.703,0,1.37-0.258,1.607-0.411c0.899-0.967,8.087-8.572,18.437-16.158
		c15.429-11.307,30.09-17.041,43.577-17.041c13.616,0,28.388,5.843,43.907,17.366C309.22,420.416,316.435,428.165,317.333,429.145z"
		/>
	<path fill="#272635" d="M256,328.723c-40.1,0-72.723-32.624-72.723-72.723S215.9,183.277,256,183.277S328.723,215.9,328.723,256
		C328.723,296.099,296.1,328.723,256,328.723z M256,208.013c-26.46,0-47.987,21.527-47.987,47.987
		c0,26.46,21.527,47.987,47.987,47.987c26.46,0,47.987-21.527,47.987-47.987C303.987,229.54,282.461,208.013,256,208.013z"/>
</g>
</svg>
