<?xml version="1.0" encoding="utf-8"?>
<!-- Generator: Adobe Illustrator 19.0.0, SVG Export Plug-In . SVG Version: 6.00 Build 0)  -->
<svg version="1.1" id="图层_1" xmlns="http://www.w3.org/2000/svg" xmlns:xlink="http://www.w3.org/1999/xlink" x="0px" y="0px"
	 viewBox="0 0 512 512" style="enable-background:new 0 0 512 512;" xml:space="preserve">
<style type="text/css">
	.st0{fill:#040000;}
</style>
<g>
	<path class="st0" d="M466.8,116.1h-275c-4.2,0-7.6,3.4-7.6,7.6v163.4c0,3,1.7,5.7,4.5,6.9c20.6,8.9,35.1,29.4,35.1,53.3v0.1h112.8
		c3.9,0,7.1-3,7.5-6.8c3.4-28.8,27.9-51.2,57.6-51.2s54.2,22.3,57.6,51.1c0.5,3.9,3.7,6.8,7.6,6.8c4.1,0,7.5-3.4,7.5-7.6v-216
		C474.3,119.5,471,116.1,466.8,116.1z"/>
	<circle class="st0" cx="401.7" cy="347.3" r="50.6"/>
	<circle class="st0" cx="165.8" cy="347.3" r="50.6"/>
	<path class="st0" d="M165.7,289.3c2.2,0,4.5,0.1,6.6,0.4c3,0.3,5.6-1.9,5.6-4.9v-96.1c0.1-7.8-6.4-14.3-14.3-14.3h-62.3
		c-3.1,0-6,1.4-7.8,3.8l-53.9,70.7c-1.3,1.7-2,3.8-2,6l0.1,82.6c0,5.4,4.4,9.8,9.8,9.8h51.4c4.7,0,8.7-3.4,9.3-8
		C112.1,311,136.4,289.3,165.7,289.3z M96.3,236.6c-3.1,0-4.9-3.5-3.2-6l20.9-30.7c0.7-1.1,1.9-1.7,3.2-1.7h26.9
		c2.1,0,3.9,1.7,3.9,3.9v30.6c0,2.1-1.7,3.9-3.9,3.9H96.3z"/>
</g>
</svg>
