<?xml version="1.0" encoding="utf-8"?>
<!-- Generator: Adobe Illustrator 19.1.0, SVG Export Plug-In . SVG Version: 6.00 Build 0)  -->
<svg version="1.1" xmlns="http://www.w3.org/2000/svg" xmlns:xlink="http://www.w3.org/1999/xlink" x="0px" y="0px"
	 viewBox="15.167 -16.333 1000.636 1000.678" enable-background="new 15.167 -16.333 1000.636 1000.678" xml:space="preserve">
<g id="机构" display="none">
	<g display="inline">
		
			<line fill="none" stroke="#4A4D55" stroke-width="78.7001" stroke-linecap="round" stroke-linejoin="round" stroke-miterlimit="10" x1="140.586" y1="835.564" x2="140.586" y2="684.666"/>
		<g>
			<path fill="none" stroke="#4A4D55" stroke-width="50" stroke-miterlimit="10" d="M975.685,343.174L523.081,580.927
				c-5.873,3.084-12.912,3.069-18.785-0.029L55.218,343.145c-14.52-7.688-14.21-28.598,0.531-35.858l449.078-220.99
				c5.593-2.759,12.13-2.759,17.723-0.03l452.604,220.99C989.984,314.488,990.294,335.501,975.685,343.174z M250.674,446.619
				v295.937l264.949,141.232l263.104-141.232V446.633"/>
			<polyline fill="none" stroke="#4A4D55" stroke-width="50" stroke-miterlimit="10" points="515.62,294.055 140.309,464.977 
				140.309,860.563 			"/>
		</g>
	</g>
</g>
<g id="分享" display="none">
	<g display="inline">
		
			<line fill="#494C54" stroke="#494C54" stroke-width="50" stroke-linecap="round" stroke-miterlimit="10" x1="515.485" y1="600.561" x2="515.485" y2="40.262"/>
		<polyline fill="none" stroke="#494C54" stroke-width="50" stroke-linecap="round" stroke-miterlimit="10" points="
			376.357,172.551 515.485,33.424 654.612,172.551 		"/>
		<path fill="none" stroke="#494C54" stroke-width="50" stroke-linecap="round" stroke-miterlimit="10" d="M373.502,298.671H212.666
			c-23.278,0-42.148,18.87-42.148,42.148V892.44c0,23.278,18.87,42.148,42.148,42.148h605.637c23.278,0,42.148-18.87,42.148-42.148
			V340.819c0-23.278-18.87-42.148-42.148-42.148H657.468"/>
	</g>
</g>
<g id="日历" display="none">
	<path display="inline" stroke="#000000" stroke-width="14" stroke-miterlimit="10" d="M676.501,544.384h80.508v-40.253h-80.508
		V544.384z M475.231,544.384h80.509v-40.253h-80.509V544.384z M273.959,544.384h80.509v-40.253h-80.509V544.384z M676.501,745.648
		h80.508v-40.253h-80.508V745.648z M475.231,745.648h80.509v-40.253h-80.509V745.648z M273.959,745.648h80.509v-40.253h-80.509
		V745.648z M676.501,343.122h80.508v-40.253h-80.508V343.122z M475.231,343.122h80.509v-40.253h-80.509V343.122z M273.959,343.122
		h80.509v-40.253h-80.509V343.122z M885.832,850.308c0,24.292-39.744,64.407-64.431,64.407H209.568
		c-24.687,0-64.43-40.116-64.43-64.407V238.462c0-24.294,39.743-64.408,64.43-64.408h24.137v48.311h40.253v-48.311h483.05v48.311
		h40.255v-48.311h24.137c24.687,0,64.431,40.115,64.431,64.408L885.832,850.308L885.832,850.308z M821.401,141.86h-24.137V21.102
		H757.01V141.86H273.959V21.102h-40.253V141.86h-24.137c-49.374,0-96.625,47.997-96.625,96.602v611.845
		c0,48.605,47.252,96.602,96.625,96.602h611.832c49.336,0,96.626-47.997,96.626-96.602V238.462
		C918.027,189.856,870.737,141.86,821.401,141.86z"/>
</g>
<g id="时间" display="none">
	<g display="inline">
		<circle fill="none" stroke="#000000" stroke-width="50" stroke-miterlimit="10" cx="539.121" cy="518.404" r="424.219"/>
		<path fill="none" stroke="#000000" stroke-width="50" stroke-linecap="round" stroke-miterlimit="10" d="M67.531,223.384
			c54.297-86.977,133.262-159.977,232.728-207.277"/>
		
			<polyline fill="none" stroke="#000000" stroke-width="50" stroke-linecap="round" stroke-linejoin="round" stroke-miterlimit="10" points="
			480.143,277.338 480.143,574.292 767.669,574.292 		"/>
	</g>
</g>
<g id="图层_5">
	<path fill="#272636" d="M619.197,369.977l-85.41,122.014c-6.101,12.201-12.201,24.403-18.302,36.604l0,0
		c-6.101-18.302-12.201-30.504-18.302-36.604l-85.41-122.014h-73.209l122.014,170.82h-97.612v48.806h122.014v67.108H362.967v48.806
		h122.014v152.518h67.108V705.517h115.914v-48.806l-122.015,0v-67.108h115.914v-48.806h-97.612l128.115-170.82H619.197z"/>
	<path fill="#272636" d="M643.6-4.052h-48.806H82.333v976.116h866.303l0-646.677v-18.302v-18.302L643.6-4.052z M643.6,63.056
		l237.928,225.727H643.6V63.056z M899.83,929.359H131.139V38.653h469.756v250.13v42.705h48.806h256.23v597.871H899.83z"/>
</g>
</svg>
