<?xml version="1.0" encoding="utf-8"?>
<!-- Generator: Adobe Illustrator 19.0.0, SVG Export Plug-In . SVG Version: 6.00 Build 0)  -->
<svg version="1.1" id="Layer_1" xmlns="http://www.w3.org/2000/svg" xmlns:xlink="http://www.w3.org/1999/xlink" x="0px" y="0px"
	 viewBox="0 0 512 512" style="enable-background:new 0 0 512 512;" xml:space="preserve">
<path id="XMLID_2_" d="M472.3,119c-1.4-1-34-23.5-77.8-35c-48.9-12.8-92.1-6.6-126.4,17.9v280.6c0,6.7-4.9,12.2-11,12.2
	s-11-5.4-11-12.2v-279C211.4,77.7,167.4,71,117.5,84.1c-43.7,11.5-76.4,34-77.8,35c-3,2.1-4.7,5.4-4.7,9v313.5c0,4,2.1,7.6,5.6,9.6
	c3.4,2,7.7,1.9,11.1-0.1c1-0.6,95.2-55.5,145.5-16.4l13.8,31.3c1.8,4,5.7,6.6,10.1,6.6h70.1c4.4,0,8.3-2.6,10.1-6.6l13.8-31.3
	c50.3-39.1,144.6,15.8,145.5,16.4c3.4,2,7.6,2.1,11.1,0.1c3.4-2,5.6-5.6,5.6-9.6V128C477,124.4,475.2,121.1,472.3,119z"/>
</svg>
