<?xml version="1.0" encoding="utf-8"?>
<!-- Generator: Adobe Illustrator 19.1.0, SVG Export Plug-In . SVG Version: 6.00 Build 0)  -->
<svg version="1.1" id="图层_9" xmlns="http://www.w3.org/2000/svg" xmlns:xlink="http://www.w3.org/1999/xlink" x="0px" y="0px"
	 viewBox="0 0 512 512" enable-background="new 0 0 512 512" xml:space="preserve">
<g>
	<g id="XMLID_90_">
		<path d="M381.219,476.048H138.604c-11.134,0-21.939-2.183-32.118-6.489c-9.826-4.156-18.648-10.104-26.222-17.677
			c-7.573-7.572-13.521-16.395-17.677-26.222c-4.306-10.176-6.488-20.982-6.488-32.118V150.927c0-11.135,2.183-21.942,6.488-32.119
			c4.156-9.827,10.104-18.649,17.678-26.222c7.571-7.573,16.394-13.52,26.221-17.677c10.18-4.306,20.985-6.488,32.118-6.488h50.545
			c6.075,0,11,4.925,11,11s-4.925,11-11,11h-50.545c-8.173,0-16.096,1.598-23.548,4.75c-7.204,3.047-13.676,7.411-19.235,12.971
			c-5.561,5.56-9.925,12.031-12.972,19.235c-3.152,7.452-4.75,15.374-4.75,23.549v242.615c0,8.175,1.598,16.097,4.75,23.547
			c3.047,7.206,7.411,13.677,12.971,19.236c5.561,5.561,12.032,9.925,19.236,12.972c7.452,3.153,15.375,4.751,23.548,4.751h242.615
			c8.174,0,16.097-1.598,23.549-4.75c7.204-3.047,13.676-7.411,19.235-12.971c5.561-5.561,9.925-12.033,12.972-19.236
			c3.151-7.453,4.75-15.375,4.75-23.548V150.927c0-8.173-1.599-16.096-4.75-23.549c-3.047-7.203-7.411-13.674-12.972-19.235
			c-5.56-5.561-12.031-9.925-19.235-12.972c-7.452-3.152-15.375-4.75-23.549-4.75h-50.544c-6.075,0-11-4.925-11-11s4.925-11,11-11
			h50.544c11.134,0,21.94,2.183,32.119,6.488c9.827,4.157,18.648,10.104,26.222,17.678c7.574,7.574,13.521,16.396,17.677,26.222
			c4.306,10.179,6.488,20.985,6.488,32.118v242.615c0,11.133-2.183,21.939-6.488,32.118c-4.155,9.825-10.103,18.648-17.677,26.222
			c-7.573,7.573-16.396,13.521-26.222,17.677C403.159,473.865,392.353,476.048,381.219,476.048z"/>
	</g>
	<g id="XMLID_94_">
		<path d="M258.578,381.346c-2.46,0-4.898-0.824-6.89-2.424l-104.815-84.183c-4.737-3.804-5.493-10.728-1.688-15.464
			c3.805-4.735,10.729-5.492,15.464-1.688l86.928,69.816V45.048c0-6.075,4.925-11,11-11s11,4.925,11,11v325.298
			c0,4.232-2.428,8.089-6.244,9.919C261.818,380.99,260.193,381.346,258.578,381.346z"/>
	</g>
	<g id="XMLID_93_">
		<path d="M258.584,381.347c-3.266,0-6.498-1.448-8.668-4.218c-3.746-4.783-2.905-11.697,1.878-15.443l107.486-84.183
			c4.782-3.746,11.696-2.904,15.442,1.877c3.746,4.783,2.905,11.697-1.878,15.443l-107.486,84.183
			C263.347,380.583,260.956,381.347,258.584,381.347z"/>
	</g>
</g>
</svg>
