<?xml version="1.0" encoding="utf-8"?>
<!-- Generator: Adobe Illustrator 19.1.0, SVG Export Plug-In . SVG Version: 6.00 Build 0)  -->
<svg version="1.1" id="图层_9" xmlns="http://www.w3.org/2000/svg" xmlns:xlink="http://www.w3.org/1999/xlink" x="0px" y="0px"
	 viewBox="0 0 512 512" enable-background="new 0 0 512 512" xml:space="preserve">
<g>
	<g>
		<g>
			<path d="M206.666,272.233c-53.796,0-97.562-43.767-97.562-97.563s43.767-97.562,97.562-97.562s97.562,43.766,97.562,97.562
				S260.462,272.233,206.666,272.233z M206.666,99.107c-41.665,0-75.562,33.897-75.562,75.562s33.897,75.563,75.562,75.563
				s75.562-33.897,75.562-75.563S248.331,99.107,206.666,99.107z"/>
		</g>
		<g>
			<path d="M367.332,434.893c-6.075,0-11-4.925-11-11c0-82.526-67.14-149.666-149.666-149.666S57,341.366,57,423.893
				c0,6.075-4.925,11-11,11s-11-4.925-11-11c0-94.657,77.009-171.666,171.666-171.666s171.666,77.009,171.666,171.666
				C378.332,429.968,373.407,434.893,367.332,434.893z"/>
		</g>
	</g>
	<g>
		<g>
			<path d="M307.729,272.233c-6.075,0-11-4.925-11-11s4.925-11,11-11c41.665,0,75.562-33.897,75.562-75.563
				s-33.897-75.562-75.562-75.562c-6.075,0-11-4.925-11-11s4.925-11,11-11c53.796,0,97.562,43.766,97.562,97.562
				S361.524,272.233,307.729,272.233z"/>
		</g>
		<g>
			<path d="M465.987,407.108c-5.247,0-9.892-3.767-10.824-9.113c-5.973-34.263-23.955-65.605-50.632-88.252
				c-26.979-22.903-61.357-35.517-96.803-35.517c-6.075,0-11-4.925-11-11s4.925-11,11-11c40.655,0,80.091,14.47,111.041,40.745
				c30.59,25.969,51.212,61.926,58.067,101.246c1.043,5.985-2.963,11.682-8.947,12.726
				C467.25,407.054,466.614,407.108,465.987,407.108z"/>
		</g>
	</g>
</g>
</svg>
