<?xml version="1.0" encoding="utf-8"?>
<!-- Generator: Adobe Illustrator 19.0.0, SVG Export Plug-In . SVG Version: 6.00 Build 0)  -->
<svg version="1.1" id="Layer_1" xmlns="http://www.w3.org/2000/svg" xmlns:xlink="http://www.w3.org/1999/xlink" x="0px" y="0px"
	 viewBox="0 0 512 512" style="enable-background:new 0 0 512 512;" xml:space="preserve">
<style type="text/css">
	.st0{fill:#6C7A81;}
</style>
<g id="新版悠课UI">
	<g id="讨论" transform="translate(-463.000000, -1352.000000)">
		<g id="Group-3" transform="translate(463.000000, 1352.000000)">
			<path id="comments-copy" class="st0" d="M118.7,393.7H65c-16.1,0-29.4-13.2-29.4-29.4V63.3c0-16.2,13.2-29.4,29.4-29.4h384
				c16.1,0,29.4,13.2,29.4,29.4v300.9c0,16.2-13.2,29.4-29.4,29.4H273.7c-30.1,21.5-71.3,51-99.5,71c-49.2,35-55.6-15.7-55.6-15.7
				V393.7z M174,338.3v63.3l83-63.3H174z M105.7,89.2c-8.1,0-14.7,6.7-14.7,14.8v219.4c0,8.2,6.6,14.8,14.7,14.8h302.7
				c8.1,0,14.7-6.7,14.7-14.8V104.1c0-8.2-6.6-14.8-14.7-14.8H105.7z M153.7,255.3c-4.1,0-7.3,3.4-7.3,7.3v13.1c0,4,3.2,7.3,7.3,7.3
				h151.4c4.1,0,7.3-3.4,7.3-7.3v-13.1c0-4-3.2-7.3-7.3-7.3H153.7z M153.7,199.9c-4.1,0-7.4,3.4-7.4,7.3v13.1c0,4,3.3,7.3,7.4,7.3
				h206.7c4.1,0,7.4-3.4,7.4-7.3v-13.1c0-4-3.3-7.3-7.4-7.3H153.7z M153.7,144.6c-4.1,0-7.4,3.4-7.4,7.3V165c0,4,3.3,7.3,7.4,7.3
				h206.7c4.1,0,7.4-3.4,7.4-7.3v-13.1c0-4-3.3-7.3-7.4-7.3H153.7z"/>
		</g>
	</g>
</g>
</svg>
