<?xml version="1.0" encoding="utf-8"?>
<!-- Generator: Adobe Illustrator 19.1.0, SVG Export Plug-In . SVG Version: 6.00 Build 0)  -->
<svg version="1.1" id="图层_9" xmlns="http://www.w3.org/2000/svg" xmlns:xlink="http://www.w3.org/1999/xlink" x="0px" y="0px"
	 viewBox="0 0 512 512" enable-background="new 0 0 512 512" xml:space="preserve">
<g>
	<g>
		<path fill="#272635" d="M314.174,299.192c28.795-52.354,39.265-102.09,39.265-102.09h-5.235l0,0h-44.501h-47.118v-36.648h115.178
			v-15.706H256.585V89.777h-52.354v54.971H99.523v15.706h104.708v36.648H115.23v15.706h177.481l0.522,5.235
			c0,18.324-13.088,44.501-23.559,65.442C136.171,231.132,96.906,262.544,86.435,267.78c-89.001,62.825-5.235,141.355,7.853,138.738
			c94.237,20.942,156.08-19.919,197.963-69.655l6.217,4.213C327.262,356.781,466,422.223,466,422.223v-78.531
			C445.058,343.693,369.145,317.516,314.174,299.192z M246.114,322.751c-65.442,83.766-143.973,57.589-157.061,52.354
			c-31.412-7.853-41.883-65.442-2.618-83.766c65.442-20.942,123.031,2.618,164.914,23.559
			C248.732,320.133,246.114,322.751,246.114,322.751z"/>
	</g>
</g>
</svg>
