<?xml version="1.0" encoding="utf-8"?>
<!-- Generator: Adobe Illustrator 19.1.0, SVG Export Plug-In . SVG Version: 6.00 Build 0)  -->
<svg version="1.1" id="图层_9" xmlns="http://www.w3.org/2000/svg" xmlns:xlink="http://www.w3.org/1999/xlink" x="0px" y="0px"
	 viewBox="0 0 512 512" enable-background="new 0 0 512 512" xml:space="preserve">
<g>
	<g>
		<path d="M256,477c-59.031,0-114.529-22.988-156.271-64.729C57.988,370.529,35,315.031,35,256S57.988,141.471,99.729,99.729
			C141.471,57.988,196.969,35,256,35s114.529,22.988,156.271,64.729C454.012,141.471,477,196.969,477,256
			s-22.988,114.529-64.729,156.271C370.529,454.012,315.031,477,256,477z M256,57C146.271,57,57,146.271,57,256s89.271,199,199,199
			s199-89.271,199-199S365.729,57,256,57z"/>
	</g>
	<g>
		<path fill="#040000" d="M338.875,187.694L228.242,298.329l-55.706-55.707c-4.451-4.45-12.047-4.067-16.968,0.854
			c-4.92,4.919-5.301,12.516-0.852,16.966l64.454,64.455c2.332,2.331,5.527,3.333,8.749,3.054c3.572,0.303,7.248-0.909,9.981-3.642
			l118.794-118.794c4.921-4.921,4.921-12.899,0-17.82C351.775,182.774,343.796,182.774,338.875,187.694L338.875,187.694z"/>
	</g>
</g>
</svg>
