<?xml version="1.0" encoding="utf-8"?>
<!-- Generator: Adobe Illustrator 19.1.0, SVG Export Plug-In . SVG Version: 6.00 Build 0)  -->
<svg version="1.1" id="图层_9" xmlns="http://www.w3.org/2000/svg" xmlns:xlink="http://www.w3.org/1999/xlink" x="0px" y="0px"
	 viewBox="0 0 512 512" enable-background="new 0 0 512 512" xml:space="preserve">
<g>
	<path fill="#040000" d="M243.143,294.605c68.58,0,124.177-55.647,124.177-124.302S311.723,46,243.143,46
		c-68.579,0-124.177,55.648-124.177,124.303S174.564,294.605,243.143,294.605z M243.143,63.143
		c59.172,0,107.143,47.98,107.143,107.143c0,59.18-47.972,107.143-107.143,107.143C183.972,277.429,136,229.466,136,170.286
		C136,111.123,183.972,63.143,243.143,63.143z M363.143,286c-49.705,0-90,40.296-90,90s40.296,90,90,90c49.704,0,90-40.296,90-90
		S412.847,286,363.143,286z M363.143,448.857c-40.238,0-72.857-32.612-72.857-72.857c0-40.228,32.62-72.857,72.857-72.857
		C403.38,303.144,436,335.772,436,376C436,416.246,403.38,448.857,363.143,448.857z M287.432,303.386H173.14
		c-63.114,0-114.283,50.098-114.283,111.906v33.566H76v-34.285c0,0-2.327-88.845,94.286-94.286h102.857
		C273.143,320.286,278.258,310.358,287.432,303.386z M396.6,328.874c-3.081,0-5.382,1.423-6.914,4.244l-26.493,41.777L336.7,333.117
		c-1.54-2.821-3.842-4.244-6.914-4.244c-3.072,0.418-4.805,2.227-5.182,5.457c0.377,1.615,0.954,3.231,1.724,4.838
		c0.385,0.41,0.578,0.821,0.578,1.222l23.613,38.136h-13.82c-4.227,0-6.336,1.825-6.336,5.457c0.376,2.83,2.494,4.445,6.336,4.838
		h20.156v10.898h-20.156c-4.227,0-6.336,1.825-6.336,5.458c0.376,2.829,2.494,4.445,6.336,4.838h20.156v24.224
		c0,4.035,2.11,6.06,6.336,6.06c4.219,0,6.336-2.026,6.336-6.06v-24.224h20.156c3.833-0.393,5.952-2.009,6.336-4.838
		c0-3.633-2.118-5.458-6.336-5.458h-20.156v-10.897h20.156c3.833-0.393,5.952-2.009,6.336-4.838c0-3.633-2.118-5.457-6.336-5.457
		h-13.82l23.613-38.136c0-0.402,0.184-0.812,0.578-1.222c1.147-2.411,1.724-4.034,1.724-4.838
		C401.396,331.101,399.664,329.292,396.6,328.874z"/>
	<path d="M363.144,467.794c-50.616,0-91.795-41.179-91.795-91.794s41.179-91.794,91.795-91.794
		c50.614,0,91.793,41.179,91.793,91.794S413.758,467.794,363.144,467.794z M363.144,287.794c-48.638,0-88.207,39.569-88.207,88.206
		s39.569,88.206,88.207,88.206c48.637,0,88.205-39.569,88.205-88.206S411.78,287.794,363.144,287.794z M363.144,450.651
		c-41.163,0-74.651-33.488-74.651-74.65c0-41.163,33.488-74.651,74.651-74.651c41.162,0,74.65,33.488,74.65,74.651
		C437.794,417.163,404.306,450.651,363.144,450.651z M363.144,304.938c-39.185,0-71.063,31.878-71.063,71.063
		c0,39.184,31.879,71.062,71.063,71.062s71.062-31.878,71.062-71.062C434.206,336.816,402.328,304.938,363.144,304.938z
		 M77.794,450.651h-20.73v-35.359c0-62.694,52.071-113.7,116.076-113.7h119.616l-4.239,3.222c-8.723,6.63-13.73,16.199-13.78,16.295
		l-0.501,0.97l-1.093,0.001H170.337c-39.353,2.229-66.882,18.443-81.821,48.194c-11.163,22.232-10.729,44.033-10.723,44.25
		L77.794,450.651z M60.651,447.063h13.555v-32.491c-0.023-0.878-0.46-22.879,11.104-45.907c10.7-21.309,34.111-47.311,84.875-50.169
		l0.101-0.003h101.796c1.289-2.26,4.864-8.031,10.471-13.312H173.14c-62.026,0-112.488,49.396-112.488,110.112V447.063z
		 M363.192,442.095c-5.243,0-8.131-2.79-8.131-7.854v-22.43l-18.545-0.01c-5.935-0.608-7.589-3.808-7.932-6.386l-0.016-0.236
		c0-2.708,1.057-7.252,8.13-7.252h18.362v-7.31l-18.545-0.009c-5.935-0.608-7.589-3.809-7.932-6.387l-0.016-0.236
		c0-2.708,1.057-7.251,8.13-7.251h10.6l-22.187-35.832v-0.396c-0.018-0.025-0.047-0.062-0.092-0.11l-0.189-0.202l-0.119-0.25
		c-0.826-1.722-1.45-3.474-1.854-5.206l-0.071-0.305l0.037-0.311c0.467-4.004,2.854-6.5,6.721-7.026l0.242-0.017
		c3.683,0,6.606,1.771,8.459,5.124l24.948,39.341l24.946-39.339c1.843-3.354,4.768-5.126,8.461-5.126l0.243,0.017
		c3.857,0.527,6.242,3.021,6.717,7.024l0.013,0.211c0,0.754-0.216,2.073-1.898,5.609l-0.124,0.26l-0.199,0.208
		c-0.038,0.039-0.063,0.07-0.08,0.093v0.4l-22.187,35.832h10.6c5.167,0,8.13,2.643,8.13,7.251l-0.017,0.242
		c-0.351,2.576-2.011,5.773-7.93,6.381l-0.184,0.01h-18.362v7.309h18.362c5.167,0,8.13,2.644,8.13,7.252l-0.017,0.242
		c-0.351,2.575-2.011,5.773-7.93,6.38l-0.184,0.01h-18.362v22.43C371.322,439.306,368.435,442.095,363.192,442.095z
		 M336.794,408.223h21.855v26.018c0,3.03,1.316,4.266,4.543,4.266s4.542-1.236,4.542-4.266v-26.018h21.855
		c4.062-0.443,4.512-2.316,4.636-3.164c-0.023-1.857-0.633-3.544-4.541-3.544h-21.95V387.03h21.855
		c4.062-0.443,4.512-2.316,4.636-3.164c-0.023-1.856-0.633-3.544-4.541-3.544h-17.041l25.102-40.539
		c0.095-0.476,0.319-1.038,0.798-1.612c1.213-2.579,1.406-3.519,1.438-3.771c-0.307-2.279-1.363-3.404-3.502-3.732
		c-2.353,0.035-4.013,1.088-5.217,3.306l-0.062,0.104l-28.007,44.167l-28.067-44.267c-1.213-2.22-2.873-3.274-5.218-3.309
		c-2.094,0.319-3.151,1.398-3.481,3.567c0.328,1.306,0.804,2.629,1.417,3.941c0.474,0.576,0.698,1.133,0.794,1.604l25.103,40.541
		h-17.041c-3.91,0-4.519,1.689-4.541,3.547c0.121,0.845,0.562,2.718,4.636,3.161h21.855v14.486h-21.95
		c-3.91,0-4.519,1.689-4.541,3.547C332.279,405.908,332.721,407.78,336.794,408.223z M243.143,296.399
		c-69.46,0-125.971-56.566-125.971-126.096S173.683,44.206,243.143,44.206c69.461,0,125.972,56.566,125.972,126.096
		S312.604,296.399,243.143,296.399z M243.143,47.794c-67.482,0-122.383,54.957-122.383,122.509
		c0,67.551,54.9,122.508,122.383,122.508s122.384-54.957,122.384-122.509C365.526,102.751,310.625,47.794,243.143,47.794z
		 M243.143,279.223c-60.067,0-108.937-48.869-108.937-108.937S183.075,61.35,243.143,61.35c60.068,0,108.938,48.869,108.938,108.937
		S303.211,279.223,243.143,279.223z M243.143,64.938c-58.09,0-105.349,47.259-105.349,105.349
		c0,58.09,47.259,105.349,105.349,105.349s105.35-47.259,105.35-105.349C348.492,112.197,301.232,64.938,243.143,64.938z"/>
</g>
</svg>
