<?xml version="1.0" encoding="utf-8"?>
<!-- Generator: Adobe Illustrator 19.1.0, SVG Export Plug-In . SVG Version: 6.00 Build 0)  -->
<svg version="1.1" id="图层_9" xmlns="http://www.w3.org/2000/svg" xmlns:xlink="http://www.w3.org/1999/xlink" x="0px" y="0px"
	 viewBox="0 0 512 512" enable-background="new 0 0 512 512" xml:space="preserve">
<path fill="#272635" d="M463.312,213.203L446.1,197.176c2.176-2.258,4.379-4.406,6.554-6.692c3.222-3.387,3.112-8.702-0.248-11.924
	c-3.387-3.222-8.675-3.084-11.924,0.303c-63.89,66.919-129.955,99.057-196.709,95.669c-102.224-5.37-171.869-94.127-172.53-95.008
	c-2.864-3.69-8.151-4.406-11.842-1.542c-3.663,2.836-4.379,8.096-1.542,11.842c0.551,0.716,3.442,4.351,8.372,9.886l-17.542,16.303
	c-3.442,3.194-3.58,8.537-0.413,11.924c1.625,1.79,3.883,2.671,6.141,2.671c2.065,0,4.131-0.744,5.756-2.258l17.68-16.496
	c8.647,8.537,19.883,18.699,33.515,28.833L97.35,267.179c-2.176,4.103-0.633,9.198,3.525,11.373
	c1.239,0.688,2.589,1.019,3.938,1.019c3.002,0,5.921-1.625,7.463-4.516l12.998-24.564c13.879,9.17,29.714,17.873,47.174,24.867
	l-7.518,32.854c-1.046,4.516,1.79,9.033,6.361,10.107c0.606,0.165,1.267,0.22,1.873,0.22c3.855,0,7.325-2.644,8.207-6.554
	l7.077-30.816c16.826,5.398,34.974,9.088,54.306,10.162c1.432,0.055,2.837,0,4.269,0.055l0.138,36.048
	c0,4.571,3.773,8.344,8.399,8.344h0.028c4.654,0,8.427-3.828,8.427-8.454l-0.11-36.048c20.268-1.019,40.399-5.067,60.42-12.089
	l7.022,30.651c0.936,3.938,4.406,6.499,8.207,6.499c0.633,0,1.267-0.055,1.928-0.165c4.544-1.074,7.38-5.59,6.306-10.107
	l-7.546-33.101c15.642-6.775,31.201-15.449,46.568-25.886l13.687,25.804c1.515,2.892,4.406,4.516,7.463,4.516
	c1.322,0,2.671-0.33,3.966-1.019c4.076-2.148,5.645-7.215,3.47-11.346l-14.706-27.842c11.208-8.454,22.361-17.873,33.377-28.282
	l17.79,16.633c1.652,1.515,3.69,2.258,5.728,2.258c2.258,0,4.516-0.909,6.196-2.726C466.919,221.685,466.699,216.37,463.312,213.203
	z"/>
</svg>
