<?xml version="1.0" encoding="utf-8"?>
<!-- Generator: Adobe Illustrator 19.0.0, SVG Export Plug-In . SVG Version: 6.00 Build 0)  -->
<svg version="1.1" id="Layer_1" xmlns="http://www.w3.org/2000/svg" xmlns:xlink="http://www.w3.org/1999/xlink" x="0px" y="0px"
	 viewBox="0 0 512 512" style="enable-background:new 0 0 512 512;" xml:space="preserve">
<style type="text/css">
	.st0{fill:#040000;stroke:#000000;stroke-width:5;stroke-miterlimit:10;}
</style>
<path id="XMLID_6_" class="st0" d="M419.4,83.3H374c-1.1-2.6-5.9-13.5-8.2-18.3c-6.7-14-10.8-19.7-24.6-19.7H171.9
	c-13.5,0-19.3,5.5-27.3,25.5c-1.8,4.6-4.6,10.6-5.4,12.4H92.6c-25.7,0-46.6,20.9-46.6,46.5v290.3c0,25.6,20.9,46.5,46.6,46.5h326.9
	c25.7,0,46.6-20.9,46.6-46.5V129.8C466,104.1,445.1,83.3,419.4,83.3z M63.1,129.8c0-16.2,13.2-29.4,29.5-29.4h50.2
	c6.2,0,8.3-2.8,9.6-5.8c2.4-5.4,4.1-9.4,5.7-13.2c0.9-2.1,1.8-4.2,2.7-6.5c0.2-0.4,0.4-1,0.6-1.5c1.6-4.1,4.3-10.9,10.6-10.9h168.8
	c5.5,0,7.3,4,8.8,7.6l0.3,0.7c1,2.3,2.6,5.9,4.2,9.5c2.7,6.1,5.5,12.4,6.3,14.4c1.4,3.5,4.8,5.8,8.2,5.8h50.8
	c16.2,0,29.5,13.2,29.5,29.4v290.4c0,16.2-13.2,29.4-29.5,29.4H92.5c-16.2,0-29.5-13.2-29.5-29.4L63.1,129.8L63.1,129.8L63.1,129.8z
	"/>
<path id="XMLID_3_" class="st0" d="M256,364.7c52.6,0,95.5-42.8,95.5-95.5c0-52.6-42.8-95.5-95.5-95.5s-95.5,42.8-95.5,95.5
	C160.5,321.9,203.4,364.7,256,364.7z M256,190.4c43.5,0,78.9,35.4,78.9,78.9c0,43.5-35.4,78.9-78.9,78.9s-78.9-35.4-78.9-78.9
	C177.1,225.7,212.5,190.4,256,190.4z"/>
<path id="XMLID_2_" class="st0" d="M379.1,157.8h21.3c4.7,0,8.6-3.8,8.6-8.5c0-4.7-3.8-8.5-8.6-8.5h-21.3c-4.7,0-8.6,3.8-8.6,8.5
	C370.5,154,374.4,157.8,379.1,157.8z"/>
</svg>
