<?xml version="1.0" encoding="utf-8"?>
<!-- Generator: Adobe Illustrator 19.0.0, SVG Export Plug-In . SVG Version: 6.00 Build 0)  -->
<svg version="1.1" id="Layer_1" xmlns="http://www.w3.org/2000/svg" xmlns:xlink="http://www.w3.org/1999/xlink" x="0px" y="0px"
	 viewBox="0 0 512 512" style="enable-background:new 0 0 512 512;" xml:space="preserve">
<path id="XMLID_8_" d="M472.3,119c-1.4-1-34-23.5-77.8-34.9c-54.8-14.4-102.5-4.8-138.6,27.6c-36.1-32.4-83.7-42-138.5-27.6
	C73.7,95.5,41.1,118,39.7,119c-3,2.1-4.7,5.4-4.7,9v313.5c0,4,2.1,7.6,5.6,9.6c3.4,2,7.7,1.9,11.1-0.1c0.2-0.1,25-14.7,56.3-23.6
	c47.7-13.6,74.7-4,89.2,7.2l13.7,31.2c1.8,4,5.7,6.6,10.1,6.6h68.7c0.5,0.1,1,0.1,1.5,0.1c4.3,0,8.3-2.5,10.1-6.6l13.7-31.3
	c50.3-39,144.5,15.8,145.5,16.4c3.4,2,7.6,2.1,11.1,0.1c3.4-2,5.6-5.6,5.6-9.6V128C477,124.4,475.2,121,472.3,119z M455,423.4
	c-33.2-16-108.2-44.5-156.2-4c-1.3,1.1-2.3,2.4-3,4l-11.9,27h-55.9l-11.9-27.1c-0.7-1.5-1.7-2.9-3-4c-48-40.4-123-11.9-156.2,4V134
	c10.1-6.2,35.2-20.6,66.1-28.7c49.4-13,90.2-4.4,121.2,25.4c0.1,0.6,0.3,1.1,0.6,1.6c0.1,0.1,0.1,0.3,0.2,0.4v250.9
	c0,6.1,4.9,11,11,11s11-4.9,11-11V132.6c0-0.1,0.1-0.1,0.1-0.2c0.2-0.5,0.4-1.1,0.6-1.6c30.9-29.7,71.5-38.3,120.7-25.6
	c31,8,56.5,22.5,66.6,28.8V423.4z"/>
</svg>
