<?xml version="1.0" encoding="utf-8"?>
<!-- Generator: Adobe Illustrator 19.1.0, SVG Export Plug-In . SVG Version: 6.00 Build 0)  -->
<svg version="1.1" id="图层_9" xmlns="http://www.w3.org/2000/svg" xmlns:xlink="http://www.w3.org/1999/xlink" x="0px" y="0px"
	 viewBox="0 0 512 512" enable-background="new 0 0 512 512" xml:space="preserve">
<g>
	<g>
		<path d="M266.868,494.74c-24.94,0-49.957-4.276-74.153-12.876c-55.61-19.766-100.194-60.004-125.539-113.303
			c-25.347-53.298-28.419-113.277-8.653-168.887c19.766-55.61,60.004-100.194,113.303-125.54
			c53.298-25.345,113.275-28.418,168.887-8.653c55.61,19.766,100.194,60.004,125.539,113.303
			c25.346,53.299,28.419,113.277,8.653,168.887S414.9,447.865,361.602,473.211C331.494,487.528,299.247,494.738,266.868,494.74z
			 M266.573,74.617c-29.157,0-58.188,6.492-85.301,19.385c-47.991,22.822-84.224,62.967-102.021,113.04
			c-17.798,50.073-15.031,104.079,7.791,152.071c22.822,47.992,62.967,84.224,113.04,102.021
			c50.071,17.798,104.078,15.032,152.071-7.791c47.991-22.822,84.223-62.967,102.021-113.04
			c17.798-50.073,15.03-104.08-7.791-152.071c-22.822-47.992-62.967-84.224-113.04-102.021
			C311.56,78.468,289.028,74.617,266.573,74.617z"/>
	</g>
	<g>
		<path d="M379.824,312.332h-142.3c-6.075,0-11-4.925-11-11V154.366c0-6.075,4.925-11,11-11s11,4.925,11,11v135.966h131.3
			c6.075,0,11,4.925,11,11S385.899,312.332,379.824,312.332z"/>
	</g>
</g>
</svg>
