<?xml version="1.0" encoding="utf-8"?>
<!-- Generator: Adobe Illustrator 19.1.0, SVG Export Plug-In . SVG Version: 6.00 Build 0)  -->
<svg version="1.1" id="图层_9" xmlns="http://www.w3.org/2000/svg" xmlns:xlink="http://www.w3.org/1999/xlink" x="0px" y="0px"
	 viewBox="0 0 512 512" enable-background="new 0 0 512 512" xml:space="preserve">
<g>
	<path d="M329.047,283.391h36.523V265.13h-36.523V283.391z M237.739,283.391h36.523V265.13h-36.523V283.391z M146.43,283.391h36.523
		V265.13H146.43V283.391z M329.047,374.696h36.523v-18.261h-36.523V374.696z M237.739,374.696h36.523v-18.261h-36.523V374.696z
		 M146.43,374.696h36.523v-18.261H146.43V374.696z M329.047,192.087h36.523v-18.261h-36.523V192.087z M237.739,192.087h36.523
		v-18.261h-36.523V192.087z M146.43,192.087h36.523v-18.261H146.43V192.087z M424.011,422.176c0,11.02-18.03,29.219-29.23,29.219
		H117.218c-11.199,0-29.229-18.199-29.229-29.219V144.607c0-11.021,18.03-29.219,29.229-29.219h10.95v21.917h18.261v-21.917h219.14
		v21.917h18.262v-21.917h10.95c11.199,0,29.23,18.198,29.23,29.219L424.011,422.176L424.011,422.176z M394.782,100.782h-10.95V46
		H365.57v54.782H146.43V46h-18.261v54.782h-10.95c-22.399,0-43.835,21.774-43.835,43.824v277.569
		c0,22.05,21.436,43.824,43.835,43.824h277.563c22.381,0,43.835-21.774,43.835-43.824V144.607
		C438.617,122.557,417.163,100.782,394.782,100.782z"/>
	<path d="M394.781,469.176H117.218c-24.164,0-47.01-22.841-47.01-47V144.607c0-24.159,22.846-47,47.01-47h7.774V42.824h24.613
		v54.783h212.789V42.824h24.613v54.783h7.774c11.472,0,23.34,5.314,32.561,14.579c9.183,9.226,14.449,21.043,14.449,32.421v277.569
		c0,11.378-5.267,23.195-14.449,32.421C418.121,463.862,406.253,469.176,394.781,469.176z M117.218,103.958
		c-20.52,0-40.659,20.134-40.659,40.648v277.569c0,20.514,20.139,40.648,40.659,40.648h277.563c20.52,0,40.659-20.134,40.659-40.648
		V144.607c0-9.711-4.592-19.896-12.599-27.941c-8.038-8.076-18.265-12.708-28.06-12.708h-14.126V49.176h-11.91v54.783H143.254
		V49.176h-11.91v54.783H117.218z M394.782,454.571H117.218c-12.72,0-32.405-19.679-32.405-32.395V144.607
		c0-12.716,19.685-32.395,32.405-32.395h14.126v21.917h11.91v-21.917h225.491v21.917h11.91v-21.917h14.126
		c12.72,0,32.405,19.679,32.405,32.395l0,277.569C427.187,434.892,407.501,454.571,394.782,454.571z M117.218,118.563
		c-9.252,0-26.053,16.794-26.053,26.043v277.569c0,9.249,16.801,26.043,26.053,26.043h277.563c9.253,0,26.054-16.794,26.054-26.043
		h3.176h-3.176l0-277.569c0-9.249-16.801-26.043-26.054-26.043h-7.774v21.917h-24.613v-21.917H149.605v21.917h-24.613v-21.917
		H117.218z M368.746,377.872h-42.875v-24.613h42.875V377.872z M332.222,371.521h30.172v-11.91h-30.172V371.521z M277.438,377.872
		h-42.875v-24.613h42.875V377.872z M240.915,371.521h30.172v-11.91h-30.172V371.521z M186.129,377.872h-42.875v-24.613h42.875
		V377.872z M149.605,371.521h30.172v-11.91h-30.172V371.521z M368.746,286.567h-42.875v-24.612h42.875V286.567z M332.222,280.215
		h30.172v-11.909h-30.172V280.215z M277.438,286.567h-42.875v-24.612h42.875V286.567z M240.915,280.215h30.172v-11.909h-30.172
		V280.215z M186.129,286.567h-42.875v-24.612h42.875V286.567z M149.605,280.215h30.172v-11.909h-30.172V280.215z M368.746,195.263
		h-42.875V170.65h42.875V195.263z M332.222,188.911h30.172v-11.91h-30.172V188.911z M277.438,195.263h-42.875V170.65h42.875V195.263
		z M240.915,188.911h30.172v-11.91h-30.172V188.911z M186.129,195.263h-42.875V170.65h42.875V195.263z M149.605,188.911h30.172
		v-11.91h-30.172V188.911z"/>
</g>
</svg>
