<?xml version="1.0" encoding="utf-8"?>
<!-- Generator: Adobe Illustrator 19.0.0, SVG Export Plug-In . SVG Version: 6.00 Build 0)  -->
<svg version="1.1" id="Layer_1" xmlns="http://www.w3.org/2000/svg" xmlns:xlink="http://www.w3.org/1999/xlink" x="0px" y="0px"
	 viewBox="0 0 512 512" style="enable-background:new 0 0 512 512;" xml:space="preserve">
<style type="text/css">
	.st0{clip-path:url(#SVGID_2_);}
	.st1{clip-path:url(#SVGID_4_);fill:#727376;}
	.st2{clip-path:url(#SVGID_6_);}
	.st3{clip-path:url(#SVGID_8_);fill:#FAFAFA;}
	.st4{clip-path:url(#SVGID_10_);}
	.st5{clip-path:url(#SVGID_12_);fill:#727376;}
	.st6{clip-path:url(#SVGID_14_);}
	.st7{clip-path:url(#SVGID_16_);fill:#FAFAFA;}
	.st8{clip-path:url(#SVGID_18_);}
	.st9{clip-path:url(#SVGID_20_);fill:#727376;}
	.st10{clip-path:url(#SVGID_22_);}
	.st11{clip-path:url(#SVGID_24_);fill:#FAFAFA;}
	.st12{clip-path:url(#SVGID_26_);}
	.st13{clip-path:url(#SVGID_28_);fill:#727376;}
	.st14{clip-path:url(#SVGID_30_);}
	.st15{clip-path:url(#SVGID_32_);fill:#FAFAFA;}
	.st16{clip-path:url(#SVGID_34_);}
	.st17{clip-path:url(#SVGID_36_);fill:#727376;}
	.st18{clip-path:url(#SVGID_38_);}
	.st19{clip-path:url(#SVGID_40_);fill:#FAFAFA;}
	.st20{clip-path:url(#SVGID_42_);}
	.st21{clip-path:url(#SVGID_44_);fill:#727376;}
	.st22{clip-path:url(#SVGID_46_);}
	.st23{clip-path:url(#SVGID_48_);fill:#FAFAFA;}
	.st24{clip-path:url(#SVGID_50_);}
	.st25{clip-path:url(#SVGID_52_);fill:#727376;}
	.st26{clip-path:url(#SVGID_54_);}
	.st27{clip-path:url(#SVGID_56_);fill:#FAFAFA;}
	.st28{clip-path:url(#SVGID_58_);}
	.st29{clip-path:url(#SVGID_60_);fill:#727376;}
	.st30{clip-path:url(#SVGID_62_);}
	.st31{clip-path:url(#SVGID_64_);fill:#FAFAFA;}
</style>
<g>
	<defs>
		<path id="SVGID_1_" d="M521-823c0-3.3,2.7-6,6-6h18c3.3,0,6,2.7,6,6v18c0,3.3-2.7,6-6,6h-18c-3.3,0-6-2.7-6-6V-823z"/>
	</defs>
	<clipPath id="SVGID_2_">
		<use xlink:href="#SVGID_1_"  style="overflow:visible;"/>
	</clipPath>
	<g class="st0">
		<defs>
			<rect id="SVGID_3_" x="-64" y="-1043" width="640" height="2598"/>
		</defs>
		<clipPath id="SVGID_4_">
			<use xlink:href="#SVGID_3_"  style="overflow:visible;"/>
		</clipPath>
		<rect x="516" y="-834" class="st1" width="40" height="40"/>
	</g>
</g>
<g>
	<defs>
		<path id="SVGID_5_" d="M544.8-819c-0.3-0.3-0.8-0.3-1.1,0l-7.7,8.5l-7.7-8.5c-0.3-0.3-0.8-0.3-1.1,0c-0.3,0.3-0.3,0.8,0,1.1l8.2,9
			c0.2,0.2,0.4,0.2,0.6,0.2c0.2,0,0.4-0.1,0.6-0.2l8.2-9C545.1-818.3,545.1-818.7,544.8-819"/>
	</defs>
	<clipPath id="SVGID_6_">
		<use xlink:href="#SVGID_5_"  style="overflow:visible;"/>
	</clipPath>
	<g class="st2">
		<defs>
			<rect id="SVGID_7_" x="-64" y="-1043" width="640" height="2598"/>
		</defs>
		<clipPath id="SVGID_8_">
			<use xlink:href="#SVGID_7_"  style="overflow:visible;"/>
		</clipPath>
		<rect x="522" y="-824.2" class="st3" width="28" height="20.5"/>
	</g>
</g>
<g>
	<defs>
		<path id="SVGID_9_" d="M521-823c0-3.3,2.7-6,6-6h18c3.3,0,6,2.7,6,6v18c0,3.3-2.7,6-6,6h-18c-3.3,0-6-2.7-6-6V-823z"/>
	</defs>
	<clipPath id="SVGID_10_">
		<use xlink:href="#SVGID_9_"  style="overflow:visible;"/>
	</clipPath>
	<g class="st4">
		<defs>
			<rect id="SVGID_11_" x="-64" y="-1043" width="640" height="2598"/>
		</defs>
		<clipPath id="SVGID_12_">
			<use xlink:href="#SVGID_11_"  style="overflow:visible;"/>
		</clipPath>
		<rect x="516" y="-834" class="st5" width="40" height="40"/>
	</g>
</g>
<g>
	<defs>
		<path id="SVGID_13_" d="M544.8-819c-0.3-0.3-0.8-0.3-1.1,0l-7.7,8.5l-7.7-8.5c-0.3-0.3-0.8-0.3-1.1,0c-0.3,0.3-0.3,0.8,0,1.1
			l8.2,9c0.2,0.2,0.4,0.2,0.6,0.2c0.2,0,0.4-0.1,0.6-0.2l8.2-9C545.1-818.3,545.1-818.7,544.8-819"/>
	</defs>
	<clipPath id="SVGID_14_">
		<use xlink:href="#SVGID_13_"  style="overflow:visible;"/>
	</clipPath>
	<g class="st6">
		<defs>
			<rect id="SVGID_15_" x="-64" y="-1043" width="640" height="2598"/>
		</defs>
		<clipPath id="SVGID_16_">
			<use xlink:href="#SVGID_15_"  style="overflow:visible;"/>
		</clipPath>
		<rect x="522" y="-824.2" class="st7" width="28" height="20.5"/>
	</g>
</g>
<g>
	<defs>
		<path id="SVGID_17_" d="M521-823c0-3.3,2.7-6,6-6h18c3.3,0,6,2.7,6,6v18c0,3.3-2.7,6-6,6h-18c-3.3,0-6-2.7-6-6V-823z"/>
	</defs>
	<clipPath id="SVGID_18_">
		<use xlink:href="#SVGID_17_"  style="overflow:visible;"/>
	</clipPath>
	<g class="st8">
		<defs>
			<rect id="SVGID_19_" x="-64" y="-1043" width="640" height="2598"/>
		</defs>
		<clipPath id="SVGID_20_">
			<use xlink:href="#SVGID_19_"  style="overflow:visible;"/>
		</clipPath>
		<rect x="516" y="-834" class="st9" width="40" height="40"/>
	</g>
</g>
<g>
	<defs>
		<path id="SVGID_21_" d="M544.8-819c-0.3-0.3-0.8-0.3-1.1,0l-7.7,8.5l-7.7-8.5c-0.3-0.3-0.8-0.3-1.1,0c-0.3,0.3-0.3,0.8,0,1.1
			l8.2,9c0.2,0.2,0.4,0.2,0.6,0.2c0.2,0,0.4-0.1,0.6-0.2l8.2-9C545.1-818.3,545.1-818.7,544.8-819"/>
	</defs>
	<clipPath id="SVGID_22_">
		<use xlink:href="#SVGID_21_"  style="overflow:visible;"/>
	</clipPath>
	<g class="st10">
		<defs>
			<rect id="SVGID_23_" x="-64" y="-1043" width="640" height="2598"/>
		</defs>
		<clipPath id="SVGID_24_">
			<use xlink:href="#SVGID_23_"  style="overflow:visible;"/>
		</clipPath>
		<rect x="522" y="-824.2" class="st11" width="28" height="20.5"/>
	</g>
</g>
<g>
	<defs>
		<path id="SVGID_25_" d="M521-823c0-3.3,2.7-6,6-6h18c3.3,0,6,2.7,6,6v18c0,3.3-2.7,6-6,6h-18c-3.3,0-6-2.7-6-6V-823z"/>
	</defs>
	<clipPath id="SVGID_26_">
		<use xlink:href="#SVGID_25_"  style="overflow:visible;"/>
	</clipPath>
	<g class="st12">
		<defs>
			<rect id="SVGID_27_" x="-64" y="-1043" width="640" height="2598"/>
		</defs>
		<clipPath id="SVGID_28_">
			<use xlink:href="#SVGID_27_"  style="overflow:visible;"/>
		</clipPath>
		<rect x="516" y="-834" class="st13" width="40" height="40"/>
	</g>
</g>
<g>
	<defs>
		<path id="SVGID_29_" d="M544.8-819c-0.3-0.3-0.8-0.3-1.1,0l-7.7,8.5l-7.7-8.5c-0.3-0.3-0.8-0.3-1.1,0c-0.3,0.3-0.3,0.8,0,1.1
			l8.2,9c0.2,0.2,0.4,0.2,0.6,0.2c0.2,0,0.4-0.1,0.6-0.2l8.2-9C545.1-818.3,545.1-818.7,544.8-819"/>
	</defs>
	<clipPath id="SVGID_30_">
		<use xlink:href="#SVGID_29_"  style="overflow:visible;"/>
	</clipPath>
	<g class="st14">
		<defs>
			<rect id="SVGID_31_" x="-64" y="-1043" width="640" height="2598"/>
		</defs>
		<clipPath id="SVGID_32_">
			<use xlink:href="#SVGID_31_"  style="overflow:visible;"/>
		</clipPath>
		<rect x="522" y="-824.2" class="st15" width="28" height="20.5"/>
	</g>
</g>
<g>
	<defs>
		<path id="SVGID_33_" d="M521-823c0-3.3,2.7-6,6-6h18c3.3,0,6,2.7,6,6v18c0,3.3-2.7,6-6,6h-18c-3.3,0-6-2.7-6-6V-823z"/>
	</defs>
	<clipPath id="SVGID_34_">
		<use xlink:href="#SVGID_33_"  style="overflow:visible;"/>
	</clipPath>
	<g class="st16">
		<defs>
			<rect id="SVGID_35_" x="-64" y="-1043" width="640" height="2598"/>
		</defs>
		<clipPath id="SVGID_36_">
			<use xlink:href="#SVGID_35_"  style="overflow:visible;"/>
		</clipPath>
		<rect x="516" y="-834" class="st17" width="40" height="40"/>
	</g>
</g>
<g>
	<defs>
		<path id="SVGID_37_" d="M544.8-819c-0.3-0.3-0.8-0.3-1.1,0l-7.7,8.5l-7.7-8.5c-0.3-0.3-0.8-0.3-1.1,0c-0.3,0.3-0.3,0.8,0,1.1
			l8.2,9c0.2,0.2,0.4,0.2,0.6,0.2c0.2,0,0.4-0.1,0.6-0.2l8.2-9C545.1-818.3,545.1-818.7,544.8-819"/>
	</defs>
	<clipPath id="SVGID_38_">
		<use xlink:href="#SVGID_37_"  style="overflow:visible;"/>
	</clipPath>
	<g class="st18">
		<defs>
			<rect id="SVGID_39_" x="-64" y="-1043" width="640" height="2598"/>
		</defs>
		<clipPath id="SVGID_40_">
			<use xlink:href="#SVGID_39_"  style="overflow:visible;"/>
		</clipPath>
		<rect x="522" y="-824.2" class="st19" width="28" height="20.5"/>
	</g>
</g>
<g>
	<defs>
		<path id="SVGID_41_" d="M521-823c0-3.3,2.7-6,6-6h18c3.3,0,6,2.7,6,6v18c0,3.3-2.7,6-6,6h-18c-3.3,0-6-2.7-6-6V-823z"/>
	</defs>
	<clipPath id="SVGID_42_">
		<use xlink:href="#SVGID_41_"  style="overflow:visible;"/>
	</clipPath>
	<g class="st20">
		<defs>
			<rect id="SVGID_43_" x="-64" y="-1043" width="640" height="2598"/>
		</defs>
		<clipPath id="SVGID_44_">
			<use xlink:href="#SVGID_43_"  style="overflow:visible;"/>
		</clipPath>
		<rect x="516" y="-834" class="st21" width="40" height="40"/>
	</g>
</g>
<g>
	<defs>
		<path id="SVGID_45_" d="M544.8-819c-0.3-0.3-0.8-0.3-1.1,0l-7.7,8.5l-7.7-8.5c-0.3-0.3-0.8-0.3-1.1,0c-0.3,0.3-0.3,0.8,0,1.1
			l8.2,9c0.2,0.2,0.4,0.2,0.6,0.2c0.2,0,0.4-0.1,0.6-0.2l8.2-9C545.1-818.3,545.1-818.7,544.8-819"/>
	</defs>
	<clipPath id="SVGID_46_">
		<use xlink:href="#SVGID_45_"  style="overflow:visible;"/>
	</clipPath>
	<g class="st22">
		<defs>
			<rect id="SVGID_47_" x="-64" y="-1043" width="640" height="2598"/>
		</defs>
		<clipPath id="SVGID_48_">
			<use xlink:href="#SVGID_47_"  style="overflow:visible;"/>
		</clipPath>
		<rect x="522" y="-824.2" class="st23" width="28" height="20.5"/>
	</g>
</g>
<g>
	<defs>
		<path id="SVGID_49_" d="M521-823c0-3.3,2.7-6,6-6h18c3.3,0,6,2.7,6,6v18c0,3.3-2.7,6-6,6h-18c-3.3,0-6-2.7-6-6V-823z"/>
	</defs>
	<clipPath id="SVGID_50_">
		<use xlink:href="#SVGID_49_"  style="overflow:visible;"/>
	</clipPath>
	<g class="st24">
		<defs>
			<rect id="SVGID_51_" x="-64" y="-1043" width="640" height="2598"/>
		</defs>
		<clipPath id="SVGID_52_">
			<use xlink:href="#SVGID_51_"  style="overflow:visible;"/>
		</clipPath>
		<rect x="516" y="-834" class="st25" width="40" height="40"/>
	</g>
</g>
<g>
	<defs>
		<path id="SVGID_53_" d="M544.8-819c-0.3-0.3-0.8-0.3-1.1,0l-7.7,8.5l-7.7-8.5c-0.3-0.3-0.8-0.3-1.1,0c-0.3,0.3-0.3,0.8,0,1.1
			l8.2,9c0.2,0.2,0.4,0.2,0.6,0.2c0.2,0,0.4-0.1,0.6-0.2l8.2-9C545.1-818.3,545.1-818.7,544.8-819"/>
	</defs>
	<clipPath id="SVGID_54_">
		<use xlink:href="#SVGID_53_"  style="overflow:visible;"/>
	</clipPath>
	<g class="st26">
		<defs>
			<rect id="SVGID_55_" x="-64" y="-1043" width="640" height="2598"/>
		</defs>
		<clipPath id="SVGID_56_">
			<use xlink:href="#SVGID_55_"  style="overflow:visible;"/>
		</clipPath>
		<rect x="522" y="-824.2" class="st27" width="28" height="20.5"/>
	</g>
</g>
<g>
	<defs>
		<path id="SVGID_57_" d="M521-823c0-3.3,2.7-6,6-6h18c3.3,0,6,2.7,6,6v18c0,3.3-2.7,6-6,6h-18c-3.3,0-6-2.7-6-6V-823z"/>
	</defs>
	<clipPath id="SVGID_58_">
		<use xlink:href="#SVGID_57_"  style="overflow:visible;"/>
	</clipPath>
	<g class="st28">
		<defs>
			<rect id="SVGID_59_" x="-64" y="-1043" width="640" height="2598"/>
		</defs>
		<clipPath id="SVGID_60_">
			<use xlink:href="#SVGID_59_"  style="overflow:visible;"/>
		</clipPath>
		<rect x="516" y="-834" class="st29" width="40" height="40"/>
	</g>
</g>
<g>
	<defs>
		<path id="SVGID_61_" d="M544.8-819c-0.3-0.3-0.8-0.3-1.1,0l-7.7,8.5l-7.7-8.5c-0.3-0.3-0.8-0.3-1.1,0c-0.3,0.3-0.3,0.8,0,1.1
			l8.2,9c0.2,0.2,0.4,0.2,0.6,0.2c0.2,0,0.4-0.1,0.6-0.2l8.2-9C545.1-818.3,545.1-818.7,544.8-819"/>
	</defs>
	<clipPath id="SVGID_62_">
		<use xlink:href="#SVGID_61_"  style="overflow:visible;"/>
	</clipPath>
	<g class="st30">
		<defs>
			<rect id="SVGID_63_" x="-64" y="-1043" width="640" height="2598"/>
		</defs>
		<clipPath id="SVGID_64_">
			<use xlink:href="#SVGID_63_"  style="overflow:visible;"/>
		</clipPath>
		<rect x="522" y="-824.2" class="st31" width="28" height="20.5"/>
	</g>
</g>
<path id="XMLID_7_" d="M438,122.1c0-26.6-21.5-48.1-48.1-48.1H123.1C96.5,74,75,95.5,75,122.1v266.8c0,26.6,21.5,48.1,48.1,48.1
	h266.8c26.6,0,48.1-21.5,48.1-48.1V122.1z M368.3,203.5L262.7,320.8c-1.9,2.1-4.6,3.2-7.4,3.2c0,0,0,0,0,0c-2.9,0-5.6-1.2-7.4-3.3
	L144.1,203.4c-3.7-4.1-3.3-10.4,0.9-14.1c4.1-3.7,10.5-3.3,14.1,0.9l96.2,108.9l98-109c3.7-4.1,10-4.4,14.1-0.7
	C371.6,193.1,372,199.4,368.3,203.5z"/>
</svg>
