<?xml version="1.0" encoding="utf-8"?>
<!-- Generator: Adobe Illustrator 19.0.0, SVG Export Plug-In . SVG Version: 6.00 Build 0)  -->
<svg version="1.1" id="Layer_1" xmlns="http://www.w3.org/2000/svg" xmlns:xlink="http://www.w3.org/1999/xlink" x="0px" y="0px"
	 viewBox="0 0 512 512" style="enable-background:new 0 0 512 512;" xml:space="preserve">
<style type="text/css">
	.st0{fill:#040000;}
	.st1{fill:#060001;}
</style>
<g>
	<g>
		<g>
			<path class="st0" d="M188.8,495.4c-15.4,0-22.9-10.9-27.3-17.5c-3.2-4.6-6.9-14-11.7-50.5c-2.5-19.1-3.4-32.3-4.1-41l0-0.5
				l-2.5-82.2c-4.3,0.6-5.4,0.6-21.7,0.3c-3.4-0.1-7.5-0.1-12.5-0.2l-0.9,0l-0.9-0.2c-28.1-4.6-46-13.8-53.3-27.3
				c-4.4-8.2-4.5-17.2-0.4-26.2l0.6-1.3l0.8-1.1c5.9-7.9,15.2-10.2,25-12.6c6.2-1.5,13.2-3.3,20.2-6.5c7.1-3.3,12.9-6,17.8-8.3
				c11-5.1,17-7.9,20.2-10c2.2-1.5,3.2-2.7,7.2-7.5c2.4-3,5.7-7,10.6-12.5c4.6-6.9,8-14.5,10-22.4h-15.4V21H424l-0.2,146.8h-22.4
				c0.6,10.4,2,22.3,3.4,34c1.4,11.6,2.8,23.6,3.4,34c3.6,59.6-1.8,89.4-7.7,114.7c-5.8,24.9-15.3,47.9-45.7,47.9
				c-4.6,0-9.1-0.7-13.4-1.9c-8.9,11.3-22.5,18.1-37.4,18.1c-5.5,0-10.8-0.9-15.8-2.7c-8.9,11-22.5,17.8-37.1,17.8H251
				c-7.7-0.1-13.9-1.7-18.9-4.4c-6.5,29.1-11,46.3-19.2,56.3C208.8,486.5,201.5,495.4,188.8,495.4z M77.6,265.5
				c2.5,3.7,12.2,8.8,32.8,12.3c4.6,0.1,8.4,0.2,11.6,0.2c15.3,0.3,15.3,0.3,17.9-0.1c2.2-0.3,6-0.9,15.3-1.6l14.1-1.1l2.4,109.8
				c2.3,29.2,7.3,70.1,11.4,78.4c0,0,0,0,0,0.1c0.3,0.5-0.3-0.5,0-0.1c2.1,3,8.4,3.1,10.7,0.3l-1,1.4c5.7-7,12.4-38.7,15.6-53.3
				c2-9.3,3.2-14.4,4.1-17.3l9.8-30.1l14.2,28.3c4.6,9.2,8.2,10.8,14.6,10.8c8.8,0,16.8-5.5,20-13.7l6.2-15.8l13.7,10.1
				c5,3.7,11.2,5.1,17.3,3.9c7.2-1.5,13.1-6.7,15.8-13.5l5.7-14.2l13.2,8.6c3.4,2.2,7.5,3.4,11.6,3.4c7.5,0,13.9,0,20.3-27.7
				c5.5-23.5,10.5-51.1,7.1-107.3c-0.6-9.7-1.9-20.8-3.3-32.5c-2.1-17.8-4.2-36.2-3.9-50.4l0.3-12.6h22.4l0.2-94.8H176.5v94.9h17.8
				l-0.5,13.5c-0.6,17.5-6.7,35.3-17,50.3l-0.5,0.7l-0.5,0.6c-4.8,5.4-7.9,9.2-10.4,12.3c-10,12.4-12,13.3-36.7,24.7
				c-4.8,2.2-10.8,3.9-18.3,5.9c-10,2.7-15.6,3.4-25,5.8c0,0-4.7,0.8-7.2,2.4C76,259.5,76.1,263.3,77.6,265.5z"/>
		</g>
	</g>
	<g>
		<g>
			<path class="st1" d="M149.8,20.5v146.1H423V20.5H149.8z M373.9,98c-7.8,0-14.1-6.4-14.1-14.2c0-7.8,6.3-14.2,14.1-14.2
				c7.8,0,14.1,6.4,14.1,14.2C388,91.7,381.7,98,373.9,98z"/>
		</g>
	</g>
</g>
</svg>
