<?xml version="1.0" encoding="utf-8"?>
<!-- Generator: Adobe Illustrator 19.0.0, SVG Export Plug-In . SVG Version: 6.00 Build 0)  -->
<svg version="1.1" id="图层_1" xmlns="http://www.w3.org/2000/svg" xmlns:xlink="http://www.w3.org/1999/xlink" x="0px" y="0px"
	 viewBox="0 0 512 512" style="enable-background:new 0 0 512 512;" xml:space="preserve">
<style type="text/css">
	.st0{fill:#040000;}
</style>
<g>
	<g>
		<g>
			<path class="st0" d="M257,48C142.1,48,49,141.1,49,256s93.1,208,208,208s208-93.1,208-208S371.9,48,257,48z M257,446.7
				c-105.1,0-190.7-85.5-190.7-190.7S151.9,65.3,257,65.3S447.7,150.9,447.7,256S362.1,446.7,257,446.7z"/>
		</g>
	</g>
</g>
<g>
	<path class="st0" d="M342.6,256.1L342.6,256.1c0-50.1-18.7-97.6-52.7-134.1l-6-6.4l-6.1,6.2L257.7,142l-5.7,5.9l5.5,6
		c25.6,27.9,39.8,64.1,39.8,102.1s-14.2,74.2-39.8,102.1l-5.5,6l5.8,5.8l20.1,20.2l6.1,6.2l6-6.4C323.9,353.6,342.6,306,342.6,256.1
		z"/>
	<path class="st0" d="M242,344.7c22-24.3,34.1-55.7,34.1-88.5v-0.1V256v-5.3l-0.1-0.1c-1.3-30.8-13.2-60.2-34-83.1l-6-6.6l-6.3,6.3
		l-20.3,20.5l-5.6,5.7l5.3,6c13.9,15.9,21.6,36,21.6,56.6c0,20.7-7.7,40.9-21.6,56.7l-5.3,6l5.6,5.7l20.3,20.5l6.3,6.3L242,344.7z"
		/>
	<path class="st0" d="M142,256.2l6,6l32.7,33.1l6.6,6.6l6-7.3c7.1-9.7,12.5-20.3,12.5-38.6c0-18.2-5.9-28.1-12.5-38.6l-6-7.2
		l-6.6,6.6L148,250.1L142,256.2z"/>
</g>
</svg>
