<?xml version="1.0" encoding="utf-8"?>
<!-- Generator: Adobe Illustrator 19.1.0, SVG Export Plug-In . SVG Version: 6.00 Build 0)  -->
<svg version="1.1" id="图层_9" xmlns="http://www.w3.org/2000/svg" xmlns:xlink="http://www.w3.org/1999/xlink" x="0px" y="0px"
	 viewBox="0 0 512 512" enable-background="new 0 0 512 512" xml:space="preserve">
<g>
	<g>
		<line fill="#484C54" x1="206.478" y1="256" x2="459.755" y2="256"/>
		<path fill="#040000" d="M459.755,267.667H206.478c-6.443,0-11.667-5.223-11.667-11.667s5.223-11.667,11.667-11.667h253.277
			c6.443,0,11.667,5.223,11.667,11.667S466.199,267.667,459.755,267.667z"/>
	</g>
	<g>
		<path fill="#040000" d="M386.147,345.08c-2.986,0-5.972-1.139-8.25-3.417c-4.556-4.556-4.556-11.943,0-16.499L447.062,256
			l-69.164-69.164c-4.556-4.556-4.556-11.943,0-16.499c4.556-4.557,11.943-4.557,16.499,0L480.06,256l-85.663,85.663
			C392.119,343.941,389.133,345.08,386.147,345.08z"/>
	</g>
	<g>
		<path fill="#040000" d="M292.52,477.667H71.892c-19.365,0-35.119-15.754-35.119-35.119V69.452
			c0-19.365,15.754-35.119,35.119-35.119H292.52c19.364,0,35.118,15.754,35.118,35.119v107.546c0,6.443-5.223,11.667-11.667,11.667
			s-11.667-5.223-11.667-11.667V69.452c0-6.499-5.287-11.786-11.785-11.786H71.892c-6.499,0-11.786,5.287-11.786,11.786v373.096
			c0,6.499,5.287,11.786,11.786,11.786H292.52c6.499,0,11.785-5.287,11.785-11.786V335.002c0-6.443,5.223-11.667,11.667-11.667
			s11.667,5.223,11.667,11.667v107.546C327.638,461.913,311.884,477.667,292.52,477.667z"/>
	</g>
</g>
</svg>
