<?xml version="1.0" encoding="utf-8"?>
<!-- Generator: Adobe Illustrator 19.1.0, SVG Export Plug-In . SVG Version: 6.00 Build 0)  -->
<svg version="1.1" id="图层_9" xmlns="http://www.w3.org/2000/svg" xmlns:xlink="http://www.w3.org/1999/xlink" x="0px" y="0px"
	 viewBox="0 0 512 512" enable-background="new 0 0 512 512" xml:space="preserve">
<g>
	
		<rect id="XMLID_95_" x="329.632" y="93.411" transform="matrix(0.7071 0.7071 -0.7071 0.7071 189.0666 -218.0878)" fill="none" stroke="#000000" stroke-width="22" stroke-linecap="round" stroke-linejoin="round" stroke-miterlimit="10" width="56.312" height="51.536"/>
	
		<path id="XMLID_97_" fill="none" stroke="#000000" stroke-width="22" stroke-linecap="round" stroke-linejoin="round" stroke-miterlimit="10" d="
		M395.919,120.868L356.1,81.049l34.065-34.065c1.313-1.313,3.441-1.313,4.753,0l35.065,35.065c1.313,1.313,1.313,3.441,0,4.753
		L395.919,120.868z"/>
	
		<path id="XMLID_96_" fill="none" stroke="#000000" stroke-width="22" stroke-linecap="round" stroke-linejoin="round" stroke-miterlimit="10" d="
		M71.394,405.574c0,0-30.834,69.619,77.978,59.403s155.54-167.41,295.268-10.217"/>
	
		<rect id="XMLID_92_" x="206.359" y="93.886" transform="matrix(0.7071 0.7071 -0.7071 0.7071 240.1279 -94.8147)" fill="none" stroke="#000000" stroke-width="22" stroke-linecap="round" stroke-linejoin="round" stroke-miterlimit="10" width="56.312" height="297.132"/>
	
		<polygon id="XMLID_98_" fill="none" stroke="#000000" stroke-width="22" stroke-linecap="round" stroke-linejoin="round" stroke-miterlimit="10" points="
		109.554,327.596 71.394,405.574 149.372,367.414 	"/>
</g>
</svg>
