<?xml version="1.0" encoding="utf-8"?>
<!-- Generator: Adobe Illustrator 19.1.0, SVG Export Plug-In . SVG Version: 6.00 Build 0)  -->
<svg version="1.1" id="图层_9" xmlns="http://www.w3.org/2000/svg" xmlns:xlink="http://www.w3.org/1999/xlink" x="0px" y="0px"
	 viewBox="0 0 512 512" enable-background="new 0 0 512 512" xml:space="preserve">
<g>
	
		<path id="XMLID_133_" fill="none" stroke="#000000" stroke-width="25" stroke-linecap="round" stroke-linejoin="round" stroke-miterlimit="10" d="
		M427.901,225.717v180.295c0,41.08-33.302,74.381-74.381,74.381H101.147c-41.08,0-74.381-33.302-74.381-74.381V153.64
		c0-41.08,33.302-74.381,74.381-74.381h194.829"/>
	
		<path id="XMLID_130_" fill="none" stroke="#000000" stroke-width="25" stroke-linecap="round" stroke-linejoin="round" stroke-miterlimit="10" d="
		M448.435,121.46L395.38,68.406l36.067-36.067c0.977-0.977,2.561-0.977,3.538,0l49.516,49.516c0.977,0.977,0.977,2.561,0,3.538
		L448.435,121.46z"/>
	
		<polyline id="XMLID_127_" fill="none" stroke="#000000" stroke-width="25" stroke-linecap="round" stroke-linejoin="round" stroke-miterlimit="10" points="
		422.169,147.726 192.458,377.437 139.403,324.383 366.2,97.586 	"/>
	
		<polygon id="XMLID_128_" fill="none" stroke="#000000" stroke-width="25" stroke-linecap="round" stroke-linejoin="round" stroke-miterlimit="10" points="
		139.403,324.383 105.64,411.2 192.458,377.437 	"/>
</g>
</svg>
