<?xml version="1.0" encoding="utf-8"?>
<!-- Generator: Adobe Illustrator 19.1.0, SVG Export Plug-In . SVG Version: 6.00 Build 0)  -->
<svg version="1.1" id="图层_9" xmlns="http://www.w3.org/2000/svg" xmlns:xlink="http://www.w3.org/1999/xlink" x="0px" y="0px"
	 viewBox="0 0 512 512" enable-background="new 0 0 512 512" xml:space="preserve">
<path fill="#040000" stroke="#000000" stroke-width="3.5875" stroke-miterlimit="10" d="M243.143,294.605
	c68.58,0,124.177-55.647,124.177-124.302S311.723,46,243.143,46c-68.579,0-124.177,55.648-124.177,124.303
	S174.564,294.605,243.143,294.605z M243.143,63.143c59.172,0,107.143,47.98,107.143,107.143c0,59.18-47.972,107.143-107.143,107.143
	C183.972,277.429,136,229.466,136,170.286C136,111.123,183.972,63.143,243.143,63.143z M363.143,286c-49.705,0-90,40.296-90,90
	s40.296,90,90,90c49.704,0,90-40.296,90-90S412.847,286,363.143,286z M363.143,448.857c-40.238,0-72.857-32.612-72.857-72.857
	c0-40.228,32.62-72.857,72.857-72.857C403.38,303.144,436,335.772,436,376C436,416.246,403.38,448.857,363.143,448.857z
	 M287.432,303.386H173.14c-63.114,0-114.283,50.098-114.283,111.906v33.566H76v-34.285c0,0-2.327-88.845,94.286-94.286h102.857
	C273.143,320.286,278.258,310.358,287.432,303.386z M396.6,328.874c-3.081,0-5.382,1.423-6.914,4.244l-26.493,41.777L336.7,333.117
	c-1.54-2.821-3.842-4.244-6.914-4.244c-3.072,0.418-4.805,2.227-5.182,5.457c0.377,1.615,0.954,3.231,1.724,4.838
	c0.385,0.41,0.578,0.821,0.578,1.222l23.613,38.136h-13.82c-4.227,0-6.336,1.825-6.336,5.457c0.376,2.83,2.494,4.445,6.336,4.838
	h20.156v10.898h-20.156c-4.227,0-6.336,1.825-6.336,5.458c0.376,2.829,2.494,4.445,6.336,4.838h20.156v24.224
	c0,4.035,2.11,6.06,6.336,6.06c4.219,0,6.336-2.026,6.336-6.06v-24.224h20.156c3.833-0.393,5.952-2.009,6.336-4.838
	c0-3.633-2.118-5.458-6.336-5.458h-20.156v-10.897h20.156c3.833-0.393,5.952-2.009,6.336-4.838c0-3.633-2.118-5.457-6.336-5.457
	h-13.82l23.613-38.136c0-0.402,0.184-0.812,0.578-1.222c1.147-2.411,1.724-4.034,1.724-4.838
	C401.396,331.101,399.664,329.292,396.6,328.874z"/>
</svg>
