<?xml version="1.0" encoding="utf-8"?>
<!-- Generator: Adobe Illustrator 19.1.0, SVG Export Plug-In . SVG Version: 6.00 Build 0)  -->
<svg version="1.1" id="图层_9" xmlns="http://www.w3.org/2000/svg" xmlns:xlink="http://www.w3.org/1999/xlink" x="0px" y="0px"
	 viewBox="0 0 512 512" enable-background="new 0 0 512 512" xml:space="preserve">
<g>
	<g id="XMLID_109_">
		<g id="XMLID_125_">
			<path d="M253.282,477c-2.46,0-4.898-0.824-6.891-2.424l-106.717-85.711c-4.736-3.804-5.492-10.728-1.688-15.464
				c3.805-4.737,10.729-5.493,15.465-1.688l88.828,71.344v-308.26c0-6.075,4.925-11,11-11s11,4.925,11,11V466
				c0,4.232-2.428,8.089-6.244,9.919C256.522,476.645,254.897,477,253.282,477z"/>
		</g>
		<g id="XMLID_124_">
			<path d="M253.288,477c-3.266,0-6.498-1.447-8.668-4.218c-3.746-4.782-2.905-11.696,1.878-15.442l109.438-85.711
				c4.782-3.745,11.696-2.905,15.442,1.878c3.746,4.782,2.905,11.696-1.878,15.442L260.062,474.66
				C258.051,476.236,255.66,477,253.288,477z"/>
		</g>
	</g>
	<g id="XMLID_110_">
		<path d="M451.695,57H60.305c-6.075,0-11-4.925-11-11s4.925-11,11-11h391.391c6.075,0,11,4.925,11,11S457.771,57,451.695,57z"/>
	</g>
</g>
</svg>
