<?xml version="1.0" encoding="utf-8"?>
<!-- Generator: Adobe Illustrator 19.1.0, SVG Export Plug-In . SVG Version: 6.00 Build 0)  -->
<svg version="1.1" id="图层_9" xmlns="http://www.w3.org/2000/svg" xmlns:xlink="http://www.w3.org/1999/xlink" x="0px" y="0px"
	 viewBox="0 0 512 512" enable-background="new 0 0 512 512" xml:space="preserve">
<g>
	<path id="XMLID_146_" fill="none" stroke="#000000" stroke-width="22" stroke-miterlimit="10" d="M435.177,213.258
		c-28.842-0.876-57.722-0.012-86.58-0.265c-32.146-0.282-35.693-5.017-24.201-38.375c12.616-36.623,12.864-72.358-0.735-108.368
		c-4.668-12.359-12.986-19.317-25.085-18.994c-12.337,0.331-20.217,8.635-23.653,21.059c-2.347,8.47-1.429,17.9-3.546,26.587
		c-15.809,64.858-37.087,91.126-83.599,122.392c-11.966,8.044-21.771,12.194-21.665,29.493c0.396,64.24,0.486,128.474,0.09,192.708
		c-0.112,18.123,7.013,25.423,22.749,25.259c31.564-0.337,63.134-0.1,94.698-0.1c0-0.041,0-0.089,0-0.124
		c32.468,0,64.931,0.047,97.399-0.023c17.901-0.036,31.386-6.894,36.718-28.011c15.375-60.834,31.776-121.357,46.401-182.408
		C470.521,227.576,460.231,214.017,435.177,213.258z"/>
	<path id="XMLID_147_" fill="none" stroke="#000000" stroke-width="22" stroke-miterlimit="10" d="M121.663,347.59
		c0-30.011,0.187-60.022-0.082-90.028c-0.136-14.74,2.646-32.092-20.135-32.839c-21.07-0.683-47.528-3.783-50.534,24.294
		c-6.806,63.616-6.159,127.926-0.389,191.554c2.542,28.06,30.57,23.036,51.135,23.477c21.187,0.447,20.193-15.652,20.446-29.482
		c0.53-28.981,0.165-57.987,0.165-86.975C122.062,347.59,121.862,347.59,121.663,347.59z"/>
</g>
</svg>
