<?xml version="1.0" encoding="utf-8"?>
<!-- Generator: Adobe Illustrator 19.1.0, SVG Export Plug-In . SVG Version: 6.00 Build 0)  -->
<svg version="1.1" id="图层_9" xmlns="http://www.w3.org/2000/svg" xmlns:xlink="http://www.w3.org/1999/xlink" x="0px" y="0px"
	 viewBox="0 0 512 512" enable-background="new 0 0 512 512" xml:space="preserve">
<g>
	<g>
		<path d="M256,477c-59.031,0-114.529-22.988-156.271-64.729C57.988,370.529,35,315.031,35,256S57.988,141.471,99.729,99.729
			C141.471,57.988,196.969,35,256,35s114.529,22.988,156.271,64.729C454.012,141.471,477,196.969,477,256
			s-22.988,114.529-64.729,156.271C370.529,454.012,315.031,477,256,477z M256,57C146.271,57,57,146.271,57,256s89.271,199,199,199
			s199-89.271,199-199S365.729,57,256,57z"/>
	</g>
	<g>
		<g>
			<g>
				<path fill="#040000" d="M171,352c-2.815,0-5.63-1.074-7.778-3.222c-4.295-4.296-4.295-11.261,0-15.557l170-170
					c4.296-4.295,11.261-4.295,15.557,0c4.295,4.296,4.295,11.261,0,15.557l-170,170C176.63,350.926,173.815,352,171,352z"/>
			</g>
		</g>
		<g>
			<g>
				<path fill="#040000" d="M341,352c-2.815,0-5.63-1.074-7.778-3.222l-170-170c-4.295-4.296-4.295-11.261,0-15.557
					c4.296-4.295,11.261-4.295,15.557,0l170,170c4.295,4.296,4.295,11.261,0,15.557C346.63,350.926,343.815,352,341,352z"/>
			</g>
		</g>
	</g>
</g>
</svg>
