<?xml version="1.0" encoding="utf-8"?>
<!-- Generator: Adobe Illustrator 19.1.0, SVG Export Plug-In . SVG Version: 6.00 Build 0)  -->
<svg version="1.1" id="图层_9" xmlns="http://www.w3.org/2000/svg" xmlns:xlink="http://www.w3.org/1999/xlink" x="0px" y="0px"
	 viewBox="0 0 512 512" enable-background="new 0 0 512 512" xml:space="preserve">
<g>
	<g id="XMLID_133_">
		<path d="M353.52,492.894H101.147c-47.907,0-86.881-38.975-86.881-86.881V153.64c0-47.907,38.975-86.881,86.881-86.881h194.829
			c6.904,0,12.5,5.597,12.5,12.5s-5.596,12.5-12.5,12.5H101.147c-34.122,0-61.881,27.76-61.881,61.881v252.373
			c0,34.122,27.76,61.881,61.881,61.881H353.52c34.122,0,61.881-27.76,61.881-61.881V225.717c0-6.903,5.597-12.5,12.5-12.5
			s12.5,5.597,12.5,12.5v180.295C440.401,453.919,401.426,492.894,353.52,492.894z"/>
	</g>
	<g id="XMLID_130_">
		<path d="M448.435,133.96c-3.199,0-6.398-1.22-8.839-3.661l-53.055-53.055c-4.881-4.881-4.881-12.796,0-17.678L422.608,23.5
			c5.851-5.849,15.368-5.849,21.216,0l49.516,49.516c5.848,5.848,5.849,15.364,0.002,21.214l-36.068,36.069
			C454.833,132.74,451.634,133.96,448.435,133.96z M413.058,68.406l35.377,35.377l20.158-20.158l-35.377-35.377L413.058,68.406z"/>
	</g>
	<g id="XMLID_127_">
		<path d="M192.458,389.938c-3.315,0-6.495-1.317-8.839-3.661l-53.055-53.055c-4.881-4.881-4.881-12.796,0-17.678L357.361,88.747
			c4.882-4.882,12.796-4.882,17.678,0c4.881,4.881,4.881,12.796,0,17.678L157.081,324.383l35.377,35.377l220.873-220.873
			c4.882-4.882,12.796-4.882,17.678,0c4.881,4.882,4.881,12.796,0,17.678L201.297,386.276
			C198.953,388.621,195.773,389.938,192.458,389.938z"/>
	</g>
	<g id="XMLID_128_">
		<path d="M105.643,423.701c-3.256,0-6.453-1.273-8.841-3.662c-3.505-3.505-4.608-8.75-2.811-13.37l33.763-86.817
			c1.531-3.936,4.945-6.833,9.078-7.702c4.134-0.866,8.425,0.407,11.411,3.394l53.055,53.055c2.986,2.986,4.263,7.278,3.394,11.411
			s-3.766,7.547-7.702,9.078l-86.817,33.763C108.7,423.422,107.165,423.701,105.643,423.701z M144.11,346.767l-16.523,42.486
			l42.486-16.523L144.11,346.767z"/>
	</g>
</g>
</svg>
