<?xml version="1.0" encoding="utf-8"?>
<!-- Generator: Adobe Illustrator 19.0.0, SVG Export Plug-In . SVG Version: 6.00 Build 0)  -->
<svg version="1.1" id="图层_9" xmlns="http://www.w3.org/2000/svg" xmlns:xlink="http://www.w3.org/1999/xlink" x="0px" y="0px"
	 viewBox="-243 245 512 512" style="enable-background:new -243 245 512 512;" xml:space="preserve">
<g>
	<path d="M214.6,360.1h-275c-4.2,0-7.6,3.4-7.6,7.6v163.4c0,3,1.7,5.7,4.5,6.9c20.6,8.9,35.1,29.4,35.1,53.3v0.1H84.4
		c3.9,0,7.1-3,7.5-6.8c3.4-28.8,27.9-51.2,57.6-51.2s54.2,22.3,57.6,51.1c0.5,3.9,3.7,6.8,7.6,6.8c4.1,0,7.5-3.4,7.5-7.6v-216
		C222.1,363.5,218.8,360.1,214.6,360.1z"/>
	<circle cx="149.5" cy="591.3" r="50.6"/>
	<circle cx="-86.4" cy="591.3" r="50.6"/>
</g>
<path d="M-88.6,418.4h-62.3c-3.1,0-6,1.4-7.8,3.8l-53.9,70.7c-1.3,1.7-2,3.8-2,6l0.1,82.6c0,5.4,4.4,9.8,9.8,9.8h51.4
	c4.7,0,8.7-3.4,9.3-8c3.9-28.3,28.2-50,57.5-50c2.2,0,4.5,0.1,6.6,0.4c3,0.3,5.6-1.9,5.6-4.9v-96.1
	C-74.2,424.9-80.7,418.4-88.6,418.4z M-104.2,476.7c0,2.1-1.7,3.9-3.9,3.9h-47.8c-3.1,0-4.9-3.5-3.2-6l20.9-30.7
	c0.7-1.1,1.9-1.7,3.2-1.7h26.9c2.1,0,3.9,1.7,3.9,3.9V476.7z"/>
</svg>
