<?xml version="1.0" encoding="utf-8"?>
<!-- Generator: Adobe Illustrator 19.1.0, SVG Export Plug-In . SVG Version: 6.00 Build 0)  -->
<svg version="1.1" id="图层_9" xmlns="http://www.w3.org/2000/svg" xmlns:xlink="http://www.w3.org/1999/xlink" x="0px" y="0px"
	 viewBox="0 0 512 512" enable-background="new 0 0 512 512" xml:space="preserve">
<g>
	<path id="XMLID_143_" fill="none" stroke="#000000" stroke-width="18" stroke-miterlimit="10" d="M304.614,330.981
		c-20.999-19.721-41.261-40.212-61.846-60.367c-21.145-20.724-42.387-41.349-63.337-62.273c-6.186-6.175-11.756-11.081-21.724-0.764
		c-21.674,22.443-90.978,96.498-112.342,119.23c-12.626,13.427-2.846,20.669,4.202,28.452c7.845,8.67,14.536,3.254,22.077-4.784
		c9.996-10.667,20.437-20.93,30.878-31.184c6.656-6.534,14.03-11.961,20.683-4.452c5.534,6.25,0.955,13.033-4.692,19.002
		c-10.047,10.632-19.827,21.622-30.632,31.401c-11.75,10.638-11.046,17.456-1.962,25.876c8.707,8.065,15.398,13.773,27.681-0.785
		c8.756-10.376,18.907-19.679,28.625-29.264c6.347-6.259,13.648-13.274,20.983-6.829c8.885,7.798,0.348,15.717-6.262,22.834
		c-7.964,8.563-15.847,17.325-24.538,25.086c-12.175,10.869-16.438,18.792-4.818,30.22c11.313,11.137,18.981,8.132,30.025-4.643
		c8.886-10.273,18.952-19.644,28.829-29.056c6.016-5.734,12.889-9.585,18.737-3.387c5.785,6.135,1.636,12.891-3.97,18.923
		c-9.295,9.999-18.765,19.843-28.419,29.498c-8.537,8.53-17.849,16.099-6.666,26.369c9.403,8.637,18.103,13.116,31.274-0.618
		c19.578-20.409,86.227-92.981,106.586-112.583C315.991,345.323,312.952,338.812,304.614,330.981z"/>
	<path id="XMLID_139_" fill="none" stroke="#000000" stroke-width="20" stroke-miterlimit="10" d="M191.068,183.046l137.566,134.766
		l17.413-17.841c3.061-3.403-2.472-20.143-8.133-36.573l-0.143,0.001c-7.409-21.914-14.972-43.554-7.418-63.071
		c7.977-20.11,26.348-29.187,50.612-40.849c21.041-10.094,47.415-22.91,71.416-47.413c19.108-19.651,23.56-39.566,18.32-54.333
		c-3.635-10.528-11.747-18.616-22.782-22.302c-14.711-4.65-34.545,0.058-53.928,19.724c-24,24.503-35.853,51.131-45.5,72.09
		c-11.455,24.79-19.865,43.341-40.078,51.592c-19.084,8.096-41.148,0.984-63.227-6.27c-16.828-5.304-33.512-10.636-36.732-7.363
		L191.068,183.046z"/>
</g>
</svg>
