<?xml version="1.0" encoding="utf-8"?>
<!-- Generator: Adobe Illustrator 19.0.0, SVG Export Plug-In . SVG Version: 6.00 Build 0)  -->
<svg version="1.1" id="Layer_1" xmlns="http://www.w3.org/2000/svg" xmlns:xlink="http://www.w3.org/1999/xlink" x="0px" y="0px"
	 viewBox="0 0 512 512" style="enable-background:new 0 0 512 512;" xml:space="preserve">
<g id="环节">
	<g id="环节_xFF0D_课表_xFF0D_视频_x26_文章_x26_作业" transform="translate(-575.000000, -59.000000)">
		<path id="Fill-189" d="M657.7,256.5c0-67.9,61-123,141.2-123c63.8,0,128.4,55.1,128.4,123c0,68-50.4,123-128.4,123
			c-11.5,0-35.4-1.3-46-3.6l-43.8,29.5v-45.9C677.8,334,657.7,299.7,657.7,256.5L657.7,256.5z M755.7,402.1
			c10,1.6,32.7,3.4,43.2,3.4c92.2,0,154-69.2,154-150.6s-77.3-147.3-154-147.3c-92.3,0-166.9,66-166.9,147.3
			c0,47.1,17.8,87.2,51.3,116v73.5L755.7,402.1L755.7,402.1z M977.9,226c0.2,3.7,0.7,7.4,0.7,11.2c0,8.2-0.8,16.3-1.9,24.3
			c17.3,20.4,27.6,45.6,27.6,72.9c0,43.2-25.6,81.1-64.2,103v45.9l-43.8-29.5c-10.7,2.2-21.7,3.6-33.2,3.6
			c-33.2,0-50.9-10.1-75-26.8c-7,0.6-14.1,0.9-21.2,0.9c-5.1,0-10.1-0.4-15.1-0.7c30.6,30.1,62,49.2,111.4,49.2
			c10.5,0,20.8-1,30.7-2.6l71.9,44.7v-73.5c39-27,64.2-68.8,64.2-116C1029.9,290.6,1009.9,252.8,977.9,226L977.9,226z M869.5,276
			c10.6,0,19.3-8.7,19.3-19.4c0-10.7-8.6-19.4-19.3-19.4c-10.6,0-19.3,8.7-19.3,19.4C850.3,267.3,858.9,276,869.5,276L869.5,276z
			 M715.5,276c10.6,0,19.3-8.7,19.3-19.4c0-10.7-8.6-19.4-19.3-19.4c-10.6,0-19.3,8.7-19.3,19.4C696.2,267.3,704.8,276,715.5,276
			L715.5,276z M792.5,276c10.6,0,19.3-8.7,19.3-19.4c0-10.7-8.6-19.4-19.3-19.4c-10.6,0-19.3,8.7-19.3,19.4
			C773.2,267.3,781.9,276,792.5,276L792.5,276z"/>
	</g>
</g>
</svg>
