<?xml version="1.0" encoding="utf-8"?>
<!-- Generator: Adobe Illustrator 19.0.0, SVG Export Plug-In . SVG Version: 6.00 Build 0)  -->
<svg version="1.1" id="图层_1" xmlns="http://www.w3.org/2000/svg" xmlns:xlink="http://www.w3.org/1999/xlink" x="0px" y="0px"
	 viewBox="0 0 512 512" style="enable-background:new 0 0 512 512;" xml:space="preserve">
<style type="text/css">
	.st0{fill:#040000;}
</style>
<g>
	<path class="st0" d="M416.9,257.2L416.9,257.2c0-79.9-29.9-155.7-84.1-213.9l-9.5-10.2l-9.8,9.9l-32,32.3l-9.2,9.3l8.8,9.6
		c40.9,44.5,63.5,102.3,63.5,162.8S322,375.4,281.1,419.8l-8.8,9.6l9.2,9.3l32,32.3l9.8,9.9l9.5-10.2
		C387,412.7,416.9,336.8,416.9,257.2z"/>
	<path class="st0" d="M256.5,398.5c35.1-38.8,54.4-88.9,54.4-141.1v-0.1V257v-8.5l-0.2-0.1c-2-49.2-21.1-96-54.2-132.6l-9.5-10.5
		l-10,10.1l-32.4,32.7l-9,9.1l8.4,9.6c22.2,25.3,34.5,57.4,34.5,90.3c0,33.1-12.3,65.2-34.5,90.5l-8.4,9.6l9,9.1L237,399l10,10.1
		L256.5,398.5z"/>
	<path class="st0" d="M96.9,257.3l9.5,9.6l52.2,52.8l10.5,10.6l9.5-11.6c11.4-15.4,20-32.4,20-61.5c0-29-9.4-44.9-20-61.5l-9.5-11.5
		l-10.5,10.6l-52.2,52.8L96.9,257.3z"/>
</g>
</svg>
