<?xml version="1.0" encoding="utf-8"?>
<!-- Generator: Adobe Illustrator 19.1.0, SVG Export Plug-In . SVG Version: 6.00 Build 0)  -->
<svg version="1.1" id="图层_9" xmlns="http://www.w3.org/2000/svg" xmlns:xlink="http://www.w3.org/1999/xlink" x="0px" y="0px"
	 viewBox="0 0 512 512" enable-background="new 0 0 512 512" xml:space="preserve">
<g>
	<g id="XMLID_108_">
		<g>
			<path d="M318.504,465.454c-5.097,0-9.68-3.545-10.796-8.729c-1.285-5.969,2.511-11.849,8.479-13.134
				c11.118-2.395,15.516-3.959,17.147-4.678c5.586-2.464,12.112,0.069,14.574,5.656c2.463,5.587-0.069,12.111-5.656,14.574
				c-4.327,1.907-11.33,3.89-21.411,6.061C320.058,465.373,319.274,465.454,318.504,465.454z"/>
		</g>
		<g>
			<path d="M235.314,477.055c-1.171,0-2.169-0.04-3.052-0.121c-0.519-0.048-1.034-0.098-1.548-0.149
				c-6.075-0.612-10.503-6.033-9.891-12.107s6.039-10.5,12.107-9.891c0.455,0.046,0.91,0.09,1.365,0.132
				c0.027,0.003,0.315,0.027,1.018,0.027c5.974,0,21.45-1.628,38.512-4.05c6.045-0.862,11.64,3.346,12.498,9.391
				c0.858,6.044-3.346,11.64-9.391,12.498C258.105,475.458,242.547,477.055,235.314,477.055z M189.003,468.049
				c-1.104,0-2.228-0.167-3.337-0.518c-14.633-4.629-28.826-10.812-42.187-18.379c-5.312-3.009-7.18-9.755-4.171-15.067
				c3.01-5.312,9.756-7.178,15.067-4.171c12.021,6.809,24.792,12.373,37.958,16.537c5.821,1.842,9.047,8.053,7.206,13.874
				C198.05,465.037,193.695,468.049,189.003,468.049z M113.334,425.215c-2.6,0-5.208-0.911-7.311-2.766
				c-11.494-10.144-21.979-21.521-31.16-33.815c-3.653-4.892-2.648-11.818,2.243-15.472c4.892-3.654,11.818-2.648,15.472,2.243
				c8.272,11.078,17.718,21.328,28.074,30.466c4.577,4.04,5.014,11.025,0.975,15.604
				C119.442,423.95,116.395,425.215,113.334,425.215z"/>
		</g>
		<g>
			<path d="M61.323,355.543c-4.17,0-8.162-2.371-10.033-6.402c-2.949-6.352-5.626-12.919-7.957-19.521
				c-2.032-5.757,0.986-12.072,6.743-14.104c5.758-2.034,12.072,0.986,14.104,6.743c2.099,5.943,4.508,11.855,7.162,17.572
				c2.571,5.538,0.166,12.111-5.371,14.682C64.465,355.211,62.882,355.543,61.323,355.543z"/>
		</g>
	</g>
	<g id="XMLID_105_">
		<path d="M365.57,442.848c-3.541,0-7.019-1.697-9.157-4.849c-3.428-5.052-2.111-11.926,2.94-15.354
			c55-37.322,87.835-99.23,87.835-165.604c0-110.272-89.713-199.986-199.986-199.986c-42.064,0-82.306,12.907-116.374,37.326
			c-4.965,3.559-11.869,2.417-15.426-2.544c-3.557-4.963-2.417-11.868,2.545-15.425c37.847-27.128,82.543-41.467,129.255-41.467
			c59.324,0,115.097,23.103,157.045,65.051s65.051,97.721,65.051,157.045c0,73.71-36.46,142.457-97.53,183.898
			C369.867,442.229,367.707,442.848,365.57,442.848z"/>
	</g>
	<g id="XMLID_107_">
		<polygon points="159.357,97.874 92.07,103.445 128.617,46.675 		"/>
	</g>
</g>
</svg>
