<?xml version="1.0" encoding="utf-8"?>
<!-- Generator: Adobe Illustrator 19.1.0, SVG Export Plug-In . SVG Version: 6.00 Build 0)  -->
<svg version="1.1" id="图层_9" xmlns="http://www.w3.org/2000/svg" xmlns:xlink="http://www.w3.org/1999/xlink" x="0px" y="0px"
	 viewBox="0 0 512 512" enable-background="new 0 0 512 512" xml:space="preserve">
<g>
	<path fill="#040000" d="M330.288,188.419c4.83,0,9.581,0.367,14.359,0.893C331.784,129.409,267.76,84.916,194.654,84.916
		C112.938,84.916,46,140.592,46,211.336c0,40.819,22.26,74.34,59.482,100.38l-14.857,44.704l51.975-26.04
		c18.585,3.649,33.495,7.429,52.054,7.429c4.673,0,9.293-0.21,13.86-0.551c-2.887-9.949-4.594-20.344-4.594-31.185
		C203.946,241.129,259.701,188.419,330.288,188.419z M250.382,148.126c11.235,0,18.611,7.376,18.611,18.559
		c0,11.13-7.376,18.585-18.611,18.585c-11.104,0-22.286-7.455-22.286-18.585C228.096,155.476,239.253,148.126,250.382,148.126z
		 M146.354,185.269c-11.156,0-22.391-7.455-22.391-18.585c0-11.183,11.235-18.559,22.391-18.559c11.156,0,18.559,7.35,18.559,18.559
		C164.913,177.814,157.51,185.269,146.354,185.269z"/>
	<path fill="#040000" d="M466,304.287c0-59.43-59.482-107.861-126.289-107.861c-70.744,0-126.42,48.457-126.42,107.861
		c0,59.588,55.702,107.861,126.42,107.861c14.805,0,29.741-3.701,44.599-7.429l40.766,22.365l-11.182-37.17
		C443.74,367.497,466,337.808,466,304.287z M298.709,285.676c-7.376,0-14.857-7.35-14.857-14.857
		c0-7.402,7.481-14.858,14.857-14.858c11.288,0,18.611,7.455,18.611,14.858C317.32,278.326,309.996,285.676,298.709,285.676z
		 M380.477,285.676c-7.324,0-14.779-7.35-14.779-14.857c0-7.402,7.429-14.858,14.779-14.858c11.182,0,18.611,7.455,18.611,14.858
		C399.089,278.326,391.66,285.676,380.477,285.676z"/>
</g>
</svg>
