<?xml version="1.0" encoding="utf-8"?>
<!-- Generator: Adobe Illustrator 19.1.0, SVG Export Plug-In . SVG Version: 6.00 Build 0)  -->
<svg version="1.1" id="图层_9" xmlns="http://www.w3.org/2000/svg" xmlns:xlink="http://www.w3.org/1999/xlink" x="0px" y="0px"
	 viewBox="0 0 512 512" enable-background="new 0 0 512 512" xml:space="preserve">
<g>
	<g>
		<g>
			<path d="M228.565,274.106c-58.033,0-105.246-47.213-105.246-105.246S170.533,63.615,228.565,63.615
				s105.246,47.213,105.246,105.246S286.598,274.106,228.565,274.106z M228.565,88.615c-44.248,0-80.246,35.998-80.246,80.246
				s35.998,80.246,80.246,80.246s80.246-35.998,80.246-80.246S272.813,88.615,228.565,88.615z"/>
		</g>
		<g>
			<path d="M56.423,448.385c-6.904,0-12.5-5.596-12.5-12.5c0-101.812,82.83-184.642,184.642-184.642
				c41.458,0,80.629,13.424,113.278,38.822c5.449,4.239,6.43,12.092,2.191,17.541c-4.239,5.448-12.093,6.43-17.541,2.191
				c-28.22-21.952-62.083-33.555-97.929-33.555c-88.027,0-159.642,71.615-159.642,159.642
				C68.923,442.789,63.327,448.385,56.423,448.385z"/>
		</g>
	</g>
	<g>
		<g>
			<path d="M329.995,431.5c-3.199,0-6.398-1.22-8.839-3.661c-4.881-4.881-4.881-12.796,0-17.678l80-80
				c4.882-4.882,12.796-4.882,17.678,0c4.881,4.881,4.881,12.796,0,17.678l-80,80C336.393,430.279,333.194,431.5,329.995,431.5z"/>
		</g>
		<g>
			<path d="M409.995,431.5c-3.199,0-6.398-1.22-8.839-3.661l-80-80c-4.881-4.881-4.881-12.796,0-17.678
				c4.882-4.882,12.796-4.882,17.678,0l80,80c4.881,4.881,4.881,12.796,0,17.678C416.393,430.279,413.194,431.5,409.995,431.5z"/>
		</g>
	</g>
</g>
</svg>
