<?xml version="1.0" encoding="utf-8"?>
<!-- Generator: Adobe Illustrator 19.0.0, SVG Export Plug-In . SVG Version: 6.00 Build 0)  -->
<svg version="1.1" id="图层_2" xmlns="http://www.w3.org/2000/svg" xmlns:xlink="http://www.w3.org/1999/xlink" x="0px" y="0px"
	 viewBox="0 0 512 512" style="enable-background:new 0 0 512 512;" xml:space="preserve">
<style type="text/css">
	.st0{fill:#040000;}
</style>
<g id="XMLID_8_">
	<polygon class="st0" points="361.6,360.6 211.5,360.6 211.5,340.6 341.6,340.6 341.6,158.7 131.3,158.7 131.3,209.9 111.3,209.9 
		111.3,138.7 361.6,138.7 	"/>
</g>
<g id="XMLID_10_">
	<rect x="111.3" y="207.9" class="st0" width="20" height="87.9"/>
</g>
<g id="XMLID_7_">
	<polygon class="st0" points="162,360.6 111.3,360.6 111.3,284.1 131.3,284.1 131.3,340.6 162,340.6 	"/>
</g>
<g id="XMLID_1_">
	<path class="st0" d="M372.2,360.6h-30.5V190h67.1c14,0,26.9,6.4,35.4,17.6l39.8,52.6c6.4,8.4,9.7,18.4,9.7,28.9v40.4
		c0,17.1-13.9,31-31,31h-32.6v-20h32.6c6.1,0,11-4.9,11-11v-40.4c0-6.1-2-12-5.7-16.9l-39.8-52.6c-4.6-6.1-11.7-9.6-19.4-9.6h-47.1
		v130.6h10.5V360.6z"/>
</g>
<g id="XMLID_5_">
	<path class="st0" d="M187.8,393.1c-23.4,0-42.5-19.1-42.5-42.5s19.1-42.5,42.5-42.5s42.5,19.1,42.5,42.5S211.2,393.1,187.8,393.1z
		 M187.8,328.1c-12.4,0-22.5,10.1-22.5,22.5s10.1,22.5,22.5,22.5s22.5-10.1,22.5-22.5S200.2,328.1,187.8,328.1z"/>
</g>
<g id="XMLID_9_">
	<path class="st0" d="M400.7,393.1c-23.4,0-42.5-19.1-42.5-42.5s19.1-42.5,42.5-42.5s42.5,19.1,42.5,42.5S424.1,393.1,400.7,393.1z
		 M400.7,328.1c-12.4,0-22.5,10.1-22.5,22.5s10.1,22.5,22.5,22.5s22.5-10.1,22.5-22.5S413.1,328.1,400.7,328.1z"/>
</g>
<g id="XMLID_12_">
	<path class="st0" d="M428.8,287.3h-40.6c-8.5,0-15.4-6.9-15.4-15.4v-22.2c0-8.5,6.9-15.4,15.4-15.4h24.9c5,0,9.6,2.3,12.6,6.4
		l15.8,22.3c3.3,4.8,3.7,10.9,1,16.1C439.8,284.1,434.6,287.3,428.8,287.3z M388.2,248.3c-0.7,0-1.4,0.7-1.4,1.4v22.2
		c0,0.7,0.7,1.4,1.4,1.4h40.6c0.6,0,1-0.3,1.2-0.8c0.2-0.4,0.3-0.9-0.1-1.5l-15.7-22.2c-0.2-0.3-0.7-0.5-1.2-0.5H388.2z"/>
</g>
<g id="XMLID_2_">
	<path class="st0" d="M142.8,158.6H77.3c-5.5,0-9.9-4.4-9.9-9.9l0,0c0-5.5,4.4-9.9,9.9-9.9h65.5c5.5,0,9.9,4.4,9.9,9.9l0,0
		C152.7,154.1,148.2,158.6,142.8,158.6z"/>
</g>
<g id="XMLID_6_">
	<path class="st0" d="M186,278.8H55.9c-5.5,0-9.9-4.4-9.9-9.9l0,0c0-5.5,4.4-9.9,9.9-9.9H186c5.5,0,9.9,4.4,9.9,9.9l0,0
		C195.9,274.4,191.5,278.8,186,278.8z"/>
</g>
<g id="XMLID_4_">
	<path class="st0" d="M246.1,219.8H25.6c-5.5,0-9.9-4.4-9.9-9.9l0,0c0-5.5,4.4-9.9,9.9-9.9h220.5c5.5,0,9.9,4.4,9.9,9.9l0,0
		C256,215.4,251.6,219.8,246.1,219.8z"/>
</g>
</svg>
