<?xml version="1.0" encoding="utf-8"?>
<!-- Generator: Adobe Illustrator 19.1.0, SVG Export Plug-In . SVG Version: 6.00 Build 0)  -->
<svg version="1.1" id="图层_9" xmlns="http://www.w3.org/2000/svg" xmlns:xlink="http://www.w3.org/1999/xlink" x="0px" y="0px"
	 viewBox="0 0 512 512" enable-background="new 0 0 512 512" xml:space="preserve">
<g>
	<path d="M256.837,469.512l-72.293-75.002c-3.903-3.537-11.224-8.33-15.149-8.33H77.35c-24.238,0-42.35-24.401-42.35-46.218V106.56
		c0-23.227,18.395-42.123,41.005-42.123h360.013c22.598,0,40.981,18.896,40.981,42.123L477,339.963
		c0,21.817-18.111,46.218-42.35,46.218H342.63c-4.111,0-10.153,4.617-12.942,7.737l-0.32,0.347L256.837,469.512z M76.005,86.437
		C65.525,86.437,57,95.464,57,106.56v233.402c0,11.996,10.27,24.218,20.35,24.218h92.045c14.156,0,27.75,11.997,30.331,14.402
		l0.422,0.415l56.689,58.814l56.538-58.655c2.111-2.35,14.161-14.975,29.255-14.975h92.021c10.08,0,20.35-12.222,20.35-24.218h11
		h-11l-0.001-233.403c0-11.096-8.515-20.123-18.981-20.123H76.005z"/>
</g>
<g>
	<g id="XMLID_5_">
		<circle cx="158.219" cy="232.227" r="20"/>
		<path d="M158.219,252.775c-11.33,0-20.548-9.218-20.548-20.548s9.218-20.548,20.548-20.548s20.548,9.218,20.548,20.548
			S169.549,252.775,158.219,252.775z M158.219,212.775c-10.726,0-19.452,8.726-19.452,19.452s8.727,19.452,19.452,19.452
			s19.452-8.726,19.452-19.452S168.944,212.775,158.219,212.775z"/>
	</g>
	<g id="XMLID_4_">
		<circle cx="256.581" cy="232.227" r="20"/>
		<path d="M256.581,252.775c-11.33,0-20.548-9.218-20.548-20.548s9.218-20.548,20.548-20.548s20.548,9.218,20.548,20.548
			S267.911,252.775,256.581,252.775z M256.581,212.775c-10.726,0-19.452,8.726-19.452,19.452s8.727,19.452,19.452,19.452
			s19.452-8.726,19.452-19.452S267.307,212.775,256.581,212.775z"/>
	</g>
	<g id="XMLID_1_">
		<circle cx="353.781" cy="232.227" r="20"/>
		<path d="M353.781,252.775c-11.33,0-20.548-9.218-20.548-20.548s9.218-20.548,20.548-20.548s20.548,9.218,20.548,20.548
			S365.111,252.775,353.781,252.775z M353.781,212.775c-10.726,0-19.452,8.726-19.452,19.452s8.727,19.452,19.452,19.452
			s19.452-8.726,19.452-19.452S364.507,212.775,353.781,212.775z"/>
	</g>
</g>
</svg>
