<?xml version="1.0" encoding="utf-8"?>
<!-- Generator: Adobe Illustrator 19.1.0, SVG Export Plug-In . SVG Version: 6.00 Build 0)  -->
<svg version="1.1" id="图层_9" xmlns="http://www.w3.org/2000/svg" xmlns:xlink="http://www.w3.org/1999/xlink" x="0px" y="0px"
	 viewBox="0 0 512 512" enable-background="new 0 0 512 512" xml:space="preserve">
<g>
	<g id="XMLID_26_">
		<path d="M466,475.865H46c-3.04,0-5.945-1.258-8.024-3.477c-2.08-2.218-3.148-5.198-2.953-8.232
			c3.621-56.078,28.21-108.234,69.236-146.859c41.216-38.804,95.104-60.174,151.741-60.174s110.525,21.37,151.741,60.174
			c41.026,38.625,65.615,90.781,69.236,146.859c0.195,3.034-0.873,6.014-2.953,8.232C471.945,474.607,469.04,475.865,466,475.865z
			 M58.078,453.865h395.844c-5.693-46.017-27.181-88.464-61.261-120.551c-37.118-34.946-85.652-54.191-136.661-54.191
			s-99.543,19.246-136.661,54.191C85.259,365.401,63.771,407.849,58.078,453.865z"/>
	</g>
	<g id="XMLID_18_">
		<path d="M256,245.982c-57.855,0-104.924-47.069-104.924-104.924S198.145,36.135,256,36.135s104.924,47.069,104.924,104.924
			S313.855,245.982,256,245.982z M256,58.135c-45.725,0-82.924,37.2-82.924,82.924s37.199,82.924,82.924,82.924
			s82.924-37.2,82.924-82.924S301.725,58.135,256,58.135z"/>
	</g>
</g>
</svg>
