<?xml version="1.0" encoding="utf-8"?>
<!-- Generator: Adobe Illustrator 19.0.0, SVG Export Plug-In . SVG Version: 6.00 Build 0)  -->
<svg version="1.1" id="Layer_1" xmlns="http://www.w3.org/2000/svg" xmlns:xlink="http://www.w3.org/1999/xlink" x="0px" y="0px"
	 viewBox="0 0 512 512" style="enable-background:new 0 0 512 512;" xml:space="preserve">
<style type="text/css">
	.st0{stroke:#000000;stroke-width:1.0959;stroke-miterlimit:10;}
</style>
<g>
	<path d="M256.8,458.5l-72.3-75c-3.9-3.5-11.2-8.3-15.2-8.3h-92C53.1,375.2,35,350.8,35,329V95.6c0-23.2,18.4-42.1,41-42.1h360
		c22.6,0,41,18.9,41,42.1V329c0,21.8-18.1,46.2-42.3,46.2h-92c-4.1,0-10.2,4.6-12.9,7.7l-0.3,0.3L256.8,458.5z M76,75.4
		c-10.5,0-19,9-19,20.1V329c0,12,10.3,24.2,20.4,24.2h92c14.2,0,27.8,12,30.3,14.4l0.4,0.4l56.7,58.8l56.5-58.7
		c2.1-2.3,14.2-15,29.3-15h92c10.1,0,20.3-12.2,20.3-24.2V95.6c0-11.1-8.5-20.1-19-20.1H76z"/>
</g>
<circle id="XMLID_5_" class="st0" cx="158.2" cy="221.2" r="20"/>
<circle id="XMLID_4_" class="st0" cx="256.6" cy="221.2" r="20"/>
<circle id="XMLID_1_" class="st0" cx="353.8" cy="221.2" r="20"/>
</svg>
