<?xml version="1.0" encoding="utf-8"?>
<!-- Generator: Adobe Illustrator 19.1.0, SVG Export Plug-In . SVG Version: 6.00 Build 0)  -->
<svg version="1.1" id="图层_9" xmlns="http://www.w3.org/2000/svg" xmlns:xlink="http://www.w3.org/1999/xlink" x="0px" y="0px"
	 viewBox="0 0 512 512" enable-background="new 0 0 512 512" xml:space="preserve">
<g>
	<g id="XMLID_12_">
		<path fill="#FFFFFF" d="M416,466H96c-27.614,0-50-22.386-50-50V96c0-27.614,22.386-50,50-50h320c27.614,0,50,22.386,50,50v320
			C466,443.614,443.614,466,416,466z"/>
		<path d="M416,477H96c-33.636,0-61-27.364-61-61V96c0-33.636,27.364-61,61-61h320c33.636,0,61,27.364,61,61v320
			C477,449.636,449.636,477,416,477z M96,57c-21.505,0-39,17.495-39,39v320c0,21.505,17.495,39,39,39h320c21.505,0,39-17.495,39-39
			V96c0-21.505-17.495-39-39-39H96z"/>
	</g>
	<g id="XMLID_11_">
		<path d="M330.976,230.875c-31.284,0-56.735-25.451-56.735-56.735c0-31.284,25.451-56.735,56.735-56.735
			s56.735,25.451,56.735,56.735C387.711,205.424,362.26,230.875,330.976,230.875z M330.976,139.405
			c-19.153,0-34.735,15.582-34.735,34.735c0,19.153,15.582,34.735,34.735,34.735s34.735-15.582,34.735-34.735
			C365.711,154.987,350.129,139.405,330.976,139.405z"/>
	</g>
	<g id="XMLID_10_">
		<path d="M466.002,348.621c-2.946,0-5.885-1.176-8.052-3.503l-68.802-73.869l-61.872,53.431c-4.475,3.863-11.201,3.5-15.233-0.822
			L186.462,189.228L54.866,298.244c-4.681,3.875-11.613,3.224-15.488-1.453c-3.876-4.679-3.225-11.613,1.453-15.488l139.583-115.633
			c4.484-3.716,11.089-3.292,15.062,0.968L320.91,301.111l61.878-53.436c4.476-3.866,11.206-3.501,15.239,0.828l76.022,81.621
			c4.14,4.445,3.893,11.406-0.553,15.546C471.378,347.644,468.687,348.621,466.002,348.621z"/>
	</g>
</g>
</svg>
