<?xml version="1.0" encoding="utf-8"?>
<!-- Generator: Adobe Illustrator 19.0.0, SVG Export Plug-In . SVG Version: 6.00 Build 0)  -->
<svg version="1.1" id="Layer_1" xmlns="http://www.w3.org/2000/svg" xmlns:xlink="http://www.w3.org/1999/xlink" x="0px" y="0px"
	 viewBox="0 0 512 512" style="enable-background:new 0 0 512 512;" xml:space="preserve">
<g id="XMLID_1_">
	<path id="XMLID_10_" d="M428.8,469.3H83c-21.8,0-39.6-17.7-39.6-39.5l0.1-307.4c0-21.8,17.8-39.5,39.6-39.5h53.1
		c1.2,0,1.8-0.2,2.1-0.2c0.1-0.1,0.2-0.4,0.5-0.9l1-2.3c2.1-4.8,3.7-8.5,5.1-11.6c0.3-0.8,0.6-1.5,1-2.3c0.6-1.4,1.1-2.7,1.6-4
		l0.3-0.7c0.1-0.2,0.2-0.5,0.4-0.9c0-0.1,0.1-0.3,0.2-0.4c1.8-4.8,6.6-16.6,19-16.6h178.6c11.5,0,15.4,9.2,17,13.1l0.3,0.9
		c0.6,1.4,1.5,3.2,2.3,5.2c0.7,1.5,1.3,3,2,4.6l0.9,2c2.1,4.8,4.9,11.1,5.9,13.5c0.3,0.6,0.7,0.9,0.9,0.9h53.7
		c21.8,0,39.5,17.7,39.5,39.5v307.2C468.4,451.6,450.6,469.3,428.8,469.3z M83.1,104.9c-9.7,0-17.6,7.9-17.6,17.5l-0.1,307.4
		c0,9.6,7.9,17.5,17.6,17.5h345.8c9.7,0,17.6-7.9,17.6-17.5V122.6c0-9.6-7.9-17.5-17.5-17.5h-53.7c-9.3,0-17.7-5.8-21.3-14.7
		l-0.1-0.1c-0.5-1.3-2.6-6-5.5-12.6l-0.9-2c-0.7-1.6-1.4-3.2-2.1-4.7c-0.9-2.1-1.8-4-2.4-5.4l-0.3-0.8H169.8
		c-0.3,0.6-0.7,1.5-1.1,2.7l-0.2,0.6c-0.1,0.2-0.2,0.4-0.3,0.6c-0.1,0.2-0.2,0.5-0.4,0.9c-0.6,1.6-1.2,3.1-1.9,4.5
		c-0.3,0.7-0.6,1.5-0.9,2.2l-0.1,0.3c-1.4,3.1-3,6.8-5.1,11.6l-1,2.4c-5.2,11.8-15.2,14.2-22.7,14.2H83.1z"/>
</g>
<g id="XMLID_3_">
	<path id="XMLID_7_" d="M256,366.2c-53.4,0-96.9-43.5-96.9-96.9s43.5-96.9,96.9-96.9s96.9,43.5,96.9,96.9S309.4,366.2,256,366.2z
		 M256,194.4c-41.3,0-74.9,33.6-74.9,74.9s33.6,74.9,74.9,74.9s74.9-33.6,74.9-74.9S297.3,194.4,256,194.4z"/>
</g>
<g id="XMLID_6_">
	<path id="XMLID_2_" d="M393.5,142.3h-21.3c-6.1,0-11.1,4.9-11.1,11s5,11,11.1,11h21.3c6.1,0,11.1-4.9,11.1-11
		S399.6,142.3,393.5,142.3z"/>
</g>
</svg>
