<?xml version="1.0" encoding="utf-8"?>
<!-- Generator: Adobe Illustrator 19.1.0, SVG Export Plug-In . SVG Version: 6.00 Build 0)  -->
<svg version="1.1" id="图层_9" xmlns="http://www.w3.org/2000/svg" xmlns:xlink="http://www.w3.org/1999/xlink" x="0px" y="0px"
	 viewBox="0 0 512 512" enable-background="new 0 0 512 512" xml:space="preserve">
<g>
	<g id="XMLID_151_">
		<path d="M256,477c-2.842,0-5.579-1.101-7.632-3.079l-58.058-55.938h-79.425c-40.827,0-74.042-33.216-74.042-74.043V109.042
			C36.842,68.215,70.058,35,110.885,35h290.23c40.827,0,74.042,33.215,74.042,74.042v234.897c0,40.827-33.215,74.043-74.042,74.043
			h-86.392l-50.599,55.434c-2.001,2.192-4.804,3.483-7.772,3.578C256.235,476.998,256.117,477,256,477z M110.885,57
			c-28.696,0-52.042,23.346-52.042,52.042v234.897c0,28.696,23.346,52.043,52.042,52.043h83.862c2.847,0,5.583,1.104,7.632,3.079
			l53.115,51.176l46.251-50.671c2.084-2.283,5.033-3.584,8.125-3.584h91.245c28.696,0,52.042-23.347,52.042-52.043V109.042
			c0-28.696-23.346-52.042-52.042-52.042H110.885z"/>
	</g>
	<g id="XMLID_129_">
		<g id="XMLID_141_">
			<path d="M256,351.739c-6.325,0-12.257-2.432-16.716-6.85l-77.496-74.765l0.005-0.006c-5.083-4.648-33.265-32.106-33.265-67.247
				c0-45.093,29.625-74.23,75.474-74.23c20.137,0,38.462,10.56,51.998,21.443c13.536-10.884,31.861-21.443,51.998-21.443
				c45.849,0,75.474,29.138,75.474,74.23c0,32.998-25.405,59.871-33.192,67.321l-77.635,74.767
				C268.228,349.333,262.322,351.739,256,351.739z M176.534,253.809l0.152,0.121l0.375,0.363l77.698,74.961
				c0.327,0.326,0.732,0.485,1.24,0.485c0.486,0,0.903-0.149,1.174-0.42l0.148-0.146l77.723-74.852
				c25.154-24.068,26.427-47.081,26.427-51.45c0-16.114-4.85-29.389-14.025-38.387c-9.234-9.057-22.875-13.844-39.448-13.844
				c-17.924,0-35.604,13.814-44.547,22.048L256,179.55l-7.451-6.86c-8.943-8.233-26.623-22.048-44.547-22.048
				c-16.573,0-30.214,4.787-39.448,13.844c-9.175,8.998-14.025,22.272-14.025,38.387
				C150.528,229.351,174.443,251.891,176.534,253.809z"/>
		</g>
	</g>
</g>
</svg>
