<?xml version="1.0" encoding="utf-8"?>
<!-- Generator: Adobe Illustrator 19.0.0, SVG Export Plug-In . SVG Version: 6.00 Build 0)  -->
<svg version="1.1" id="Layer_1" xmlns="http://www.w3.org/2000/svg" xmlns:xlink="http://www.w3.org/1999/xlink" x="0px" y="0px"
	 viewBox="-3 5 512 512" style="enable-background:new -3 5 512 512;" xml:space="preserve">
<g>
	<path d="M393.3,242.8c0-1.2,0.2-2.4,0.2-3.6c0-64.3-52.8-117.2-116.8-117.2c-46.1,0-85.8,27.9-104.4,67c-8.1-4.1-17.1-6.4-26.8-6.4
		c-29.6,0-54.1,23.7-58.9,52C51.4,246.8,26,278.8,26,318.4c0,49.8,40.1,91.6,89.6,91.6H392c45,0,82-38.9,82-84.3
		C474,280.1,438.6,242.9,393.3,242.8z M391.5,393.6l-3.2,0.4H116.4c-40.9,0-74.2-34.9-74.2-76.1c0-31.9,20.2-58.4,50.2-68.8l8.4-3
		l1.5-8.8c3.6-21.6,22.1-39.3,43.9-39.3c6.9,0,13.7,1.6,19.9,4.8l13.5,6.8l6.5-13.7c16.6-34.9,52.1-58.2,90.4-58.2
		c55.3,0,100.9,44.1,100.9,99.7c0,13.3-0.2,20.3-0.2,20.3l15.2,0.1c36.7,0.5,65.6,30.5,65.6,67.4S428.2,393.4,391.5,393.6z"/>
	<path d="M329.3,209.2c-6.7-5.2-16.1-3.6-21,3.5l-69.7,101.9L200.2,273c-5.7-6.4-15.1-6.7-21.2-0.7c-6,6-6.4,16.1-0.7,22.5
		c0,0,46.6,51.7,53.3,56.9c6.7,5.2,16.1,3.6,21-3.5l79.9-116.9C337.5,224.3,336,214.4,329.3,209.2z"/>
</g>
</svg>
