<?xml version="1.0" encoding="utf-8"?>
<!-- Generator: Adobe Illustrator 19.0.0, SVG Export Plug-In . SVG Version: 6.00 Build 0)  -->
<svg version="1.1" id="Layer_1" xmlns="http://www.w3.org/2000/svg" xmlns:xlink="http://www.w3.org/1999/xlink" x="0px" y="0px"
	 viewBox="0 0 512 512" style="enable-background:new 0 0 512 512;" xml:space="preserve">
<g>
	<g>
		<g>
			<path d="M256,48C141.1,48,48,141.1,48,256s93.1,208,208,208s208-93.1,208-208S370.9,48,256,48z M256,446.7
				c-105.1,0-190.7-85.5-190.7-190.7S150.9,65.3,256,65.3S446.7,150.9,446.7,256S361.1,446.7,256,446.7z"/>
		</g>
	</g>
</g>
<rect x="158" y="167" width="43" height="43"/>
<rect x="233.2" y="167" width="43" height="43"/>
<rect x="308.5" y="167" width="43" height="43"/>
<rect x="158" y="234.5" width="43" height="43"/>
<rect x="233.2" y="234.5" width="43" height="43"/>
<rect x="308.5" y="234.5" width="43" height="43"/>
<rect x="158" y="311" width="193.5" height="33.8"/>
</svg>
