<?xml version="1.0" encoding="utf-8"?>
<!-- Generator: Adobe Illustrator 19.1.0, SVG Export Plug-In . SVG Version: 6.00 Build 0)  -->
<svg version="1.1" id="图层_9" xmlns="http://www.w3.org/2000/svg" xmlns:xlink="http://www.w3.org/1999/xlink" x="0px" y="0px"
	 viewBox="0 0 512 512" enable-background="new 0 0 512 512" xml:space="preserve">
<g>
	<g>
		<path fill="#040000" d="M256,321.974c-6.435,0-11.652-5.217-11.652-11.652V49.187c0-6.435,5.217-11.652,11.652-11.652
			s11.652,5.217,11.652,11.652v261.135C267.652,316.757,262.435,321.974,256,321.974z"/>
	</g>
	<g>
		<path fill="#040000" d="M320.842,122.494c-2.982,0-5.964-1.137-8.239-3.413L256,62.478l-56.604,56.603
			c-4.55,4.551-11.928,4.551-16.478,0c-4.55-4.55-4.55-11.927,0-16.478L256,29.522l73.081,73.082c4.55,4.55,4.55,11.927,0,16.478
			C326.806,121.356,323.824,122.494,320.842,122.494z"/>
	</g>
	<g>
		<path fill="#040000" d="M397.133,477.651H114.867c-17.256,0-31.295-14.039-31.295-31.295V189.266
			c0-17.256,14.039-31.295,31.295-31.295h74.96c6.435,0,11.651,5.216,11.651,11.651s-5.216,11.651-11.651,11.651h-74.96
			c-4.407,0-7.992,3.585-7.992,7.992v257.091c0,4.407,3.585,7.992,7.992,7.992h282.266c4.407,0,7.992-3.585,7.992-7.992V189.266
			c0-4.407-3.585-7.992-7.992-7.992h-74.96c-6.435,0-11.651-5.216-11.651-11.651s5.216-11.651,11.651-11.651h74.96
			c17.256,0,31.295,14.039,31.295,31.295v257.091C428.428,463.613,414.389,477.651,397.133,477.651z"/>
	</g>
</g>
</svg>
