<?xml version="1.0" encoding="utf-8"?>
<!-- Generator: Adobe Illustrator 19.0.0, SVG Export Plug-In . SVG Version: 6.00 Build 0)  -->
<svg version="1.1" id="图层_1" xmlns="http://www.w3.org/2000/svg" xmlns:xlink="http://www.w3.org/1999/xlink" x="0px" y="0px"
	 viewBox="0 0 520 520" style="enable-background:new 0 0 520 520;" xml:space="preserve">
<style type="text/css">
	.st0{fill:#EDEDEE;}
	.st1{fill:#DF00A5;}
</style>
<g id="XMLID_2_">
	<path id="XMLID_8_" class="st0" d="M260,25C130.2,25,25,130.2,25,260s105.2,235,235,235s235-105.2,235-235S389.8,25,260,25z
		 M261,474.9c-118.7,0-214.9-96.2-214.9-214.9S142.3,45.1,261,45.1S475.9,141.3,475.9,260S379.7,474.9,261,474.9z"/>
	<rect id="XMLID_9_" x="175" y="174" class="st1" width="172" height="172"/>
</g>
<g id="XMLID_1_">
	<path id="XMLID_3_" class="st1" d="M25,260c0,129.8,105.2,235,235,235s235-105.2,235-235 M475.9,260
		c0,118.7-96.2,214.9-214.9,214.9S46.1,378.7,46.1,260"/>
</g>
</svg>
