<?xml version="1.0" encoding="utf-8"?>
<!-- Generator: Adobe Illustrator 19.1.0, SVG Export Plug-In . SVG Version: 6.00 Build 0)  -->
<svg version="1.1" id="图层_9" xmlns="http://www.w3.org/2000/svg" xmlns:xlink="http://www.w3.org/1999/xlink" x="0px" y="0px"
	 viewBox="0 0 512 512" enable-background="new 0 0 512 512" xml:space="preserve">
<g>
	<g>
		<path fill="#040000" d="M360.143,239.53h-22V139.143C338.143,93.849,301.294,57,256,57s-82.143,36.849-82.143,82.143V239.53h-22
			V139.143C151.857,81.718,198.575,35,256,35s104.143,46.718,104.143,104.143V239.53z"/>
	</g>
	<g>
		<path fill="#040000" d="M256,477c-80.251,0-145.54-65.289-145.54-145.54S175.749,185.92,256,185.92s145.54,65.289,145.54,145.54
			S336.251,477,256,477z M256,207.92c-68.12,0-123.54,55.42-123.54,123.54S187.88,455,256,455s123.54-55.42,123.54-123.54
			S324.12,207.92,256,207.92z"/>
	</g>
	<g>
		<path fill="#040000" d="M256,373.508c-6.075,0-11-4.925-11-11v-62.096c0-6.075,4.925-11,11-11s11,4.925,11,11v62.096
			C267,368.583,262.075,373.508,256,373.508z"/>
	</g>
</g>
</svg>
