<?xml version="1.0" encoding="utf-8"?>
<!-- Generator: Adobe Illustrator 19.0.0, SVG Export Plug-In . SVG Version: 6.00 Build 0)  -->
<svg version="1.1" id="Layer_1" xmlns="http://www.w3.org/2000/svg" xmlns:xlink="http://www.w3.org/1999/xlink" x="0px" y="0px"
	 viewBox="0 0 512 512" style="enable-background:new 0 0 512 512;" xml:space="preserve">
<g id="XMLID_4_">
	<path id="XMLID_14_" d="M408.5,213H403v-35c0-0.1-0.1-0.2-0.1-0.3c-0.7-38.7-16.3-75-43.7-102.2c-27.5-27.3-64.2-42.3-102.8-42.3
		C175.8,33.1,110,98.1,110,178v35h-6.6c-7.7,0-13.4,6.1-13.4,13.7v238.2c0,7.7,5.7,14.1,13.4,14.1h305c7.7,0,13.5-6.4,13.5-14.1
		V226.7C422,219.1,416.2,213,408.5,213z M138,178c0-64.5,53.2-117,118.5-117c31.3,0,60.8,12.2,83,34.3c22.2,22,34.4,51.5,35.4,82.9
		V213H138V178z M395,451H117V241h278V451z"/>
	<path id="XMLID_18_" d="M256.6,272.7c-27.3,0-48.8,21.4-48.8,48.8c0,14.4,7.1,28,18.1,37.7V405c0,7.7,6.2,14,13.9,14h33.4
		c7.7,0,13.6-6.3,13.6-14v-45.7c12-9.3,18.3-23.2,18.3-37.9C305.3,294.1,284,272.7,256.6,272.7z M266.2,340
		c-4.3,2.5-7.2,7.1-7.2,12.1V391h-5v-38.9c0-4.8-2.5-9.3-6.6-11.8c-7.3-4.6-11.6-11.5-11.6-18.8c0-11.7,9.2-20.9,20.9-20.9
		s20.8,9.2,20.8,20.9C277.4,330.5,271.4,337.1,266.2,340z"/>
</g>
</svg>
