<?xml version="1.0" encoding="utf-8"?>
<!-- Generator: Adobe Illustrator 19.0.0, SVG Export Plug-In . SVG Version: 6.00 Build 0)  -->
<svg version="1.1" id="Layer_1" xmlns="http://www.w3.org/2000/svg" xmlns:xlink="http://www.w3.org/1999/xlink" x="0px" y="0px"
	 viewBox="0 0 512 512" style="enable-background:new 0 0 512 512;" xml:space="preserve">
<g id="环节">
	<g id="帖子发表" transform="translate(-581.000000, -63.000000)">
		<path id="Fill-183" d="M836.6,480.7c0,0-42-80.9-53.7-107.4l215.8-204.4L836.6,480.7L836.6,480.7z M675.5,306.1l308.8-147.7
			L769.5,359.8C769.4,359.8,675.5,306.1,675.5,306.1L675.5,306.1z M1038,104.7c-15.5,7.6-416.2,201.4-416.2,201.4
			s135,81.4,134.3,80.6c-0.2-0.3,80.6,147.7,80.6,147.7s211.5-409.5,214.8-416.2C1054.4,109.7,1048.1,100.5,1038,104.7L1038,104.7z"
			/>
	</g>
</g>
</svg>
