<?xml version="1.0" encoding="utf-8"?>
<!-- Generator: Adobe Illustrator 19.1.0, SVG Export Plug-In . SVG Version: 6.00 Build 0)  -->
<svg version="1.1" id="图层_9" xmlns="http://www.w3.org/2000/svg" xmlns:xlink="http://www.w3.org/1999/xlink" x="0px" y="0px"
	 viewBox="0 0 512 512" enable-background="new 0 0 512 512" xml:space="preserve">
<g>
	<path fill="#040000" stroke="#000000" stroke-width="5" stroke-miterlimit="10" d="M419.437,122.144H374.02
		c-1.136-2.616-5.89-13.545-8.152-18.261c-6.71-14.012-10.815-19.702-24.57-19.702H171.933c-13.478,0-19.348,5.479-27.309,25.525
		c-1.833,4.61-4.563,10.615-5.394,12.447l-46.668,0C66.894,122.153,46,143.019,46,168.669v212.644
		c0,25.649,20.886,46.506,46.562,46.506h326.875c25.668,0,46.563-20.866,46.563-46.506l0-212.643
		C466,143.001,445.115,122.144,419.437,122.144z M63.105,168.659c0-16.218,13.211-29.438,29.457-29.438h50.153
		c6.214,0,8.314-2.778,9.65-5.784c2.406-5.422,4.067-9.393,5.661-13.23c0.878-2.119,1.756-4.19,2.73-6.491
		c0.191-0.439,0.391-0.954,0.611-1.527c1.604-4.095,4.285-10.939,10.567-10.939h168.802c5.508,0,7.254,4.048,8.8,7.608l0.296,0.687
		c1.04,2.348,2.606,5.889,4.228,9.526c2.701,6.081,5.498,12.352,6.328,14.357c1.442,3.455,4.754,5.784,8.238,5.784h50.801
		c16.246,0,29.458,13.221,29.458,29.438v212.645c0,16.217-13.211,29.428-29.458,29.428H92.553
		c-16.246,0-29.457-13.211-29.457-29.428l0-212.635H63.105z"/>
	<path fill="#040000" stroke="#000000" stroke-width="5" stroke-miterlimit="10" d="M256,370.536
		c52.634,0,95.454-42.821,95.454-95.455c0-52.633-42.821-95.454-95.454-95.454s-95.455,42.822-95.455,95.454
		C160.545,327.716,203.366,370.536,256,370.536z M256,196.179c43.498,0,78.884,35.395,78.884,78.903
		c0,43.499-35.395,78.893-78.884,78.893s-78.884-35.394-78.884-78.893C177.116,231.574,212.501,196.179,256,196.179z"/>
	<path fill="#040000" stroke="#000000" stroke-width="5" stroke-miterlimit="10" d="M379.098,196.694h21.344
		c4.715,0,8.552-3.819,8.552-8.543c0-4.697-3.837-8.534-8.552-8.534h-21.344c-4.715,0-8.552,3.828-8.552,8.534
		C370.545,192.876,374.383,196.694,379.098,196.694z"/>
</g>
</svg>
