<?xml version="1.0" encoding="utf-8"?>
<!-- Generator: Adobe Illustrator 19.1.0, SVG Export Plug-In . SVG Version: 6.00 Build 0)  -->
<svg version="1.1" id="图层_9" xmlns="http://www.w3.org/2000/svg" xmlns:xlink="http://www.w3.org/1999/xlink" x="0px" y="0px"
	 viewBox="0 0 512 512" enable-background="new 0 0 512 512" xml:space="preserve">
<g>
	<g>
		<path fill="#040000" d="M88.839,430.299c-9.69,0-17.546-7.855-17.546-17.545v-67.283c0-9.69,7.855-17.545,17.546-17.545
			s17.546,7.855,17.546,17.545v67.283C106.385,422.443,98.529,430.299,88.839,430.299z"/>
	</g>
	<g>
		<g>
			<path fill="#040000" d="M256.08,446.731l-129.154-68.847V245.955l-81.297-43.041c-6.665-3.528-10.737-10.405-10.627-17.946
				c0.11-7.543,4.383-14.299,11.149-17.632l200.24-98.538c5.57-2.748,11.982-2.761,17.582-0.03l201.811,98.537
				c6.801,3.316,11.1,10.081,11.214,17.651c0.113,7.572-3.982,14.464-10.688,17.986l-81.936,43.041v131.878L256.08,446.731z
				 M148.926,364.681l107.117,57.1l106.332-57.078V257.541l-97.873,51.413c-5.83,3.062-12.791,3.054-18.623-0.021l-96.953-51.33
				V364.681z M59.424,185.325l195.791,103.657l197.33-103.657L255.216,88.976L59.424,185.325z"/>
		</g>
		<g>
			<path fill="#040000" d="M88.716,408.867c-6.075,0-11-4.925-11-11V240.438l173.786-79.144c5.528-2.52,12.052-0.077,14.569,5.452
				s0.077,12.052-5.452,14.57L99.716,254.593v143.274C99.716,403.942,94.791,408.867,88.716,408.867z"/>
		</g>
	</g>
</g>
</svg>
