<?xml version="1.0" encoding="utf-8"?>
<!-- Generator: Adobe Illustrator 19.1.0, SVG Export Plug-In . SVG Version: 6.00 Build 0)  -->
<svg version="1.1" id="图层_9" xmlns="http://www.w3.org/2000/svg" xmlns:xlink="http://www.w3.org/1999/xlink" x="0px" y="0px"
	 viewBox="0 0 512 512" enable-background="new 0 0 512 512" xml:space="preserve">
<g>
	<g id="XMLID_143_">
		<path d="M181.575,487.192c-10.127,0-17.743-6.996-21.537-10.481c-5.243-4.814-7.951-10.1-8.049-15.707
			c-0.162-9.263,6.665-15.988,12.688-21.921c0.583-0.575,1.17-1.153,1.753-1.735c9.343-9.343,18.828-19.188,28.188-29.259
			c3.632-3.909,4.233-5.752,4.332-6.237c-0.057-0.083-0.155-0.212-0.317-0.384c-0.125-0.133-0.229-0.229-0.307-0.295
			c-0.59,0.166-2.389,0.894-5.672,4.022l-2.915,2.773c-8.647,8.22-17.589,16.721-25.318,25.655
			c-6.058,7.008-13.547,14.226-23.15,14.611c-6.721,0.272-13.267-2.817-19.996-9.442c-6.562-6.455-9.675-12.854-9.513-19.56
			c0.232-9.621,7.179-17.119,14.651-23.788c7.221-6.449,14.108-13.888,20.77-21.082c1.057-1.142,2.113-2.282,3.171-3.419
			c0.427-0.46,0.866-0.928,1.308-1.398c2.003-2.133,5.627-5.991,6.279-7.867c-0.129-0.156-0.34-0.384-0.671-0.675
			c-0.162-0.143-0.286-0.234-0.372-0.292c-1.985,0.483-6.423,4.859-8.354,6.764c-2.197,2.167-4.416,4.319-6.637,6.474
			c-7.338,7.119-14.927,14.48-21.429,22.187c-6.638,7.867-12.854,11.723-19.562,12.136c-9.096,0.548-15.769-5.601-21.113-10.552
			c-4.199-3.892-9.772-10.036-9.723-18.447c0.053-9.062,6.737-16.155,11.76-20.703c8.166-7.391,15.981-15.771,23.539-23.875
			c2.193-2.352,4.386-4.702,6.591-7.036c3.938-4.161,4.602-6.047,4.714-6.579c-0.045-0.065-0.115-0.157-0.219-0.275
			c-0.239-0.27-0.426-0.441-0.554-0.547c-0.714,0.217-2.733,1.183-7.085,5.455c-10.155,9.974-20.656,20.287-30.616,30.916
			c-5.477,5.837-12.022,12.051-20.508,12.052c-0.053,0-0.104,0-0.157-0.001c-5.334-0.048-10.264-2.532-14.653-7.383
			c-0.677-0.747-1.384-1.491-2.092-2.238c-6.213-6.551-19.141-20.181-1.992-38.417c4.393-4.674,10.816-11.522,18.437-19.646
			c28.698-30.595,76.729-81.799,93.989-99.671c5.621-5.819,11.152-8.673,16.911-8.725c0.053-0.001,0.106-0.001,0.159-0.001
			c8.098,0,13.743,5.635,17.486,9.371c15.713,15.694,31.873,31.495,47.5,46.775c5.261,5.145,10.523,10.29,15.779,15.44
			c6.272,6.142,12.518,12.317,18.763,18.492c13.973,13.816,28.421,28.103,42.944,41.742h0c5.005,4.701,10.128,10.602,10.179,18.713
			c0.055,8.825-6.095,15.774-10.726,20.233c-13.317,12.822-46.935,48.855-73.946,77.81c-13.812,14.805-25.739,27.59-32.387,34.521
			C195.651,484.293,188.092,487.192,181.575,487.192z M169.986,460.702c0.008,0,0.256,0.941,2.228,2.752
			c2.55,2.342,6.256,5.485,9.002,5.751c3.009,0.302,6.925-3.086,9.689-5.969c6.562-6.841,18.451-19.584,32.216-34.34
			c27.159-29.11,60.958-65.34,74.623-78.497c5.165-4.973,5.211-7.067,5.21-7.154c-0.001-0.248-0.226-1.688-4.502-5.704l0,0
			c-14.692-13.798-29.225-28.167-43.278-42.063c-6.225-6.155-12.449-12.31-18.704-18.434c-5.254-5.148-10.51-10.289-15.767-15.429
			c-15.661-15.313-31.855-31.148-47.634-46.907c-1.01-1.008-3.633-3.627-4.795-4.082c-0.377,0.13-1.702,0.726-4.096,3.203
			c-17.167,17.776-65.143,68.922-93.807,99.48c-7.625,8.129-14.053,14.981-18.45,19.66c-1.245,1.323-4.083,4.603-3.586,6.499
			c0.498,1.903,3.168,4.718,5.524,7.202c0.804,0.848,1.605,1.693,2.377,2.546c0.783,0.865,1.314,1.25,1.573,1.407
			c0.846-0.295,2.819-1.565,7.27-6.309c10.211-10.897,20.849-21.344,31.136-31.446c5.533-5.433,12.298-10.991,20.513-10.659
			c3.442,0.119,8.528,1.372,13.213,6.66c5.423,6.125,8.975,16.5-4.891,31.155c-2.175,2.301-4.34,4.623-6.507,6.946
			c-7.813,8.378-15.893,17.041-24.623,24.942c-5.761,5.216-5.84,7.375-5.84,7.464c0,0.06,0.036,1.505,3.957,5.139
			c2.035,1.885,6.25,5.79,7.727,5.79c0.017,0,0.032-0.001,0.048-0.002c0.088-0.005,2.201-0.196,6.91-5.776
			c7.082-8.393,14.998-16.072,22.653-23.499c2.185-2.119,4.369-4.237,6.531-6.37c3.359-3.312,7.539-7.434,12.484-9.854
			c7.339-3.592,14.711-2.642,20.76,2.673c5.369,4.712,6.692,9.753,6.856,13.15c0.427,8.839-6.031,15.715-11.221,21.24
			c-0.419,0.445-0.835,0.889-1.244,1.329c-1.053,1.132-2.101,2.263-3.148,3.395c-6.946,7.502-14.129,15.259-21.989,22.279
			c-7.083,6.321-8.61,9.36-8.645,10.797c-0.016,0.651,0.356,2.569,4.143,6.293c4.012,3.949,5.992,4.34,6.647,4.288
			c1.159-0.047,4.034-1.2,10.258-8.399c8.306-9.602,17.571-18.41,26.531-26.928l2.898-2.758c6.547-6.239,12.692-9.189,18.753-9.033
			c3.318,0.088,8.221,1.197,12.738,5.984c4.896,5.192,6.43,11.723,4.321,18.39c-1.296,4.1-3.916,8.179-8.245,12.837
			c-9.51,10.231-19.148,20.235-28.648,29.735c-0.616,0.615-1.233,1.224-1.847,1.828
			C174.795,454.382,170.118,458.989,169.986,460.702C169.986,460.702,169.986,460.702,169.986,460.702z"/>
	</g>
	<g id="XMLID_139_">
		<path d="M328.792,331.966L176.945,183.21l24.347-24.985c7.194-7.315,19.324-3.891,46.076,4.545l0.939,0.297
			c19.857,6.524,40.391,13.271,56.2,6.563l0.126-0.053c16.37-6.681,23.561-22.244,34.445-45.804l1.191-2.586
			c9.834-21.391,22.073-48.012,46.577-73.03c28.838-29.261,54.422-25.315,64.085-22.262l0.154,0.05
			c13.805,4.611,24.4,15.008,29.067,28.523c3.371,9.5,8.171,34.977-20.603,64.569c-25.562,26.096-53.709,39.599-74.261,49.458
			c-24.896,11.965-39.294,19.517-45.642,35.52c-5.504,14.222-0.748,31.206,5.273,49.285l0.09-0.001l2.357,6.84
			c9.438,27.393,12.633,39.27,6.114,46.519l-0.279,0.297L328.792,331.966z M205.19,182.882l123.285,120.775l8.371-8.577
			c-0.538-4.541-3.596-14.222-6.058-21.584l-0.16,0.002l-2.705-8.001c-7.686-22.718-15.632-46.21-6.897-68.778
			c9.57-24.126,30.903-34.38,55.606-46.252c20.289-9.733,45.531-21.843,68.605-45.398c14.51-14.922,20.515-31.377,16.039-43.992
			c-2.68-7.76-8.509-13.458-16.447-16.134c-12.8-4.002-29.134,2.437-43.716,17.231c-22.05,22.514-33.484,47.384-42.671,67.368
			l-1.207,2.62c-11.462,24.809-21.363,46.237-44.983,55.907c-22.687,9.59-47.889,1.323-70.132-5.984l-0.766-0.241
			c-8.505-2.682-22.15-6.984-27.761-7.586L205.19,182.882z"/>
	</g>
</g>
</svg>
