<?xml version="1.0" encoding="utf-8"?>
<!-- Generator: Adobe Illustrator 19.0.0, SVG Export Plug-In . SVG Version: 6.00 Build 0)  -->
<svg version="1.1" id="Layer_1" xmlns="http://www.w3.org/2000/svg" xmlns:xlink="http://www.w3.org/1999/xlink" x="0px" y="0px"
	 viewBox="0 0 512 512" style="enable-background:new 0 0 512 512;" xml:space="preserve">
<style type="text/css">
	.st0{fill:#DE00A5;}
</style>
<path class="st0" d="M260.3,126.6c0.7,0.9,1.2,2.1,1.2,3.4v255.6c0,3-2.5,5.5-5.5,5.5c-3,0-5.5-2.5-5.5-5.5V130
	c0-1.3,0.4-2.5,1.2-3.4C168.3,46.9,46,132,46,132v313.5c0,0,103.6-61.4,160.1-13.8l14.8,33.7h70.1l14.8-33.7
	c56.5-47.6,160.1,13.8,160.1,13.8V132C466,132,343.7,46.9,260.3,126.6z"/>
</svg>
