<?xml version="1.0" encoding="utf-8"?>
<!-- Generator: Adobe Illustrator 19.1.0, SVG Export Plug-In . SVG Version: 6.00 Build 0)  -->
<svg version="1.1" id="图层_9" xmlns="http://www.w3.org/2000/svg" xmlns:xlink="http://www.w3.org/1999/xlink" x="0px" y="0px"
	 viewBox="0 0 512 512" enable-background="new 0 0 512 512" xml:space="preserve">
<g>
	<g id="XMLID_48_">
		<path d="M256,477c-59.031,0-114.529-22.986-156.27-64.723C57.988,370.54,35,315.047,35,256.021S57.988,141.503,99.73,99.765
			C141.471,58.028,196.969,35.042,256,35.042s114.529,22.986,156.27,64.723c41.742,41.738,64.73,97.23,64.73,156.256
			c0,47.88-15.063,93.439-43.561,131.752c-3.625,4.875-10.516,5.888-15.391,2.261c-4.875-3.626-5.887-10.517-2.261-15.391
			C441.44,340.155,455,299.136,455,256.021c0-109.717-89.271-198.979-199-198.979S57,146.304,57,256.021S146.271,455,256,455
			c25.972,0,51.224-4.924,75.056-14.635c5.625-2.294,12.044,0.41,14.337,6.036s-0.41,12.045-6.036,14.337
			C312.878,471.529,284.832,477,256,477z"/>
	</g>
	<g id="XMLID_47_">
		<path d="M256,426.748c-94.148,0-170.743-76.588-170.743-170.727S161.852,85.294,256,85.294s170.743,76.587,170.743,170.727
			S350.148,426.748,256,426.748z M256,108.626c-81.283,0-147.411,66.121-147.411,147.395c0,81.274,66.128,147.395,147.411,147.395
			c81.282,0,147.411-66.121,147.411-147.395C403.411,174.748,337.282,108.626,256,108.626z"/>
	</g>
	<g id="XMLID_46_">
		<path d="M256,96.96l0-50.918c0,0,187.074-8.373,210,209.979h-50.923C415.077,256.021,391.162,95.094,256,96.96z"/>
	</g>
</g>
</svg>
