<?xml version="1.0" encoding="utf-8"?>
<!-- Generator: Adobe Illustrator 19.1.0, SVG Export Plug-In . SVG Version: 6.00 Build 0)  -->
<svg version="1.1" id="图层_9" xmlns="http://www.w3.org/2000/svg" xmlns:xlink="http://www.w3.org/1999/xlink" x="0px" y="0px"
	 viewBox="0 0 512 512" enable-background="new 0 0 512 512" xml:space="preserve">
<g>
	<g id="XMLID_3_">
		<path d="M207.953,235.765H101.054c-19.171,0-34.768-15.597-34.768-34.768V94.099c0-19.171,15.597-34.768,34.768-34.768h106.898
			c19.171,0,34.768,15.597,34.768,34.768v106.898C242.72,220.168,227.124,235.765,207.953,235.765z M101.054,81.331
			c-7.04,0-12.768,5.728-12.768,12.768v106.898c0,7.041,5.728,12.768,12.768,12.768h106.898c7.04,0,12.768-5.728,12.768-12.768
			V94.099c0-7.04-5.728-12.768-12.768-12.768H101.054z"/>
	</g>
	<g id="XMLID_7_">
		<path d="M425.771,235.765H318.872c-19.171,0-34.768-15.597-34.768-34.768V94.099c0-19.171,15.597-34.768,34.768-34.768h106.899
			c19.171,0,34.768,15.597,34.768,34.768v106.898C460.538,220.168,444.941,235.765,425.771,235.765z M318.872,81.331
			c-7.04,0-12.768,5.728-12.768,12.768v106.898c0,7.041,5.728,12.768,12.768,12.768h106.899c7.04,0,12.768-5.728,12.768-12.768
			V94.099c0-7.04-5.728-12.768-12.768-12.768H318.872z"/>
	</g>
	<g id="XMLID_9_">
		<path d="M207.953,437.298H101.054c-19.171,0-34.768-15.597-34.768-34.768V295.632c0-19.171,15.597-34.768,34.768-34.768h106.898
			c19.171,0,34.768,15.597,34.768,34.768V402.53C242.72,421.702,227.124,437.298,207.953,437.298z M101.054,282.864
			c-7.04,0-12.768,5.728-12.768,12.768V402.53c0,7.041,5.728,12.768,12.768,12.768h106.898c7.04,0,12.768-5.728,12.768-12.768
			V295.632c0-7.04-5.728-12.768-12.768-12.768H101.054z"/>
	</g>
	<g id="XMLID_8_">
		<path d="M425.771,437.298H318.872c-19.171,0-34.768-15.597-34.768-34.768V295.632c0-19.171,15.597-34.768,34.768-34.768h106.899
			c19.171,0,34.768,15.597,34.768,34.768V402.53C460.538,421.702,444.941,437.298,425.771,437.298z M318.872,282.864
			c-7.04,0-12.768,5.728-12.768,12.768V402.53c0,7.041,5.728,12.768,12.768,12.768h106.899c7.04,0,12.768-5.728,12.768-12.768
			V295.632c0-7.04-5.728-12.768-12.768-12.768H318.872z"/>
	</g>
</g>
</svg>
