<?xml version="1.0" encoding="utf-8"?>
<!-- Generator: Adobe Illustrator 19.1.0, SVG Export Plug-In . SVG Version: 6.00 Build 0)  -->
<svg version="1.1" id="图层_9" xmlns="http://www.w3.org/2000/svg" xmlns:xlink="http://www.w3.org/1999/xlink" x="0px" y="0px"
	 viewBox="0 0 512 512" enable-background="new 0 0 512 512" xml:space="preserve">
<g>
	<g id="XMLID_57_">
		<path d="M291.051,452.737h-70.103c-4.073,0-7.761-2.408-9.399-6.137l-13.827-31.472c-25.7-20.029-62.983-15.211-90.033-7.494
			c-31.328,8.938-56.205,23.579-56.453,23.726c-3.173,1.882-7.112,1.917-10.318,0.09c-3.206-1.826-5.185-5.231-5.185-8.921V109.046
			c0-3.359,1.644-6.506,4.4-8.426c1.365-0.95,33.926-23.401,77.536-34.847c54.809-14.385,102.367-4.75,138.33,27.829
			c35.963-32.578,83.519-42.213,138.33-27.829c43.61,11.446,76.171,33.897,77.536,34.847c2.757,1.919,4.4,5.066,4.4,8.426V422.53
			c0,3.689-1.979,7.095-5.185,8.921c-3.206,1.825-7.144,1.792-10.318-0.09c-0.958-0.566-95.774-55.82-146.484-16.234L300.451,446.6
			C298.812,450.33,295.125,452.737,291.051,452.737z M227.652,432.204h56.696l12.13-27.609c0.631-1.436,1.583-2.708,2.782-3.72
			c48.192-40.633,123.972-11.188,156.474,4.624V114.627c-9.946-6.191-35.748-20.98-67.138-29.13
			c-49.53-12.858-90.377-4.161-121.519,25.848c-0.139,0.604-0.333,1.2-0.586,1.782c-1.626,3.755-5.328,6.185-9.42,6.185h-2.14
			c-4.092,0-7.794-2.43-9.42-6.185c-0.252-0.582-0.447-1.179-0.586-1.782c-31.142-30.008-71.99-38.707-121.519-25.848
			c-31.388,8.149-57.187,22.936-67.138,29.13v290.871c32.5-15.812,108.28-45.257,156.474-4.624c1.199,1.011,2.151,2.284,2.782,3.72
			L227.652,432.204z"/>
	</g>
	<g id="XMLID_56_">
		<path d="M257.07,374.938c-5.67,0-10.267-4.597-10.267-10.267V109.046c0-5.67,4.597-10.267,10.267-10.267
			s10.267,4.597,10.267,10.267v255.626C267.336,370.342,262.74,374.938,257.07,374.938z"/>
	</g>
</g>
</svg>
