<?xml version="1.0" encoding="utf-8"?>
<!-- Generator: Adobe Illustrator 19.0.0, SVG Export Plug-In . SVG Version: 6.00 Build 0)  -->
<svg version="1.1" id="Layer_1" xmlns="http://www.w3.org/2000/svg" xmlns:xlink="http://www.w3.org/1999/xlink" x="0px" y="0px"
	 viewBox="-243 245 512 512" style="enable-background:new -243 245 512 512;" xml:space="preserve">
<g>
	<path d="M172.9,501.2L172.9,501.2c0-79.9-29.9-155.7-84.1-213.9l-9.5-10.2l-9.8,9.9l-32,32.3l-9.2,9.3l8.8,9.6
		C78,382.7,100.6,440.5,100.6,501S78,619.4,37.1,663.8l-8.8,9.6l9.2,9.3l32,32.3l9.8,9.9l9.5-10.2
		C143,656.7,172.9,580.8,172.9,501.2z"/>
	<path d="M12.5,642.5c35.1-38.8,54.4-88.9,54.4-141.1v-0.1V501v-8.5l-0.2-0.1c-2-49.2-21.1-96-54.2-132.6L3,349.3l-10,10.1
		l-32.4,32.7l-9,9.1l8.4,9.6c22.2,25.3,34.5,57.4,34.5,90.3c0,33.1-12.3,65.2-34.5,90.5l-8.4,9.6l9,9.1L-7,643l10,10.1L12.5,642.5z"
		/>
	<path d="M-147.1,501.3l9.5,9.6l52.2,52.8l10.5,10.6l9.5-11.6c11.4-15.4,20-32.4,20-61.5c0-29-9.4-44.9-20-61.5l-9.5-11.5
		l-10.5,10.6l-52.2,52.8L-147.1,501.3z"/>
</g>
</svg>
