<?xml version="1.0" encoding="utf-8"?>
<!-- Generator: Adobe Illustrator 19.1.0, SVG Export Plug-In . SVG Version: 6.00 Build 0)  -->
<svg version="1.1" id="图层_9" xmlns="http://www.w3.org/2000/svg" xmlns:xlink="http://www.w3.org/1999/xlink" x="0px" y="0px"
	 viewBox="0 0 512 512" enable-background="new 0 0 512 512" xml:space="preserve">
<g>
	<g id="XMLID_145_">
		<path d="M97.798,477c-6.075,0-11-4.925-11-11V46c0-6.075,4.925-11,11-11s11,4.925,11,11v420
			C108.798,472.075,103.874,477,97.798,477z"/>
	</g>
	<g id="XMLID_150_">
		<path d="M100.86,278.594c-6.033,0-10.948-4.865-10.998-10.909c-0.05-6.075,4.834-11.04,10.909-11.091l289.247-2.381
			l-79.088-89.731c-3.837-4.354-3.632-10.94,0.47-15.047l76.027-76.115L100.96,75.878c-6.052,0.04-11.043-4.827-11.098-10.901
			c-0.054-6.075,4.827-11.044,10.901-11.099l313.339-2.798c4.45-0.07,8.512,2.624,10.241,6.742s0.796,8.872-2.36,12.031
			l-87.724,87.825l88.193,100.062c2.848,3.231,3.548,7.827,1.791,11.76c-1.756,3.933-5.646,6.478-9.953,6.514l-313.339,2.579
			C100.922,278.594,100.891,278.594,100.86,278.594z"/>
	</g>
</g>
</svg>
