<?xml version="1.0" encoding="utf-8"?>
<!-- Generator: Adobe Illustrator 19.1.0, SVG Export Plug-In . SVG Version: 6.00 Build 0)  -->
<svg version="1.1" xmlns="http://www.w3.org/2000/svg" xmlns:xlink="http://www.w3.org/1999/xlink" x="0px" y="0px"
	 viewBox="15.167 -16.333 1000.636 1000.678" enable-background="new 15.167 -16.333 1000.636 1000.678" xml:space="preserve">
<g id="机构" display="none">
	<g display="inline">
		
			<line fill="none" stroke="#4A4D55" stroke-width="78.7001" stroke-linecap="round" stroke-linejoin="round" stroke-miterlimit="10" x1="140.586" y1="835.564" x2="140.586" y2="684.666"/>
		<g>
			<path fill="none" stroke="#4A4D55" stroke-width="50" stroke-miterlimit="10" d="M975.685,343.174L523.081,580.927
				c-5.873,3.084-12.912,3.069-18.785-0.029L55.218,343.145c-14.52-7.688-14.21-28.598,0.531-35.858l449.078-220.99
				c5.593-2.759,12.13-2.759,17.723-0.03l452.604,220.99C989.984,314.488,990.294,335.501,975.685,343.174z M250.674,446.619
				v295.937l264.949,141.232l263.104-141.232V446.633"/>
			<polyline fill="none" stroke="#4A4D55" stroke-width="50" stroke-miterlimit="10" points="515.62,294.055 140.309,464.977 
				140.309,860.563 			"/>
		</g>
	</g>
</g>
<g id="分享" display="none">
	<g display="inline">
		
			<line fill="#494C54" stroke="#494C54" stroke-width="50" stroke-linecap="round" stroke-miterlimit="10" x1="515.485" y1="600.561" x2="515.485" y2="40.262"/>
		<polyline fill="none" stroke="#494C54" stroke-width="50" stroke-linecap="round" stroke-miterlimit="10" points="
			376.357,172.551 515.485,33.424 654.612,172.551 		"/>
		<path fill="none" stroke="#494C54" stroke-width="50" stroke-linecap="round" stroke-miterlimit="10" d="M373.502,298.671H212.666
			c-23.278,0-42.148,18.87-42.148,42.148V892.44c0,23.278,18.87,42.148,42.148,42.148h605.637c23.278,0,42.148-18.87,42.148-42.148
			V340.819c0-23.278-18.87-42.148-42.148-42.148H657.468"/>
	</g>
</g>
<g id="日历" display="none">
	<path display="inline" stroke="#000000" stroke-width="14" stroke-miterlimit="10" d="M676.501,544.384h80.508v-40.253h-80.508
		V544.384z M475.231,544.384h80.509v-40.253h-80.509V544.384z M273.959,544.384h80.509v-40.253h-80.509V544.384z M676.501,745.648
		h80.508v-40.253h-80.508V745.648z M475.231,745.648h80.509v-40.253h-80.509V745.648z M273.959,745.648h80.509v-40.253h-80.509
		V745.648z M676.501,343.122h80.508v-40.253h-80.508V343.122z M475.231,343.122h80.509v-40.253h-80.509V343.122z M273.959,343.122
		h80.509v-40.253h-80.509V343.122z M885.832,850.308c0,24.292-39.744,64.407-64.431,64.407H209.568
		c-24.687,0-64.43-40.116-64.43-64.407V238.462c0-24.294,39.743-64.408,64.43-64.408h24.137v48.311h40.253v-48.311h483.05v48.311
		h40.255v-48.311h24.137c24.687,0,64.431,40.115,64.431,64.408L885.832,850.308L885.832,850.308z M821.401,141.86h-24.137V21.102
		H757.01V141.86H273.959V21.102h-40.253V141.86h-24.137c-49.374,0-96.625,47.997-96.625,96.602v611.845
		c0,48.605,47.252,96.602,96.625,96.602h611.832c49.336,0,96.626-47.997,96.626-96.602V238.462
		C918.027,189.856,870.737,141.86,821.401,141.86z"/>
</g>
<g id="时间" display="none">
	<g display="inline">
		<circle fill="none" stroke="#000000" stroke-width="50" stroke-miterlimit="10" cx="539.121" cy="518.404" r="424.219"/>
		<path fill="none" stroke="#000000" stroke-width="50" stroke-linecap="round" stroke-miterlimit="10" d="M67.531,223.384
			c54.297-86.977,133.262-159.977,232.728-207.277"/>
		
			<polyline fill="none" stroke="#000000" stroke-width="50" stroke-linecap="round" stroke-linejoin="round" stroke-miterlimit="10" points="
			480.143,277.338 480.143,574.292 767.669,574.292 		"/>
	</g>
</g>
<g id="学费" display="none">
	<path display="inline" stroke="#000000" stroke-width="8" stroke-miterlimit="10" d="M486.814,570.093
		c152.931,0,276.91-124.091,276.91-277.19s-123.979-277.19-276.91-277.19c-152.93,0-276.91,124.092-276.91,277.191
		S333.885,570.093,486.814,570.093z M486.814,53.943c131.95,0,238.925,106.993,238.925,238.924
		c0,131.969-106.975,238.925-238.925,238.925c-131.949,0-238.924-106.957-238.924-238.925
		C247.89,160.936,354.865,53.943,486.814,53.943z M754.41,550.905c-110.839,0-200.697,89.858-200.697,200.696
		s89.858,200.697,200.697,200.697c110.838,0,200.696-89.859,200.696-200.697S865.248,550.905,754.41,550.905z M754.41,914.07
		c-89.728,0-162.469-72.723-162.469-162.468c0-89.708,72.741-162.468,162.469-162.468c89.727,0,162.468,72.76,162.468,162.468
		C916.879,841.347,844.137,914.07,754.41,914.07z M585.576,589.674H330.71c-140.742,0-254.847,111.716-254.847,249.546v74.85h38.228
		v-76.455c0,0-5.19-198.12,210.254-210.254h229.368C553.713,627.36,565.119,605.223,585.576,589.674z M829.018,646.512
		c-6.87,0-12.002,3.173-15.419,9.463l-59.078,93.162l-59.079-93.162c-3.435-6.29-8.568-9.463-15.418-9.463
		c-6.851,0.933-10.715,4.966-11.555,12.169c0.84,3.602,2.128,7.206,3.845,10.789c0.859,0.915,1.288,1.83,1.288,2.726l52.657,85.042
		h-30.819c-9.426,0-14.129,4.069-14.129,12.169c0.839,6.31,5.561,9.912,14.129,10.79h44.948v24.303h-44.948
		c-9.426,0-14.129,4.07-14.129,12.171c0.839,6.309,5.561,9.911,14.129,10.789h44.948v54.019c0,8.997,4.704,13.514,14.13,13.514
		c9.408,0,14.129-4.517,14.129-13.514v-54.019h44.948c8.548-0.877,13.272-4.48,14.13-10.789c0-8.102-4.723-12.171-14.13-12.171
		h-44.948v-24.3h44.948c8.548-0.877,13.272-4.48,14.13-10.79c0-8.102-4.723-12.169-14.13-12.169h-30.818l52.656-85.042
		c0-0.896,0.411-1.811,1.288-2.726c2.557-5.376,3.845-8.996,3.845-10.789C839.713,651.477,835.85,647.445,829.018,646.512z"/>
</g>
<g id="人数" display="none">
	<line display="inline" fill="none" x1="845.53" y1="456.526" x2="845.53" y2="453.742"/>
	<g display="inline">
		<circle fill="none" stroke="#000000" stroke-width="50" stroke-miterlimit="10" cx="407.841" cy="312.559" r="178.818"/>
		<path fill="none" stroke="#000000" stroke-width="50" stroke-linecap="round" stroke-miterlimit="10" d="M75.943,827.394
			c0-183.302,148.596-331.898,331.898-331.898s331.898,148.596,331.898,331.898"/>
	</g>
	<g display="inline">
		<path fill="none" stroke="#000000" stroke-width="50" stroke-linecap="round" stroke-miterlimit="10" d="M616.612,133.74
			c98.759,0,178.818,80.06,178.818,178.818s-80.06,178.818-178.818,178.818"/>
		<path fill="none" stroke="#000000" stroke-width="50" stroke-linecap="round" stroke-miterlimit="10" d="M616.612,495.496
			c163.727,0,299.764,118.553,326.953,274.498"/>
	</g>
</g>
<g id="图层_7">
	<g>
		<g>
			<circle cx="206.5" cy="484.006" r="60"/>
		</g>
		<g>
			<circle cx="515.485" cy="484.006" r="60"/>
		</g>
		<g>
			<circle cx="824.469" cy="484.006" r="60"/>
		</g>
	</g>
</g>
</svg>
