<?xml version="1.0" encoding="utf-8"?>
<!-- Generator: Adobe Illustrator 19.0.0, SVG Export Plug-In . SVG Version: 6.00 Build 0)  -->
<svg version="1.1" id="图层_1" xmlns="http://www.w3.org/2000/svg" xmlns:xlink="http://www.w3.org/1999/xlink" x="0px" y="0px"
	 viewBox="0 0 512 512" style="enable-background:new 0 0 512 512;" xml:space="preserve">
<style type="text/css">
	.st0{fill:#040000;}
</style>
<g id="XMLID_2_">
	<g id="XMLID_3_">
		<g id="XMLID_4_">
			<path id="XMLID_5_" class="st0" d="M265.2,48c-114.9,0-208,93.1-208,208s93.1,208,208,208s208-93.1,208-208S380.1,48,265.2,48z
				 M265.2,446.7c-105.1,0-190.7-85.5-190.7-190.7S160.1,65.3,265.2,65.3S455.9,150.9,455.9,256S370.3,446.7,265.2,446.7z"/>
		</g>
	</g>
</g>
<g>
	<rect x="243.3" y="166.5" width="46.3" height="46.3"/>
	<rect x="167.4" y="166.5" width="46.3" height="46.3"/>
	<rect x="167.4" y="240.1" width="46.3" height="46.3"/>
	<rect x="243.3" y="240.1" width="46.3" height="46.3"/>
	<rect x="319.3" y="240.1" width="46.3" height="46.3"/>
	<rect x="319.3" y="166.5" width="46.3" height="46.3"/>
	<rect x="167.4" y="318.1" width="198.3" height="32.3"/>
</g>
</svg>
