<?xml version="1.0" encoding="utf-8"?>
<!-- Generator: Adobe Illustrator 19.1.0, SVG Export Plug-In . SVG Version: 6.00 Build 0)  -->
<svg version="1.1" id="图层_9" xmlns="http://www.w3.org/2000/svg" xmlns:xlink="http://www.w3.org/1999/xlink" x="0px" y="0px"
	 viewBox="0 0 512 512" enable-background="new 0 0 512 512" xml:space="preserve">
<g id="XMLID_34_">
	<g>
		<path d="M464.159,476.746H46c-6.443,0-11.667-5.223-11.667-11.667V46.92c0-6.443,5.223-11.667,11.667-11.667h420
			c6.443,0,11.667,5.223,11.667,11.667v66.561c0,6.443-5.223,11.667-11.667,11.667s-11.667-5.223-11.667-11.667V58.587H57.667
			v394.826h394.826V229.912L255.741,379.597c-2.523,1.92-5.721,2.729-8.852,2.244c-3.133-0.486-5.933-2.226-7.756-4.82
			L146.22,244.845c-3.706-5.271-2.436-12.548,2.835-16.254c5.273-3.705,12.548-2.436,16.254,2.835l85.946,122.265l205.841-156.6
			c3.529-2.684,8.273-3.137,12.246-1.167c3.972,1.969,6.485,6.019,6.485,10.453V465.08
			C475.826,471.523,470.603,476.746,464.159,476.746z"/>
	</g>
</g>
</svg>
