<?xml version="1.0" encoding="utf-8"?>
<!-- Generator: Adobe Illustrator 19.1.0, SVG Export Plug-In . SVG Version: 6.00 Build 0)  -->
<svg version="1.1" id="图层_9" xmlns="http://www.w3.org/2000/svg" xmlns:xlink="http://www.w3.org/1999/xlink" x="0px" y="0px"
	 viewBox="0 0 512 512" enable-background="new 0 0 512 512" xml:space="preserve">
<g>
	
		<path id="XMLID_90_" fill="none" stroke="#000000" stroke-width="22" stroke-linecap="round" stroke-linejoin="round" stroke-miterlimit="10" d="
		M330.675,79.421h50.544c9.873,0,19.278,2.001,27.833,5.619c8.555,3.618,16.259,8.854,22.729,15.324
		c6.47,6.47,11.706,14.174,15.324,22.729c3.618,8.555,5.619,17.96,5.619,27.833v242.615c0,9.873-2.001,19.278-5.619,27.833
		c-3.618,8.555-8.854,16.259-15.324,22.729c-6.47,6.47-14.174,11.706-22.729,15.324c-8.555,3.618-17.96,5.619-27.833,5.619h-60.654
		h-60.654h-60.654h-60.654c-9.873,0-19.278-2.001-27.833-5.619c-8.555-3.618-16.259-8.854-22.729-15.324
		c-6.47-6.47-11.706-14.174-15.324-22.729c-3.618-8.555-5.619-17.96-5.619-27.833V150.927c0-9.873,2.001-19.278,5.619-27.833
		c3.618-8.555,8.854-16.259,15.324-22.729c6.47-6.47,14.174-11.706,22.729-15.324c8.555-3.618,17.96-5.619,27.833-5.619h50.544"/>
	
		<polyline id="XMLID_94_" fill="none" stroke="#000000" stroke-width="22" stroke-linecap="round" stroke-linejoin="round" stroke-miterlimit="10" points="
		153.761,286.163 258.576,370.346 258.576,45.048 	"/>
	
		<line id="XMLID_93_" fill="none" stroke="#000000" stroke-width="22" stroke-linecap="round" stroke-linejoin="round" stroke-miterlimit="10" x1="366.062" y1="286.163" x2="258.576" y2="370.346"/>
</g>
</svg>
