<?xml version="1.0" encoding="utf-8"?>
<!-- Generator: Adobe Illustrator 19.0.0, SVG Export Plug-In . SVG Version: 6.00 Build 0)  -->
<svg version="1.1" id="Layer_1" xmlns="http://www.w3.org/2000/svg" xmlns:xlink="http://www.w3.org/1999/xlink" x="0px" y="0px"
	 viewBox="0 0 512 512" style="enable-background:new 0 0 512 512;" xml:space="preserve">
<g>
	<g>
		<g>
			<path d="M256,48C141.1,48,48,141.1,48,256s93.1,208,208,208s208-93.1,208-208S370.9,48,256,48z M256,446.7
				c-105.1,0-190.7-85.5-190.7-190.7S150.9,65.3,256,65.3S446.7,150.9,446.7,256S361.1,446.7,256,446.7z"/>
		</g>
	</g>
</g>
<g>
	<path d="M343.4,256.1L343.4,256.1c0-50.7-19-98.7-53.3-135.7l-6-6.5l-6.2,6.3l-20.3,20.5l-5.8,5.9l5.6,6.1
		c25.9,28.2,40.3,64.9,40.3,103.2s-14.3,75.1-40.3,103.2l-5.6,6.1l5.8,5.9l20.3,20.5l6.2,6.3l6-6.5
		C324.4,354.7,343.4,306.6,343.4,256.1z"/>
	<path d="M241.6,345.7c22.3-24.6,34.5-56.4,34.5-89.5v-0.1V256v-5.4l-0.1-0.1c-1.3-31.2-13.4-60.9-34.4-84.1l-6-6.7l-6.3,6.4
		l-20.5,20.7l-5.7,5.8l5.3,6.1c14.1,16,21.9,36.4,21.9,57.3c0,21-7.8,41.4-21.9,57.4l-5.3,6.1l5.7,5.8l20.5,20.7l6.3,6.4
		L241.6,345.7z"/>
	<path d="M140.4,256.2l6,6.1l33.1,33.5l6.7,6.7l6-7.4c7.2-9.8,12.7-20.5,12.7-39c0-18.4-6-28.5-12.7-39l-6-7.3l-6.7,6.7l-33,33.5
		L140.4,256.2z"/>
</g>
</svg>
