<?xml version="1.0" encoding="utf-8"?>
<!-- Generator: Adobe Illustrator 19.0.0, SVG Export Plug-In . SVG Version: 6.00 Build 0)  -->
<svg version="1.1" id="Layer_1" xmlns="http://www.w3.org/2000/svg" xmlns:xlink="http://www.w3.org/1999/xlink" x="0px" y="0px"
	 viewBox="0 0 512 512" style="enable-background:new 0 0 512 512;" xml:space="preserve">
<style type="text/css">
	.st0{stroke:#000000;stroke-width:1.0959;stroke-miterlimit:10;}
</style>
<g id="XMLID_75_">
	<path d="M98.2,448.9c-1.1,0-2.3,0-3.4,0c-4.6-0.1-8.6-3.1-10.1-7.4c-1.5-4.3-0.1-9.2,3.4-12.1c0.3-0.2,25.1-20.9,41.5-51.6
		C102.8,363.2,80.3,344.1,64,322c-19.1-25.9-29.2-55.6-29.2-85.7c0-46.5,23.4-90.1,65.8-122.7c41.6-31.9,96.7-49.5,155.2-49.5
		s113.6,17.6,155.2,49.5c42.4,32.6,65.8,76.1,65.8,122.7s-23.4,90.1-65.8,122.7c-41.6,31.9-96.7,49.5-155.2,49.5
		c-14.4,0-28.9-1.1-43.2-3.3C164.3,440.9,124.4,448.9,98.2,448.9z M255.8,86.2c-109.7,0-199,67.4-199,150.1
		c0,51.5,34.5,98.8,92.3,126.6c5.4,2.6,7.7,8.9,5.3,14.4c-8.4,18.9-19.9,34.8-30,46.7c30.8-6.7,58.8-24,78.6-39.2
		c2.4-1.9,5.5-2.6,8.5-2.1c14.6,2.5,29.5,3.8,44.2,3.8c109.7,0,199-67.4,199-150.1C454.8,153.5,365.5,86.2,255.8,86.2z"/>
</g>
<circle id="XMLID_74_" class="st0" cx="157.5" cy="235.2" r="20"/>
<circle id="XMLID_78_" class="st0" cx="255.9" cy="235.2" r="20"/>
<circle id="XMLID_79_" class="st0" cx="353.1" cy="235.2" r="20"/>
</svg>
