<?xml version="1.0" encoding="utf-8"?>
<!-- Generator: Adobe Illustrator 19.1.0, SVG Export Plug-In . SVG Version: 6.00 Build 0)  -->
<svg version="1.1" id="图层_9" xmlns="http://www.w3.org/2000/svg" xmlns:xlink="http://www.w3.org/1999/xlink" x="0px" y="0px"
	 viewBox="0 0 512 512" enable-background="new 0 0 512 512" xml:space="preserve">
<g>
	
		<path id="XMLID_39_" fill="none" stroke="#000000" stroke-width="22" stroke-linecap="round" stroke-linejoin="round" stroke-miterlimit="10" d="
		M245.386,57.736C135.268,57.736,46,126.236,46,210.735c0,54.661,37.383,102.597,93.572,129.656
		c-16.354,36.793-46.678,61.716-46.678,61.716c42.597,1.144,82.304-21.928,108.709-42.119c14.095,2.424,28.733,3.746,43.782,3.746
		c110.118,0,199.386-68.5,199.386-152.999S355.504,57.736,245.386,57.736z"/>
	
		<path id="XMLID_55_" fill="none" stroke="#000000" stroke-width="22" stroke-linecap="round" stroke-linejoin="round" stroke-miterlimit="10" d="
		M454.529,286.304C461.9,298.927,466,312.92,466,327.648c0,36.157-24.728,67.866-61.896,85.765
		c10.818,24.338,30.876,40.824,30.876,40.824c-28.177,0.757-54.443-14.505-71.909-27.861c-9.324,1.604-19.006,2.478-28.961,2.478
		c-26.666,0-51.484-6.073-72.233-16.514c-15.498-7.799-23.819-12.626-33.852-24.59"/>
</g>
</svg>
