<?xml version="1.0" encoding="utf-8"?>
<!-- Generator: Adobe Illustrator 19.1.0, SVG Export Plug-In . SVG Version: 6.00 Build 0)  -->
<svg version="1.1" id="图层_9" xmlns="http://www.w3.org/2000/svg" xmlns:xlink="http://www.w3.org/1999/xlink" x="0px" y="0px"
	 viewBox="0 0 512 512" enable-background="new 0 0 512 512" xml:space="preserve">
<g>
	
		<path id="XMLID_151_" fill="none" stroke="#000000" stroke-width="22" stroke-linecap="round" stroke-linejoin="round" stroke-miterlimit="10" d="
		M401.115,406.982H309.87L256,466l-61.253-59.018h-83.863c-34.817,0-63.042-28.225-63.042-63.042V109.042
		C47.842,74.225,76.067,46,110.885,46h290.231c34.817,0,63.042,28.225,63.042,63.042V343.94
		C464.158,378.757,435.933,406.982,401.115,406.982z"/>
	<g id="XMLID_129_">
		<path id="XMLID_141_" fill="none" stroke="#000000" stroke-width="22" stroke-miterlimit="10" d="M256,340.74
			c-3.425,0-6.627-1.317-9.019-3.709l-77.557-74.822c-0.11-0.088-29.896-26.386-29.896-59.337c0-39.001,24.704-63.23,64.474-63.23
			c21.022,0,40.504,14.373,51.998,24.956c11.494-10.584,30.976-24.956,51.998-24.956c39.77,0,64.474,24.229,64.474,63.23
			c0,28.641-22.807,52.686-29.796,59.374l-77.723,74.851C262.627,339.423,259.425,340.74,256,340.74z"/>
	</g>
</g>
</svg>
