<?xml version="1.0" encoding="utf-8"?>
<!-- Generator: Adobe Illustrator 19.0.0, SVG Export Plug-In . SVG Version: 6.00 Build 0)  -->
<svg version="1.1" id="Layer_1" xmlns="http://www.w3.org/2000/svg" xmlns:xlink="http://www.w3.org/1999/xlink" x="0px" y="0px"
	 viewBox="0 0 512 512" style="enable-background:new 0 0 512 512;" xml:space="preserve">
<path id="XMLID_2_" d="M64.4,208.2c1.3-0.1,2.7-0.3,4-0.3c53.2,0,106.4,0,159.7,0c1.3,0,2.7,0,4.4,0c0-15.1,0-29.9,0-45.6
	c40.6,32.3,80.6,64.1,120.7,95.8c-1,2.3-113.2,89.6-120.4,93.8c0-15.7,0-31.3,0-47.2c-1.7,0-3,0-4.3,0c-53.3,0-106.6,0-160,0
	c-1.3,0-2.7-0.6-4-0.9C64.4,271.9,64.4,240.1,64.4,208.2z"/>
<path id="XMLID_1_" d="M447.2,63.2c0.1,1.2,0.4,2.5,0.4,3.7c0,126.4,0,252.8,0,379.3c0,3.7,0,3.8-3.9,3.8c-101.1,0-202.2,0-303.3,0
	c-3.9,0-3.9,0-3.9-3.9c0-29.6,0-59.3,0-88.9c0-1.1,0-2.3,0-3.6c8.1,0,15.9,0,24,0c0,24.3,0,48.6,0,73.1c87.9,0,175.6,0,263.4,0
	c0-111.7,0-223.3,0-335.5c-3.9,0-7.7,0-11.6,0c-68.9-0.2-137.7-0.4-206.6-0.6c-13.8,0-27.6-0.2-41.4-0.3c-3.7,0-3.7,0-3.7,3.8
	c0,21.4,0,42.8,0.1,64.2c0,2.5-0.5,3.4-3.2,3.3c-5.9-0.2-11.9-0.2-17.8,0c-2.6,0.1-3.2-0.9-3.2-3.3c0.1-31.4,0.1-62.7,0.1-94.1
	c0-0.3,0-0.6-0.1-0.9C240,63.2,343.6,63.2,447.2,63.2z"/>
<path id="XMLID_5_" d="M64.4,208.8c1.3-0.1,2.7-0.3,4-0.3c53.2,0,106.4,0,159.7,0c1.3,0,2.7,0,4.4,0c0-15.1,0-29.9,0-45.6
	c40.6,32.3,80.6,64.1,120.7,95.8c-1,2.3-113.2,89.6-120.4,93.8c0-15.7,0-31.3,0-47.2c-1.7,0-3,0-4.3,0c-53.3,0-106.6,0-160,0
	c-1.3,0-2.7-0.6-4-0.9C64.4,272.5,64.4,240.7,64.4,208.8z"/>
<path id="XMLID_4_" d="M447.2,63.8c0.1,1.2,0.4,2.5,0.4,3.7c0,126.4,0,252.8,0,379.3c0,3.7,0,3.8-3.9,3.8c-101.1,0-202.2,0-303.3,0
	c-3.9,0-3.9,0-3.9-3.9c0-29.6,0-59.3,0-88.9c0-1.1,0-2.3,0-3.6c8.1,0,15.9,0,24,0c0,24.3,0,48.6,0,73.1c87.9,0,175.6,0,263.4,0
	c0-111.7,0-223.3,0-335.5c-3.9,0-7.7,0-11.6,0c-68.9-0.2-137.7-0.4-206.6-0.6c-13.8,0-27.6-0.2-41.4-0.3c-3.7,0-3.7,0-3.7,3.8
	c0,21.4,0,42.8,0.1,64.2c0,2.5-0.5,3.4-3.2,3.3c-5.9-0.2-11.9-0.2-17.8,0c-2.6,0.1-3.2-0.9-3.2-3.3c0.1-31.4,0.1-62.7,0.1-94.1
	c0-0.3,0-0.6-0.1-0.9C240,63.8,343.6,63.8,447.2,63.8z"/>
<path id="XMLID_7_" d="M64.4,209.4c1.3-0.1,2.7-0.3,4-0.3c53.2,0,106.4,0,159.7,0c1.3,0,2.7,0,4.4,0c0-15.1,0-29.9,0-45.6
	c40.6,32.3,80.6,64.1,120.7,95.8c-1,2.3-113.2,89.6-120.4,93.8c0-15.7,0-31.3,0-47.2c-1.7,0-3,0-4.3,0c-53.3,0-106.6,0-160,0
	c-1.3,0-2.7-0.6-4-0.9C64.4,273.1,64.4,241.3,64.4,209.4z"/>
<path id="XMLID_6_" d="M447.2,64.4c0.1,1.2,0.4,2.5,0.4,3.7c0,126.4,0,252.8,0,379.3c0,3.7,0,3.8-3.9,3.8c-101.1,0-202.2,0-303.3,0
	c-3.9,0-3.9,0-3.9-3.9c0-29.6,0-59.3,0-88.9c0-1.1,0-2.3,0-3.6c8.1,0,15.9,0,24,0c0,24.3,0,48.6,0,73.1c87.9,0,175.6,0,263.4,0
	c0-111.7,0-223.3,0-335.5c-3.9,0-7.7,0-11.6,0c-68.9-0.2-137.7-0.4-206.6-0.6c-13.8,0-27.6-0.2-41.4-0.3c-3.7,0-3.7,0-3.7,3.8
	c0,21.4,0,42.8,0.1,64.2c0,2.5-0.5,3.4-3.2,3.3c-5.9-0.2-11.9-0.2-17.8,0c-2.6,0.1-3.2-0.9-3.2-3.3c0.1-31.4,0.1-62.7,0.1-94.1
	c0-0.3,0-0.6-0.1-0.9C240,64.4,343.6,64.4,447.2,64.4z"/>
</svg>
