<?xml version="1.0" encoding="utf-8"?>
<!-- Generator: Adobe Illustrator 19.0.0, SVG Export Plug-In . SVG Version: 6.00 Build 0)  -->
<svg version="1.1" id="图层_9" xmlns="http://www.w3.org/2000/svg" xmlns:xlink="http://www.w3.org/1999/xlink" x="0px" y="0px"
	 viewBox="-243 245 512 512" style="enable-background:new -243 245 512 512;" xml:space="preserve">
<style type="text/css">
	.st0{fill:none;stroke:#000000;stroke-width:22;stroke-miterlimit:10;}
</style>
<g>
	<path id="XMLID_146_" class="st0" d="M192.2,447.5c-28.8-0.9-57.7,0-86.6-0.3c-32.1-0.3-35.7-5-24.2-38.4
		c12.6-36.6,12.9-72.3-0.7-108.3c-4.7-12.4-13-19.3-25.1-19c-12.3,0.3-20.2,8.6-23.7,21.1c-2.3,8.5-1.4,17.9-3.5,26.6
		c-15.8,64.8-37.1,91-83.6,122.3c-12,8-21.8,12.2-21.7,29.5c0.4,64.2,0.5,128.5,0.1,192.7c-0.1,18.1,7,25.4,22.7,25.3
		c31.6-0.3,63.1-0.1,94.7-0.1v-0.1c32.5,0,64.9,0,97.4,0c17.9,0,31.4-6.9,36.7-28c15.4-60.8,31.8-121.4,46.4-182.4
		C227.5,461.8,217.2,448.2,192.2,447.5z"/>
	<path id="XMLID_147_" class="st0" d="M-121.3,581.8c0-30,0.2-60-0.1-90c-0.1-14.7,2.6-32.1-20.1-32.8c-21.1-0.7-47.5-3.8-50.5,24.3
		c-6.8,63.6-6.2,127.9-0.4,191.6c2.5,28.1,30.6,23,51.1,23.5c21.2,0.4,20.2-15.7,20.4-29.5c0.5-29,0.2-58,0.2-87
		C-120.9,581.8-121.1,581.8-121.3,581.8z"/>
</g>
</svg>
