<?xml version="1.0" encoding="utf-8"?>
<!-- Generator: Adobe Illustrator 19.1.0, SVG Export Plug-In . SVG Version: 6.00 Build 0)  -->
<svg version="1.1" id="图层_9" xmlns="http://www.w3.org/2000/svg" xmlns:xlink="http://www.w3.org/1999/xlink" x="0px" y="0px"
	 viewBox="0 0 512 512" enable-background="new 0 0 512 512" xml:space="preserve">
<g>
	<g>
		<path fill="#040000" d="M419.437,122.144H374.02c-1.136-2.616-5.89-13.545-8.152-18.261c-6.71-14.012-10.815-19.702-24.57-19.702
			H171.933c-13.478,0-19.348,5.479-27.309,25.525c-1.833,4.61-4.563,10.615-5.394,12.447l-46.668,0
			C66.894,122.153,46,143.019,46,168.669v212.644c0,25.649,20.886,46.506,46.562,46.506h326.875
			c25.668,0,46.563-20.866,46.563-46.506l0-212.643C466,143.001,445.115,122.144,419.437,122.144z M63.105,168.659
			c0-16.218,13.211-29.438,29.457-29.438h50.153c6.214,0,8.314-2.778,9.65-5.784c2.406-5.422,4.067-9.393,5.661-13.23
			c0.878-2.119,1.756-4.19,2.73-6.491c0.191-0.439,0.391-0.954,0.611-1.527c1.604-4.095,4.285-10.939,10.567-10.939h168.802
			c5.508,0,7.254,4.048,8.8,7.608l0.296,0.687c1.04,2.348,2.606,5.889,4.228,9.526c2.701,6.081,5.498,12.352,6.328,14.357
			c1.442,3.455,4.754,5.784,8.238,5.784h50.801c16.246,0,29.458,13.221,29.458,29.438v212.645c0,16.217-13.211,29.428-29.458,29.428
			H92.553c-16.246,0-29.457-13.211-29.457-29.428l0-212.635H63.105z"/>
		<path d="M419.438,430.319H92.562c-27.053,0-49.062-21.984-49.062-49.006V168.668c0-27.027,22.01-49.015,49.062-49.015h45.055
			c1.181-2.617,3.215-7.178,4.684-10.872c8.348-21.021,14.994-27.101,29.632-27.101h169.365c15.062,0,19.949,6.764,26.825,21.122
			c1.835,3.827,5.277,11.657,7.536,16.841h43.778c27.053,0,49.062,21.992,49.062,49.024v212.644
			C468.5,408.334,446.49,430.319,419.438,430.319z M92.562,124.653c-24.296,0-44.062,19.745-44.062,44.015v212.644
			c0,24.265,19.767,44.006,44.062,44.006h326.875c24.296,0,44.062-19.741,44.062-44.006V168.669
			c0-24.275-19.767-44.024-44.062-44.024h-47.057l-0.653-1.503c-2.177-5.008-6.124-14.029-8.113-18.177
			c-6.486-13.544-9.866-18.283-22.316-18.283H171.933c-11.421,0-16.912,3.618-24.985,23.948c-1.791,4.503-4.373,10.202-5.345,12.347
			l-0.76,1.677H92.562z M419.429,413.222H92.553c-17.621,0-31.957-14.323-31.957-31.928V166.159h0.106
			c1.281-16.446,15.081-29.438,31.86-29.438h50.152c5.038,0,6.359-2.034,7.366-4.299c2.395-5.4,4.033-9.313,5.637-13.174
			c0.815-1.968,1.631-3.896,2.523-6.005l0.212-0.501c0.187-0.431,0.374-0.913,0.58-1.449c1.721-4.394,4.911-12.543,12.9-12.543
			h168.802c7.138,0,9.513,5.47,11.084,9.09l1.113,2.53c0.964,2.177,2.171,4.902,3.411,7.682l1.003,2.255
			c2.372,5.336,4.613,10.376,5.353,12.164c1.058,2.534,3.44,4.241,5.928,4.241h50.802c17.621,0,31.957,14.328,31.957,31.938v212.645
			C451.386,398.899,437.05,413.222,419.429,413.222z M65.596,171.159v210.135c0,14.848,12.093,26.928,26.957,26.928h326.876
			c14.864,0,26.957-12.08,26.957-26.928V168.65c0-14.854-12.093-26.938-26.957-26.938h-50.802c-4.48,0-8.718-2.942-10.545-7.322
			c-0.718-1.733-2.945-6.745-5.305-12.051l-1.001-2.253c-1.241-2.781-2.45-5.51-3.416-7.69l-1.12-2.55
			c-1.644-3.785-2.834-6.096-6.505-6.096H171.934c-4.224,0-6.386,4.619-8.238,9.351c-0.228,0.594-0.442,1.142-0.646,1.61
			l-0.204,0.481c-0.887,2.097-1.698,4.014-2.51,5.972c-1.616,3.893-3.268,7.836-5.686,13.287c-1.504,3.386-4.22,7.271-11.936,7.271
			H92.562c-14.864,0-26.957,12.084-26.957,26.938L65.596,171.159z"/>
	</g>
	<g>
		<path fill="#040000" d="M256,370.536c52.634,0,95.454-42.821,95.454-95.455c0-52.633-42.821-95.454-95.454-95.454
			s-95.455,42.822-95.455,95.454C160.545,327.716,203.366,370.536,256,370.536z M256,196.179c43.498,0,78.884,35.395,78.884,78.903
			c0,43.499-35.395,78.893-78.884,78.893s-78.884-35.394-78.884-78.893C177.116,231.574,212.501,196.179,256,196.179z"/>
		<path d="M256,373.036c-54.012,0-97.954-43.942-97.954-97.955c0-54.012,43.942-97.954,97.954-97.954s97.954,43.942,97.954,97.954
			C353.954,329.094,310.012,373.036,256,373.036z M256,182.127c-51.255,0-92.954,41.699-92.954,92.954
			c0,51.255,41.699,92.955,92.954,92.955s92.954-41.7,92.954-92.955C348.954,223.826,307.255,182.127,256,182.127z M256,356.475
			c-44.875,0-81.384-36.513-81.384-81.394c0-44.885,36.509-81.402,81.384-81.402s81.384,36.517,81.384,81.402
			C337.384,319.961,300.875,356.475,256,356.475z M256,198.679c-42.118,0-76.384,34.274-76.384,76.402
			c0,42.124,34.266,76.394,76.384,76.394s76.384-34.27,76.384-76.394C332.384,232.953,298.118,198.679,256,198.679z"/>
	</g>
	<g>
		<path fill="#040000" d="M379.098,196.694h21.344c4.715,0,8.552-3.819,8.552-8.543c0-4.697-3.837-8.534-8.552-8.534h-21.344
			c-4.715,0-8.552,3.828-8.552,8.534C370.545,192.876,374.383,196.694,379.098,196.694z"/>
		<path d="M400.442,199.194h-21.345c-6.094,0-11.052-4.954-11.052-11.043c0-6.084,4.958-11.034,11.052-11.034h21.345
			c6.094,0,11.052,4.95,11.052,11.034C411.494,194.24,406.536,199.194,400.442,199.194z M379.098,182.117
			c-3.337,0-6.052,2.707-6.052,6.034c0,3.333,2.715,6.043,6.052,6.043h21.345c3.337,0,6.052-2.711,6.052-6.043
			c0-3.327-2.715-6.034-6.052-6.034H379.098z"/>
	</g>
</g>
</svg>
