<?xml version="1.0" encoding="utf-8"?>
<!-- Generator: Adobe Illustrator 19.0.0, SVG Export Plug-In . SVG Version: 6.00 Build 0)  -->
<svg version="1.1" id="Layer_1" xmlns="http://www.w3.org/2000/svg" xmlns:xlink="http://www.w3.org/1999/xlink" x="0px" y="0px"
	 viewBox="0 0 512 512" style="enable-background:new 0 0 512 512;" xml:space="preserve">
<path id="XMLID_2_" d="M472.3,119c-1.4-1-34-23.5-77.8-35c-49.4-13-93-6.5-127.5,18.7v253.9c0,6.1-4.9,11-11,11c-6.1,0-11-4.9-11-11
	V102.7c-35-25.1-78.1-31.6-127.5-18.7c-43.7,11.5-76.4,34-77.8,35c-3,2.1-4.7,5.4-4.7,9v313.5c0,4,2.1,7.6,5.6,9.6
	c3.4,2,7.7,1.9,11.1-0.1c1-0.6,95.2-55.5,145.5-16.4l13.8,31.1c1.8,4,5.7,6.3,10.1,6.3h70.1c4.4,0,8.3-2.3,10.1-6.3l13.8-31.2
	c50.3-39.1,144.6,15.9,145.5,16.5c3.4,2,7.6,2.1,11.1,0.1c3.4-2,5.6-5.6,5.6-9.5V128C477,124.4,475.2,121.1,472.3,119z"/>
</svg>
