<?xml version="1.0" encoding="utf-8"?>
<!-- Generator: Adobe Illustrator 19.1.0, SVG Export Plug-In . SVG Version: 6.00 Build 0)  -->
<svg version="1.1" id="图层_9" xmlns="http://www.w3.org/2000/svg" xmlns:xlink="http://www.w3.org/1999/xlink" x="0px" y="0px"
	 viewBox="0 0 512 512" enable-background="new 0 0 512 512" xml:space="preserve">
<g>
	
		<path id="XMLID_3_" fill="none" stroke="#000000" stroke-width="22" stroke-linecap="round" stroke-linejoin="round" stroke-miterlimit="10" d="
		M207.953,224.765H101.054c-13.126,0-23.768-10.641-23.768-23.768V94.099c0-13.127,10.641-23.768,23.768-23.768h106.899
		c13.126,0,23.768,10.641,23.768,23.768v106.899C231.72,214.124,221.079,224.765,207.953,224.765z"/>
	
		<path id="XMLID_7_" fill="none" stroke="#000000" stroke-width="22" stroke-linecap="round" stroke-linejoin="round" stroke-miterlimit="10" d="
		M425.77,224.765H318.872c-13.126,0-23.768-10.641-23.768-23.768V94.099c0-13.127,10.641-23.768,23.768-23.768H425.77
		c13.126,0,23.768,10.641,23.768,23.768v106.899C449.538,214.124,438.897,224.765,425.77,224.765z"/>
	
		<path id="XMLID_9_" fill="none" stroke="#000000" stroke-width="22" stroke-linecap="round" stroke-linejoin="round" stroke-miterlimit="10" d="
		M207.953,426.298H101.054c-13.126,0-23.768-10.641-23.768-23.768V295.632c0-13.126,10.641-23.768,23.768-23.768h106.899
		c13.126,0,23.768,10.641,23.768,23.768V402.53C231.72,415.657,221.079,426.298,207.953,426.298z"/>
	
		<path id="XMLID_8_" fill="none" stroke="#000000" stroke-width="22" stroke-linecap="round" stroke-linejoin="round" stroke-miterlimit="10" d="
		M425.77,426.298H318.872c-13.126,0-23.768-10.641-23.768-23.768V295.632c0-13.126,10.641-23.768,23.768-23.768H425.77
		c13.126,0,23.768,10.641,23.768,23.768V402.53C449.538,415.657,438.897,426.298,425.77,426.298z"/>
</g>
</svg>
