<?xml version="1.0" encoding="utf-8"?>
<!-- Generator: Adobe Illustrator 19.0.0, SVG Export Plug-In . SVG Version: 6.00 Build 0)  -->
<svg version="1.1" id="Layer_1" xmlns="http://www.w3.org/2000/svg" xmlns:xlink="http://www.w3.org/1999/xlink" x="0px" y="0px"
	 viewBox="0 0 512 512" style="enable-background:new 0 0 512 512;" xml:space="preserve">
<style type="text/css">
	.st0{fill:#FFFFFF;}
</style>
<path class="st0" d="M256,46C140,46,46,140,46,256s94,210,210,210s210-94,210-210S372,46,256,46z M351.6,351.6
	c-2.9,2.9-6.8,4.4-10.6,4.4c-3.8,0-7.7-1.5-10.6-4.4L256,277.2l-74.4,74.4c-2.9,2.9-6.8,4.4-10.6,4.4s-7.7-1.5-10.6-4.4
	c-5.9-5.8-5.9-15.3,0-21.2l74.4-74.4l-74.4-74.4c-5.9-5.8-5.9-15.3,0-21.2c5.8-5.9,15.3-5.9,21.2,0l74.4,74.4l74.4-74.4
	c5.8-5.9,15.3-5.9,21.2,0c5.9,5.8,5.9,15.3,0,21.2L277.2,256l74.4,74.4C357.5,336.2,357.5,345.7,351.6,351.6z"/>
</svg>
