<?xml version="1.0" encoding="utf-8"?>
<!-- Generator: Adobe Illustrator 19.0.0, SVG Export Plug-In . SVG Version: 6.00 Build 0)  -->
<svg version="1.1" id="Layer_1" xmlns="http://www.w3.org/2000/svg" xmlns:xlink="http://www.w3.org/1999/xlink" x="0px" y="0px"
	 viewBox="0 0 512 512" style="enable-background:new 0 0 512 512;" xml:space="preserve">
<g>
	<path d="M361.9,309.1c3.7-4.8,2.9-11.7-1.9-15.4c-20.1-15.7-42.7-27-66.7-33.6c34.1-18.3,57.4-54.4,57.4-95.7
		c0-59.9-48.7-108.6-108.6-108.6s-108.6,48.7-108.6,108.6c0,41.4,23.3,77.5,57.5,95.8c-81.2,22.4-141,97-141,185.2
		c0,6.1,4.9,11,11,11s11-4.9,11-11c0-93.8,76.3-170.1,170.1-170.1c38.2,0,74.3,12.4,104.3,35.8C351.2,314.7,358.1,313.9,361.9,309.1
		z M155.5,164.3c0-47.8,38.8-86.6,86.6-86.6s86.6,38.8,86.6,86.6c0,47.8-38.8,86.6-86.6,86.6S155.5,212.1,155.5,164.3z"/>
	<path d="M450.5,374.4H402v-48.5c0-6.1-4.9-11-11-11s-11,4.9-11,11v48.5h-48.6c-6.1,0-11,4.9-11,11s4.9,11,11,11H380v48.5
		c0,6.1,4.9,11,11,11s11-4.9,11-11v-48.5h48.5c6.1,0,11-4.9,11-11S456.6,374.4,450.5,374.4z"/>
</g>
</svg>
