<?xml version="1.0" encoding="utf-8"?>
<!-- Generator: Adobe Illustrator 19.0.0, SVG Export Plug-In . SVG Version: 6.00 Build 0)  -->
<svg version="1.1" id="Layer_1" xmlns="http://www.w3.org/2000/svg" xmlns:xlink="http://www.w3.org/1999/xlink" x="0px" y="0px"
	 viewBox="0 0 512 512" style="enable-background:new 0 0 512 512;" xml:space="preserve">
<path id="XMLID_2_" d="M429,44.5H83c-21.2,0-38.5,17.3-38.5,38.5v346c0,21.2,17.3,38.5,38.5,38.5h346c21.2,0,38.5-17.3,38.5-38.5V83
	C467.5,61.8,450.2,44.5,429,44.5z M408.7,195.5L278,326.2c-6.1,6.1-14,9.1-22,9.1s-15.9-3-22-9.1L103.3,195.5
	c-4.3-4.3-4.3-11.3,0-15.6s11.3-4.3,15.6,0l130.7,130.7c3.5,3.5,9.3,3.5,12.8,0l130.7-130.7c4.3-4.3,11.3-4.3,15.6,0
	C413,184.2,413,191.2,408.7,195.5z"/>
</svg>
