<?xml version="1.0" encoding="utf-8"?>
<!-- Generator: Adobe Illustrator 19.1.0, SVG Export Plug-In . SVG Version: 6.00 Build 0)  -->
<svg version="1.1" id="图层_9" xmlns="http://www.w3.org/2000/svg" xmlns:xlink="http://www.w3.org/1999/xlink" x="0px" y="0px"
	 viewBox="0 0 512 512" enable-background="new 0 0 512 512" xml:space="preserve">
<g>
	<path id="XMLID_143_" fill="none" stroke="#000000" stroke-width="17.0098" stroke-miterlimit="10" d="M301.94,326.856
		c-19.844-18.636-38.991-38-58.444-57.047c-19.982-19.584-40.056-39.075-59.853-58.848c-5.846-5.836-11.109-10.471-20.529-0.722
		c-20.481,21.208-85.973,91.19-106.162,112.671c-11.931,12.688-2.69,19.532,3.971,26.887c7.413,8.193,13.736,3.075,20.863-4.521
		c9.446-10.081,19.313-19.779,29.18-29.469c6.29-6.174,13.259-11.303,19.545-4.207c5.229,5.906,0.903,12.316-4.434,17.956
		c-9.495,10.047-18.737,20.432-28.947,29.674c-11.104,10.053-10.438,16.496-1.854,24.453c8.228,7.622,14.551,13.015,26.158-0.742
		c8.274-9.806,17.867-18.596,27.05-27.654c5.998-5.915,12.897-12.544,19.828-6.453c8.396,7.369,0.329,14.853-5.917,21.578
		c-7.526,8.092-14.976,16.372-23.188,23.706c-11.506,10.271-15.533,17.758-4.553,28.558c10.69,10.524,17.937,7.684,28.373-4.388
		c8.398-9.708,17.91-18.564,27.243-27.457c5.685-5.418,12.18-9.058,17.706-3.201c5.467,5.797,1.546,12.181-3.752,17.882
		c-8.784,9.449-17.733,18.751-26.856,27.875c-8.068,8.061-16.867,15.213-6.299,24.918c8.886,8.161,17.107,12.395,29.554-0.584
		c18.501-19.287,81.484-87.866,100.723-106.389C312.691,340.41,309.819,334.256,301.94,326.856z"/>
	<path id="XMLID_139_" fill="none" stroke="#000000" stroke-width="18.8998" stroke-miterlimit="10" d="M194.64,187.059
		l129.998,127.353l16.455-16.86c2.893-3.216-2.336-19.035-7.686-34.561l-0.135,0.001c-7.002-20.709-14.148-41.158-7.01-59.601
		c7.538-19.003,24.899-27.581,47.828-38.602c19.883-9.538,44.806-21.65,67.488-44.805c18.056-18.57,22.264-37.39,17.312-51.345
		c-3.435-9.949-11.101-17.592-21.529-21.075c-13.902-4.394-32.645,0.054-50.961,18.639c-22.68,23.155-33.881,48.319-42.997,68.124
		c-10.825,23.426-18.772,40.957-37.874,48.754c-18.034,7.65-38.884,0.93-59.749-5.925c-15.902-5.013-31.669-10.051-34.711-6.958
		L194.64,187.059z"/>
</g>
</svg>
