<?xml version="1.0" encoding="utf-8"?>
<!-- Generator: Adobe Illustrator 19.1.0, SVG Export Plug-In . SVG Version: 6.00 Build 0)  -->
<svg version="1.1" id="图层_9" xmlns="http://www.w3.org/2000/svg" xmlns:xlink="http://www.w3.org/1999/xlink" x="0px" y="0px"
	 viewBox="0 0 512 512" enable-background="new 0 0 512 512" xml:space="preserve">
<g>
	<g>
		<path fill="#272635" d="M250.592,187.52c10.802,0,18.021-7.232,18.021-18.007c0-10.894-7.206-17.942-18.021-17.942
			s-21.669,7.048-21.669,17.942C228.936,180.288,239.791,187.52,250.592,187.52z"/>
		<path fill="#040000" d="M250.593,190.021c-11.611,0-24.154-7.84-24.17-20.505c0-12.629,12.546-20.444,24.17-20.444
			c12.274,0,20.521,8.215,20.521,20.441C271.113,181.587,262.675,190.021,250.593,190.021z M250.593,154.071
			c-9.22,0-19.17,5.903-19.17,15.441c0.01,7.456,7.342,15.508,19.17,15.508c9.429,0,15.521-6.087,15.521-15.508
			C266.113,160.133,260.021,154.071,250.593,154.071z"/>
	</g>
	<g>
		<path fill="#272635" d="M149.806,151.571c-10.802,0-21.722,7.048-21.722,17.942c0,10.776,10.92,18.007,21.722,18.007
			c10.762,0,17.968-7.232,17.968-18.007C167.761,158.619,160.568,151.571,149.806,151.571z"/>
		<path fill="#040000" d="M149.806,190.021c-14.961,0-24.222-10.646-24.222-20.508c0-12.626,12.573-20.441,24.222-20.441
			c12.229,0,20.453,8.214,20.468,20.438C170.273,181.587,161.856,190.021,149.806,190.021z M149.806,154.071
			c-9.244,0-19.222,5.903-19.222,15.441c0,7.458,7.349,15.508,19.222,15.508c9.396,0,15.468-6.087,15.468-15.508
			C165.263,160.134,159.191,154.071,149.806,154.071z"/>
	</g>
	<g>
		<path fill="#272635" d="M466,302.797c0-56.963-52.841-105.499-117.705-110.552c0.092-0.709,0.131-1.444-0.026-2.179
			c-13.007-60.637-78.212-106.352-151.686-106.352C113.554,83.715,46,141.609,46,212.773c0,38.181,19.491,72.581,56.424,99.711
			l-12.876,38.706c-0.827,2.52-0.079,5.289,1.929,7.035c1.221,1.05,2.756,1.601,4.305,1.601c0.997,0,2.008-0.236,2.94-0.696
			l48.339-24.189l5.959,1.207c14.884,3.058,27.733,5.709,43.562,5.709c4.659,0,9.384-0.21,14.018-0.604
			c1.877-0.157,3.465-1.102,4.541-2.467c17.43,43.614,65.468,75.101,121.997,75.101c14.477,0,29.138-3.491,42.289-6.786
			l37.262,20.37c0.984,0.538,2.074,0.814,3.15,0.814c1.47,0,2.94-0.499,4.121-1.457c2.074-1.68,2.927-4.449,2.152-6.982
			l-9.516-31.644C448.504,362.988,466,332.827,466,302.797z M209.485,328.168c-4.266,0.368-8.597,0.551-12.889,0.551
			c-14.49,0-26.749-2.507-40.924-5.434l-8.242-1.667c-1.417-0.302-2.914-0.105-4.213,0.564l-36.212,18.126l9.411-28.271
			c0.919-2.769-0.092-5.788-2.467-7.455c-36.382-25.357-54.823-56.254-54.823-91.809c0-63.919,61.661-115.933,137.458-115.933
			c67.003,0,126.328,40.766,138.574,94.986c-70.258,0.919-127.103,50.308-127.103,110.972c0,8.82,1.339,17.364,3.596,25.607
			C210.968,328.233,210.246,328.102,209.485,328.168z M405.074,380.497c-2.192,1.654-3.124,4.502-2.336,7.127l6.208,20.646
			l-25.476-13.939c-0.971-0.538-2.061-0.814-3.15-0.814c-0.538,0-1.076,0.066-1.601,0.21c-13.663,3.452-27.799,7.009-41.567,7.009
			c-63.945,0-115.959-43.942-115.959-97.952s52.014-97.939,115.959-97.939c62.724,0,115.723,44.848,115.723,97.939
			C452.875,329.717,435.904,357.318,405.074,380.497z"/>
		<path fill="#040000" d="M419.84,430.785c-1.505,0-3.01-0.388-4.35-1.12l-36.404-19.901c-14.105,3.519-27.94,6.623-41.947,6.623
			c-54.762,0-103.725-29.432-123.024-73.58c-1.017,0.52-2.132,0.84-3.304,0.938c-4.782,0.406-9.57,0.612-14.228,0.612
			c-16.03,0-28.952-2.655-43.915-5.73l-5.257-1.065l-47.569,23.804c-3.294,1.624-7.291,1.079-9.994-1.247
			c-2.774-2.409-3.82-6.218-2.674-9.709l12.308-36.997C62.849,285.975,43.5,251.21,43.5,212.772
			c0-72.541,68.673-131.558,153.083-131.558c74.622,0,140.883,46.57,154.13,108.327c0.029,0.138,0.055,0.273,0.075,0.408
			c31.211,2.926,60.392,15.758,82.389,36.277c22.778,21.248,35.323,48.44,35.323,76.569c0,30.259-17.393,60.854-49.021,86.305
			l9.029,30.024c1.075,3.519-0.09,7.309-2.973,9.645C423.933,430.069,421.91,430.785,419.84,430.785z M379.769,404.438l38.12,20.84
			c1.446,0.79,3.268,0.607,4.498-0.393c1.272-1.03,1.809-2.762,1.336-4.31l-10.009-33.282l1.334-1.055
			c31.245-24.689,48.452-54.324,48.452-83.442c0-26.727-11.98-52.621-33.733-72.913c-21.712-20.253-50.715-32.734-81.666-35.146
			l-2.623-0.204l0.338-2.609c0.077-0.591,0.079-1.003,0.009-1.335C333.061,131.087,268.9,86.215,196.583,86.215
			C114.93,86.215,48.5,142.988,48.5,212.772c0,37.29,19.158,71.073,55.404,97.696l1.467,1.077l-13.45,40.433
			c-0.514,1.564-0.045,3.279,1.197,4.357c1.205,1.039,3,1.29,4.5,0.552l49.096-24.568l6.961,1.41
			c14.695,3.02,27.387,5.628,42.908,5.628c4.517,0,9.162-0.2,13.806-0.595c1.098-0.092,2.088-0.634,2.79-1.524l2.679-3.398
			l1.605,4.019c17.577,43.979,65.671,73.528,119.676,73.528c13.752,0,27.563-3.174,41.682-6.71L379.769,404.438z M413.096,413.39
			l-30.826-16.865c-0.896-0.497-2.006-0.627-2.888-0.387c-13.841,3.497-28.1,7.099-42.229,7.099
			c-65.319,0-118.46-45.062-118.46-100.452c0-55.382,53.141-100.438,118.46-100.438c64.083,0,118.223,45.995,118.223,100.438
			c0,27.742-17.33,56.051-48.795,79.708v0.001c-1.352,1.02-1.934,2.793-1.448,4.413L413.096,413.39z M380.32,391.018
			c1.523,0,3.031,0.39,4.361,1.127l20.113,11.005l-4.452-14.806c-1.083-3.614,0.213-7.569,3.226-9.842l0.004-0.003
			c30.181-22.691,46.803-49.58,46.803-75.715c0-51.733-51.85-95.438-113.223-95.438c-62.562,0-113.46,42.813-113.46,95.438
			c0,52.633,50.897,95.452,113.46,95.452c13.508,0,27.461-3.524,40.954-6.933C378.778,391.118,379.54,391.018,380.32,391.018z
			 M102.727,345.246l11.317-33.999c0.569-1.719-0.045-3.576-1.531-4.618c-37.082-25.845-55.888-57.425-55.888-93.856
			c0-65.304,62.785-118.433,139.958-118.433c67.909,0,128.531,41.673,141.013,96.935l0.68,3.01l-3.086,0.041
			c-33.419,0.437-64.773,11.967-88.288,32.466c-23.438,20.434-36.347,47.427-36.347,76.006c0,8.054,1.18,16.447,3.507,24.947
			l1.129,4.124l-4.147-1.039c-0.595-0.149-1.003-0.204-1.343-0.17l0,0c-4.317,0.371-8.726,0.56-13.104,0.56
			c-14.863,0-27.175-2.542-41.43-5.485l-8.232-1.665c-0.885-0.188-1.789-0.067-2.574,0.337L102.727,345.246z M196.583,99.34
			c-74.416,0-134.958,50.886-134.958,113.433c0,34.7,18.085,64.899,53.753,89.759c3.313,2.324,4.682,6.459,3.411,10.292
			l-7.506,22.548l30.814-15.424c1.781-0.918,3.866-1.197,5.853-0.774l8.218,1.662c13.997,2.89,26.076,5.384,40.429,5.384
			c3.937,0,7.898-0.157,11.789-0.468c-1.88-7.801-2.831-15.507-2.831-22.954c0-30.046,13.518-58.377,38.062-79.774
			c23.669-20.635,54.948-32.513,88.378-33.625C318.536,137.847,260.979,99.34,196.583,99.34z"/>
	</g>
	<g>
		<path fill="#272635" d="M297.423,255.98c-7.206,0-14.411,7.258-14.411,14.451c0,7.245,7.206,14.398,14.411,14.398
			c10.828,0,17.981-7.153,17.981-14.398C315.404,263.225,308.251,255.98,297.423,255.98z"/>
		<path fill="#040000" d="M297.423,287.329c-8.534,0-16.911-8.37-16.911-16.898c0-8.555,8.377-16.95,16.911-16.95
			c9.85,0,20.48,6.48,20.48,16.95C317.903,280.868,307.272,287.329,297.423,287.329z M297.423,258.48
			c-5.789,0-11.911,6.143-11.911,11.95c0,5.894,6.011,11.898,11.911,11.898c9.562,0,15.48-6.176,15.48-11.898
			C312.903,264.684,306.984,258.48,297.423,258.48z"/>
	</g>
	<g>
		<path fill="#272635" d="M376.592,255.98c-7.101,0-14.306,7.258-14.306,14.451c0,7.245,7.206,14.398,14.306,14.398
			c10.789,0,18.073-7.153,18.073-14.398C394.666,263.225,387.394,255.98,376.592,255.98z"/>
		<path fill="#040000" d="M376.593,287.329c-8.481,0-16.807-8.37-16.807-16.898c0-8.555,8.325-16.95,16.807-16.95
			c12.708,0,20.573,8.799,20.573,16.95C397.166,278.558,389.301,287.329,376.593,287.329z M376.593,258.48
			c-5.738,0-11.807,6.143-11.807,11.95c0,5.782,6.068,11.898,11.807,11.898c9.619,0,15.573-6.176,15.573-11.898
			C392.166,263.282,384.113,258.48,376.593,258.48z"/>
	</g>
</g>
</svg>
