<?xml version="1.0" encoding="utf-8"?>
<!-- Generator: Adobe Illustrator 19.1.0, SVG Export Plug-In . SVG Version: 6.00 Build 0)  -->
<svg version="1.1" id="图层_1" xmlns="http://www.w3.org/2000/svg" xmlns:xlink="http://www.w3.org/1999/xlink" x="0px" y="0px"
	 viewBox="244 -244.678 1000.636 1000.678" enable-background="new 244 -244.678 1000.636 1000.678" xml:space="preserve">
<g id="机构" display="none">
	<g display="inline">
		
			<line fill="none" stroke="#4A4D55" stroke-width="78.7001" stroke-linecap="round" stroke-linejoin="round" stroke-miterlimit="10" x1="384.586" y1="590.886" x2="384.586" y2="439.988"/>
		<g>
			<path fill="none" stroke="#4A4D55" stroke-width="50" stroke-miterlimit="10" d="M1219.685,98.496L767.081,336.249
				c-5.873,3.084-12.912,3.069-18.785-0.029L299.218,98.467c-14.52-7.688-14.21-28.598,0.531-35.858l449.078-220.99
				c5.593-2.759,12.13-2.759,17.723-0.03l452.604,220.99C1233.984,69.81,1234.294,90.823,1219.685,98.496z M494.674,201.941v295.937
				L759.623,639.11l263.104-141.232V201.955"/>
			<polyline fill="none" stroke="#4A4D55" stroke-width="50" stroke-miterlimit="10" points="759.62,49.377 384.309,220.299 
				384.309,615.885 			"/>
		</g>
	</g>
</g>
<g id="分享">
	<g>
		
			<line fill="none" stroke="#494C54" stroke-width="50" stroke-linecap="round" stroke-miterlimit="10" x1="759.485" y1="372.216" x2="759.485" y2="-188.083"/>
		<polyline fill="none" stroke="#494C54" stroke-width="50" stroke-linecap="round" stroke-miterlimit="10" points="
			620.357,-55.794 759.485,-194.921 898.612,-55.794 		"/>
		<path fill="none" stroke="#494C54" stroke-width="50" stroke-linecap="round" stroke-miterlimit="10" d="M617.502,70.326H456.666
			c-23.278,0-42.148,18.87-42.148,42.148v551.621c0,23.278,18.87,42.148,42.148,42.148h605.637c23.278,0,42.148-18.87,42.148-42.148
			V112.474c0-23.278-18.87-42.148-42.148-42.148H901.468"/>
	</g>
</g>
</svg>
