<?xml version="1.0" encoding="utf-8"?>
<!-- Generator: Adobe Illustrator 19.1.0, SVG Export Plug-In . SVG Version: 6.00 Build 0)  -->
<svg version="1.1" id="图层_9" xmlns="http://www.w3.org/2000/svg" xmlns:xlink="http://www.w3.org/1999/xlink" x="0px" y="0px"
	 viewBox="0 0 512 512" enable-background="new 0 0 512 512" xml:space="preserve">
<g>
	<g id="XMLID_39_">
		<path d="M95.933,413.148c-1.11,0-2.218-0.015-3.334-0.044c-4.589-0.124-8.619-3.084-10.108-7.426
			c-1.49-4.342-0.127-9.153,3.42-12.068c0.248-0.205,23.467-19.588,39.02-48.366c-25.346-13.805-46.662-31.909-62.067-52.801
			C44.635,267.724,35,239.47,35,210.735c0-44.366,22.268-85.886,62.702-116.914c39.569-30.363,92.018-47.085,147.684-47.085
			S353.5,63.458,393.069,93.822c40.435,31.027,62.702,72.548,62.702,116.914s-22.268,85.886-62.702,116.914
			c-39.569,30.364-92.018,47.086-147.684,47.086c-13.636,0-27.379-1.054-40.922-3.136
			C177.763,391.33,138.583,413.146,95.933,413.148z M245.386,68.736C141.51,68.736,57,132.437,57,210.735
			c0,48.642,32.652,93.407,87.345,119.746c5.355,2.579,7.693,8.946,5.279,14.378c-7.69,17.302-18.177,32.053-27.542,43.173
			c28.532-6.624,54.371-22.659,72.84-36.782c2.433-1.86,5.528-2.62,8.547-2.103c13.835,2.38,27.938,3.587,41.917,3.587
			c103.876,0,188.386-63.701,188.386-142C433.771,132.437,349.262,68.736,245.386,68.736z"/>
	</g>
	<g id="XMLID_55_">
		<path d="M432.973,465.264c-28.554,0.001-54.664-14.151-72.759-27.298c-8.649,1.254-17.408,1.889-26.104,1.889
			c-27.495,0-54.183-6.117-77.178-17.688c-15.505-7.803-25.754-13.537-37.336-27.349c-3.903-4.655-3.294-11.593,1.36-15.497
			c4.655-3.904,11.593-3.295,15.497,1.361c8.644,10.307,15.541,14.371,30.368,21.832c19.942,10.036,43.21,15.34,67.288,15.34
			c9.035,0,18.151-0.78,27.096-2.319c3.024-0.518,6.115,0.243,8.547,2.103c9.485,7.253,21.977,15.293,35.894,20.399
			c-4.179-5.896-8.27-12.676-11.595-20.156c-2.414-5.432-0.077-11.8,5.279-14.379C434.189,386.716,455,358.359,455,327.648
			c0-12.424-3.354-24.468-9.97-35.796c-3.063-5.246-1.294-11.982,3.952-15.046c5.246-3.063,11.983-1.293,15.046,3.952
			c8.607,14.74,12.972,30.516,12.972,46.89c0,36.186-21.518,69.33-58.124,90.404c9.805,16.569,22.95,27.572,23.105,27.7
			c3.529,2.924,4.884,7.736,3.389,12.068c-1.496,4.332-5.513,7.29-10.095,7.413C434.508,465.253,433.737,465.264,432.973,465.264z"
			/>
	</g>
</g>
</svg>
