<?xml version="1.0" encoding="utf-8"?>
<!-- Generator: Adobe Illustrator 19.1.0, SVG Export Plug-In . SVG Version: 6.00 Build 0)  -->
<svg version="1.1" id="图层_9" xmlns="http://www.w3.org/2000/svg" xmlns:xlink="http://www.w3.org/1999/xlink" x="0px" y="0px"
	 viewBox="0 0 512 512" enable-background="new 0 0 512 512" xml:space="preserve">
<g>
	<g>
		<path fill="#040000" d="M349.529,477H162.471c-22.607,0-41-18.393-41-41V76c0-22.607,18.393-41,41-41h187.059
			c22.607,0,41,18.393,41,41v360C390.529,458.607,372.137,477,349.529,477z M162.471,57c-10.477,0-19,8.523-19,19v360
			c0,10.477,8.523,19,19,19h187.059c10.477,0,19-8.523,19-19V76c0-10.477-8.523-19-19-19H162.471z"/>
	</g>
	<g>
		<rect x="134.118" y="100.883" fill="#040000" width="243.765" height="22"/>
	</g>
	<g>
		<rect x="134.118" y="328.177" fill="#040000" width="243.765" height="22"/>
	</g>
	<g>
		<circle fill="#040000" cx="256" cy="403.412" r="26.353"/>
	</g>
</g>
</svg>
