<?xml version="1.0" encoding="utf-8"?>
<!-- Generator: Adobe Illustrator 19.1.0, SVG Export Plug-In . SVG Version: 6.00 Build 0)  -->
<svg version="1.1" id="图层_9" xmlns="http://www.w3.org/2000/svg" xmlns:xlink="http://www.w3.org/1999/xlink" x="0px" y="0px"
	 viewBox="0 0 512 512" enable-background="new 0 0 512 512" xml:space="preserve">
<g>
	<g id="XMLID_75_">
		<path d="M99.219,442.902c-1.151,0-2.27-0.016-3.367-0.045c-4.589-0.124-8.619-3.083-10.109-7.426
			c-1.49-4.342-0.127-9.153,3.42-12.068c0.264-0.218,25.076-20.929,41.517-51.629c-26.847-14.533-49.413-33.646-65.693-55.723
			c-19.123-25.933-29.23-55.571-29.23-85.709c0-46.542,23.372-90.107,65.811-122.673c41.574-31.902,96.688-49.471,155.189-49.471
			s113.615,17.569,155.189,49.471c42.439,32.565,65.811,76.131,65.811,122.673c0,46.541-23.372,90.107-65.811,122.672
			c-41.574,31.902-96.688,49.471-155.189,49.471c-14.411,0-28.938-1.12-43.25-3.332C165.272,434.857,125.356,442.901,99.219,442.902
			z M256.756,80.158c-109.729,0-199,67.354-199,150.144c0,51.462,34.515,98.807,92.326,126.647
			c5.356,2.579,7.694,8.946,5.279,14.378c-8.387,18.87-19.938,34.846-30.05,46.665c30.83-6.746,58.779-24.036,78.65-39.23
			c2.432-1.859,5.529-2.621,8.546-2.103c14.606,2.512,29.493,3.786,44.249,3.786c109.729,0,199-67.354,199-150.144
			S366.485,80.158,256.756,80.158z"/>
	</g>
	<g>
		<g id="XMLID_74_">
			<circle cx="158.494" cy="229.227" r="20"/>
			<path d="M158.494,249.775c-11.33,0-20.548-9.218-20.548-20.548s9.218-20.548,20.548-20.548s20.548,9.218,20.548,20.548
				S169.824,249.775,158.494,249.775z M158.494,209.775c-10.726,0-19.452,8.726-19.452,19.452s8.726,19.452,19.452,19.452
				s19.452-8.726,19.452-19.452S169.22,209.775,158.494,209.775z"/>
		</g>
		<g id="XMLID_78_">
			<circle cx="256.857" cy="229.227" r="20"/>
			<path d="M256.857,249.775c-11.33,0-20.548-9.218-20.548-20.548s9.218-20.548,20.548-20.548s20.548,9.218,20.548,20.548
				S268.187,249.775,256.857,249.775z M256.857,209.775c-10.726,0-19.452,8.726-19.452,19.452s8.726,19.452,19.452,19.452
				s19.452-8.726,19.452-19.452S267.583,209.775,256.857,209.775z"/>
		</g>
		<g id="XMLID_79_">
			<circle cx="354.057" cy="229.227" r="20"/>
			<path d="M354.057,249.775c-11.33,0-20.548-9.218-20.548-20.548s9.218-20.548,20.548-20.548s20.548,9.218,20.548,20.548
				S365.387,249.775,354.057,249.775z M354.057,209.775c-10.726,0-19.452,8.726-19.452,19.452s8.726,19.452,19.452,19.452
				s19.452-8.726,19.452-19.452S364.783,209.775,354.057,209.775z"/>
		</g>
	</g>
</g>
</svg>
