<?xml version="1.0" encoding="utf-8"?>
<!-- Generator: Adobe Illustrator 19.1.0, SVG Export Plug-In . SVG Version: 6.00 Build 0)  -->
<svg version="1.1" id="图层_9" xmlns="http://www.w3.org/2000/svg" xmlns:xlink="http://www.w3.org/1999/xlink" x="0px" y="0px"
	 viewBox="0 0 512 512" enable-background="new 0 0 512 512" xml:space="preserve">
<g>
	
		<path id="XMLID_3_" fill="none" stroke="#000000" stroke-width="22" stroke-linecap="round" stroke-linejoin="round" stroke-miterlimit="10" d="
		M197.476,230.173H75.646c-13.126,0-23.768-10.641-23.768-23.768V84.575c0-13.127,10.641-23.768,23.768-23.768h121.831
		c13.126,0,23.768,10.641,23.768,23.768v121.831C221.244,219.532,210.603,230.173,197.476,230.173z"/>
	
		<path id="XMLID_7_" fill="none" stroke="#000000" stroke-width="22" stroke-linecap="round" stroke-linejoin="round" stroke-miterlimit="10" d="
		M436.354,230.173H314.524c-13.126,0-23.768-10.641-23.768-23.768V84.575c0-13.127,10.641-23.768,23.768-23.768h121.831
		c13.126,0,23.768,10.641,23.768,23.768v121.831C460.122,219.532,449.481,230.173,436.354,230.173z"/>
	
		<path id="XMLID_9_" fill="none" stroke="#000000" stroke-width="22" stroke-linecap="round" stroke-linejoin="round" stroke-miterlimit="10" d="
		M197.476,451.193H75.646c-13.126,0-23.768-10.641-23.768-23.768V305.594c0-13.127,10.641-23.768,23.768-23.768h121.831
		c13.126,0,23.768,10.641,23.768,23.768v121.831C221.244,440.552,210.603,451.193,197.476,451.193z"/>
	
		<path id="XMLID_8_" fill="none" stroke="#000000" stroke-width="22" stroke-linecap="round" stroke-linejoin="round" stroke-miterlimit="10" d="
		M436.354,451.193H314.524c-13.126,0-23.768-10.641-23.768-23.768V305.594c0-13.127,10.641-23.768,23.768-23.768h121.831
		c13.126,0,23.768,10.641,23.768,23.768v121.831C460.122,440.552,449.481,451.193,436.354,451.193z"/>
</g>
</svg>
