<?xml version="1.0" encoding="utf-8"?>
<!-- Generator: Adobe Illustrator 19.1.0, SVG Export Plug-In . SVG Version: 6.00 Build 0)  -->
<svg version="1.1" id="图层_9" xmlns="http://www.w3.org/2000/svg" xmlns:xlink="http://www.w3.org/1999/xlink" x="0px" y="0px"
	 viewBox="0 0 512 512" enable-background="new 0 0 512 512" xml:space="preserve">
<path fill="#272635" stroke="#040000" stroke-width="5" stroke-miterlimit="10" d="M449.493,174.256
	c-10.577-25.007-25.718-47.465-45.002-66.749c-19.284-19.284-41.741-34.424-66.749-45.002C311.848,51.553,284.346,46,255.999,46
	c-43.693,0-85.579,13.291-121.13,38.436c-17.119,12.108-32.302,26.663-45.129,43.262c-12.955,16.763-23.255,35.291-30.615,55.068
	C50.416,206.168,46,230.808,46,256c0,28.347,5.553,55.849,16.506,81.744c10.577,25.008,25.718,47.465,45.002,66.749
	s41.741,34.424,66.748,45.002C200.151,460.447,227.653,466,256,466s55.849-5.554,81.744-16.506
	c25.008-10.577,47.465-25.718,66.749-45.002c19.284-19.284,34.424-41.741,45.002-66.749C460.446,311.849,466,284.347,466,256
	S460.445,200.15,449.493,174.256z M430.86,168.428l-96.955,90.825c0.025-0.811,0.041-1.623,0.041-2.439
	c0-2.105-0.086-4.191-0.248-6.256l0.464-173.844C376.084,95.062,410.38,127.699,430.86,168.428z M255.205,321.141
	c-35.47,0-64.327-28.857-64.327-64.327c0-35.47,28.857-64.327,64.327-64.327c35.47,0,64.328,28.857,64.328,64.327
	C319.532,292.284,290.675,321.141,255.205,321.141z M319.762,71.088l-0.374,140.159c-6.768-9.506-15.596-17.447-25.823-23.176
	L181.458,75.311c23.239-9.64,48.497-14.897,74.541-14.897C278.315,60.414,299.768,64.173,319.762,71.088z M167.522,81.738
	l96.241,96.801c-2.812-0.306-5.667-0.467-8.559-0.467c-1.038,0-2.07,0.026-3.099,0.066v-0.05l-175.546-0.017
	C94.956,135.801,127.62,102.063,167.522,81.738z M60.414,255.999c0-21.792,3.55-43.131,10.547-63.513l138.865,0.013
	c-5.632,3.985-10.717,8.691-15.126,13.981L71.767,321.695C64.42,301.153,60.414,279.035,60.414,255.999z M77.547,336.032
	l100.318-94.019c-0.916,4.796-1.401,9.742-1.401,14.801c0,5.648,0.603,11.157,1.738,16.471l-0.128,0l-0.455,161.904
	C133.242,415.702,97.431,380.196,77.547,336.032z M192.018,440.835l0.383-136.582c7.096,9.371,16.236,17.112,26.753,22.551
	l110.585,110.35c-22.767,9.301-47.666,14.43-73.74,14.43C233.602,451.585,212.075,447.798,192.018,440.835z M343.748,430.771
	l-95.752-95.548c2.375,0.217,4.778,0.333,7.208,0.333c11.536,0,22.501-2.494,32.384-6.971l149.845,0.459
	C419.582,373.228,386.038,409.451,343.748,430.771z M442.602,314.646l-133.579-0.41c9.05-8.486,16.098-19.08,20.355-30.991
	l107.783-100.969c9.297,22.763,14.424,47.656,14.424,73.723C451.585,276.423,448.436,296.124,442.602,314.646z"/>
</svg>
