<?xml version="1.0" encoding="utf-8"?>
<!-- Generator: Adobe Illustrator 19.0.0, SVG Export Plug-In . SVG Version: 6.00 Build 0)  -->
<svg version="1.1" id="Layer_1" xmlns="http://www.w3.org/2000/svg" xmlns:xlink="http://www.w3.org/1999/xlink" x="0px" y="0px"
	 viewBox="0 0 512 512" style="enable-background:new 0 0 512 512;" xml:space="preserve">
<path d="M408.5,214.5h-7v-36.2c-0.1-0.1-0.1-0.3-0.1-0.6c-0.7-38.2-16.1-74.1-43.3-101.1c-27.2-27-63.3-41.9-101.7-41.9
	c-0.1,0-0.1,0-0.2,0c-38.8,0-75.3,15.1-102.7,42.5c-27.1,27.1-42,62.9-42,100.8v36.5h-8.1c-6.8,0-11.9,5.2-11.9,12.2v238.2
	c0,7.1,5.2,12.6,11.9,12.6h305c6.7,0,12-5.5,12-12.6V226.7c0-3.4-1.2-6.4-3.4-8.7C414.8,215.7,411.8,214.5,408.5,214.5z M136.5,178
	c0-65.3,53.8-118.5,120-118.5c31.7,0,61.6,12.3,84.1,34.7c22.1,21.9,34.8,51.7,35.8,83.9l0,36.3H136.5V178z M396.5,452.5h-281v-213
	h281V452.5z"/>
<path d="M227.6,357.3l0.8,0.7V405c0,6.3,5.1,11.5,11.4,11.5h33.4c6.2,0,11.1-5.1,11.1-11.5v-46.9l1-0.8c11-8.5,17.3-21.6,17.3-35.9
	c0.1-12.5-4.6-24.2-13.1-32.8c-8.6-8.7-20.3-13.4-32.9-13.4c-26,0-46.3,20.3-46.3,46.3C210.3,334.6,216.6,347.7,227.6,357.3z
	 M256.7,298.1c13.1,0,23.3,10.3,23.3,23.4c-0.1,10.1-6.8,17.5-12.6,20.7c-3.7,2.1-5.9,5.9-5.9,9.9v41.4h-10v-41.4
	c0-3.9-2.1-7.6-5.4-9.7c-8.1-5.1-12.8-12.8-12.8-20.9C233.3,308.4,243.6,298.1,256.7,298.1z"/>
</svg>
