<?xml version="1.0" encoding="utf-8"?>
<!-- Generator: Adobe Illustrator 19.1.0, SVG Export Plug-In . SVG Version: 6.00 Build 0)  -->
<svg version="1.1" id="图层_9" xmlns="http://www.w3.org/2000/svg" xmlns:xlink="http://www.w3.org/1999/xlink" x="0px" y="0px"
	 viewBox="0 0 512 512" enable-background="new 0 0 512 512" xml:space="preserve">
<g>
	
		<path id="XMLID_133_" fill="none" stroke="#000000" stroke-width="22" stroke-linecap="round" stroke-linejoin="round" stroke-miterlimit="10" d="
		M413.477,228.258v165.167c0,37.633-30.507,68.14-68.14,68.14H114.14c-37.633,0-68.14-30.507-68.14-68.14V162.229
		c0-37.633,30.507-68.14,68.14-68.14h178.481"/>
	
		<path id="XMLID_130_" fill="none" stroke="#000000" stroke-width="22" stroke-linecap="round" stroke-linejoin="round" stroke-miterlimit="10" d="
		M432.288,132.749l-48.603-48.603l32.892-32.892c0.977-0.977,2.561-0.977,3.538,0l45.065,45.064c0.977,0.977,0.977,2.561,0,3.538
		L432.288,132.749z"/>
	
		<polyline id="XMLID_127_" fill="none" stroke="#000000" stroke-width="22" stroke-linecap="round" stroke-linejoin="round" stroke-miterlimit="10" points="
		408.227,156.811 197.789,367.248 149.186,318.645 356.954,110.878 	"/>
	
		<polygon id="XMLID_128_" fill="none" stroke="#000000" stroke-width="22" stroke-linecap="round" stroke-linejoin="round" stroke-miterlimit="10" points="
		149.186,318.645 118.257,398.178 197.789,367.248 	"/>
</g>
</svg>
