<?xml version="1.0" encoding="utf-8"?>
<!-- Generator: Adobe Illustrator 19.0.0, SVG Export Plug-In . SVG Version: 6.00 Build 0)  -->
<svg version="1.1" id="Layer_1" xmlns="http://www.w3.org/2000/svg" xmlns:xlink="http://www.w3.org/1999/xlink" x="0px" y="0px"
	 viewBox="0 0 512 512" style="enable-background:new 0 0 512 512;" xml:space="preserve">
<style type="text/css">
	.st0{fill:#040000;}
</style>
<g>
	<g>
		<path class="st0" d="M348.6,451.5c-1.8,0-3.6-0.2-5.3-0.8L206,410.9l6.5-22.4l133.2,38.7l84.1-289.6L274.1,92.3l6.5-22.4
			l159.7,46.4c4.9,1.4,8.9,4.7,11.4,9.2c2.5,4.5,3,9.6,1.6,14.5l-86.5,297.8C364.5,446.1,356.9,451.5,348.6,451.5z"/>
	</g>
	<g>
		<path class="st0" d="M127.6,427.3c-8.9,0-17-6.3-18.7-15.4l-60-304.2c-2-10.3,4.7-20.4,15.1-22.5l199-39.3c5-1,10.1,0,14.3,2.9
			c4.2,2.8,7.1,7.2,8.1,12.2l60,304.2c1,5,0,10.1-2.9,14.3c-2.8,4.2-7.2,7.1-12.2,8.1l-199,39.3
			C130.1,427.2,128.9,427.3,127.6,427.3z M72.6,107.3L131,403.2l190.7-37.6L263.3,69.7L72.6,107.3z"/>
	</g>
</g>
</svg>
