<?xml version="1.0" encoding="utf-8"?>
<!-- Generator: Adobe Illustrator 19.1.0, SVG Export Plug-In . SVG Version: 6.00 Build 0)  -->
<svg version="1.1" id="图层_9" xmlns="http://www.w3.org/2000/svg" xmlns:xlink="http://www.w3.org/1999/xlink" x="0px" y="0px"
	 viewBox="0 0 512 512" enable-background="new 0 0 512 512" xml:space="preserve">
<g>
	<path id="XMLID_146_" fill="none" stroke="#000000" stroke-width="25" stroke-miterlimit="10" d="M449.12,209.932
		c-31.086-0.944-62.213-0.013-93.318-0.286c-34.647-0.304-38.47-5.408-26.085-41.361c13.598-39.473,13.865-77.988-0.792-116.801
		c-5.031-13.321-13.997-20.82-27.037-20.472c-13.297,0.356-21.79,9.307-25.494,22.698c-2.529,9.129-1.54,19.293-3.822,28.656
		c-17.039,69.905-39.972,98.217-90.104,131.916c-12.897,8.67-23.466,13.143-23.351,31.788c0.427,69.238,0.524,138.472,0.097,207.703
		c-0.12,19.533,7.559,27.401,24.519,27.224c34.02-0.363,68.047-0.108,102.067-0.108c0-0.045,0-0.096,0-0.134
		c34.995,0,69.984,0.05,104.978-0.025c19.294-0.039,33.828-7.431,39.575-30.191c16.572-65.567,34.249-130.8,50.011-196.602
		C487.214,225.364,476.123,210.75,449.12,209.932z"/>
	<path id="XMLID_147_" fill="none" stroke="#000000" stroke-width="25" stroke-miterlimit="10" d="M111.209,354.717
		c0-32.346,0.202-64.692-0.089-97.034c-0.147-15.887,2.852-34.589-21.702-35.395c-22.71-0.736-51.226-4.077-54.466,26.184
		c-7.336,68.566-6.639,137.881-0.419,206.459c2.74,30.243,32.949,24.828,55.114,25.304c22.836,0.482,21.764-16.87,22.037-31.776
		c0.571-31.236,0.178-62.5,0.178-93.743C111.64,354.717,111.425,354.717,111.209,354.717z"/>
</g>
</svg>
