<?xml version="1.0" encoding="utf-8"?>
<!-- Generator: Adobe Illustrator 19.1.0, SVG Export Plug-In . SVG Version: 6.00 Build 0)  -->
<svg version="1.1" id="图层_9" xmlns="http://www.w3.org/2000/svg" xmlns:xlink="http://www.w3.org/1999/xlink" x="0px" y="0px"
	 viewBox="0 0 512 512" enable-background="new 0 0 512 512" xml:space="preserve">
<path fill="none" stroke="#000000" stroke-width="22" stroke-miterlimit="10" d="M466,339.963c0,17.182-14.413,35.218-31.349,35.218
	H342.63c-11.157,0-21.183,11.45-21.183,11.45l-64.61,67.03l-64.609-67.03c0,0-12.29-11.45-22.834-11.45H77.35
	c-16.937,0-31.35-18.036-31.35-35.218l0-233.402c0-17.196,13.422-31.123,30.005-31.123h360.013
	c16.559,0,29.982,13.927,29.982,31.123L466,339.963L466,339.963L466,339.963z"/>
<g>
	<circle id="XMLID_5_" stroke="#000000" stroke-width="1.0959" stroke-miterlimit="10" cx="158.219" cy="232.227" r="20"/>
	<circle id="XMLID_4_" stroke="#000000" stroke-width="1.0959" stroke-miterlimit="10" cx="256.581" cy="232.227" r="20"/>
	<circle id="XMLID_1_" stroke="#000000" stroke-width="1.0959" stroke-miterlimit="10" cx="353.781" cy="232.227" r="20"/>
</g>
</svg>
